<?xml version="1.0" encoding="utf-8"?>
<svg version="1.1" xmlns:xlink="http://www.w3.org/1999/xlink" width="18px" height="18px" xmlns="http://www.w3.org/2000/svg">
  <g transform="matrix(1 0 0 1 -55 -6 )">
    <path d="M 64 6  C 69.04 6  73 9.96  73 15  C 73 20.04  69.04 24  64 24  C 58.96 24  55 20.04  55 15  C 55 9.96  58.96 6  64 6  Z " fill-rule="nonzero" fill="#ffffff" stroke="none" fill-opacity="0" />
    <path d="M 64 6.5  C 68.76 6.5  72.5 10.24  72.5 15  C 72.5 19.76  68.76 23.5  64 23.5  C 59.24 23.5  55.5 19.76  55.5 15  C 55.5 10.24  59.24 6.5  64 6.5  Z " stroke-width="1" stroke="#ffffff" fill="none" />
  </g>
</svg>