<?xml version="1.0" encoding="utf-8"?>
<svg version="1.1" xmlns:xlink="http://www.w3.org/1999/xlink" width="27px" height="32px" xmlns="http://www.w3.org/2000/svg">
  <g transform="matrix(1 0 0 1 -621 -183 )">
    <path d="M 11.6375 5.2375  C 13.475 3.925  15.3125 3.1375  16.8875 2.875  C 16.1 5.5  17.4125 7.6  18.2 8.65  L 19.5125 9.9625  C 20.5625 11.0125  21.35 11.275  22.4 13.1125  C 24.2375 15.7375  25.55 18.3625  23.975 23.0875  C 22.1375 27.8125  17.675 29.3875  14 29.3875  C 10.325 29.3875  5.6 27.55  3.7625 22.825  C 1.6625 16.525  6.125 8.9125  11.6375 5.2375  Z M 20.825 0.250000000000001  L 19.5125 0.249999999999999  C 17.4125 0.249999999999999  13.7375 0.774999999999999  10.325 3.1375  C 4.2875 7.075  -0.9625 16  1.6625 23.6125  C 3.5 28.8625  8.75 31.75  14 31.75  C 18.9875 31.75  23.975 29.125  26.075 23.875  C 28.4375 17.8375  25.55 13.6375  23.45 10.4875  C 21.6125 7.6  22.925 4.7125  22.4 4.7125  C 21.35 4.7125  20.0375 7.075  20.0375 7.075  C 20.0375 7.075  18.4625 5.2375  19.775 2.6125  C 20.3 1.5625  21.0875 0.512500000000001  20.825 0.250000000000001  Z " fill-rule="nonzero" fill="#eeb834" stroke="none" transform="matrix(1 0 0 1 621 183 )" />
  </g>
</svg>