<?xml version="1.0" encoding="utf-8"?>
<svg version="1.1" xmlns:xlink="http://www.w3.org/1999/xlink" width="32px" height="28px" xmlns="http://www.w3.org/2000/svg">
  <g transform="matrix(1 0 0 1 -666 -186 )">
    <path d="M 31.2 26.136  C 31.2 25.64  30.816 25.256  30.32 25.256  L 28 25.256  L 28 12.792  C 28.176 11.896  27.456 11.176  26.56 11.176  L 5.648 11.176  C 4.752 11.176  4.032 11.896  4 12.792  L 4 25.256  L 1.472 25.256  C 0.992000000000004 25.256  0.592000000000004 25.64  0.592000000000004 26.136  C 0.592000000000004 26.616  0.992000000000004 27.016  1.472 27  L 30.32 27  C 30.8 27.016  31.2 26.616  31.2 26.136  Z M 26.368 17.064  L 26.368 25  L 5.84 25  L 5.84 17.032  C 5.936 17.224  6.048 17.416  6.144 17.656  C 6.656 18.712  7.28 20.008  8.704 20.008  C 10.128 20.008  10.768 18.696  11.264 17.656  C 11.68 16.792  12 16.2  12.4 16.2  C 12.784 16.2  13.12 16.808  13.52 17.656  C 14.032 18.712  14.656 20.008  16.08 20.008  C 17.504 20.008  18.144 18.696  18.656 17.656  C 19.072 16.808  19.392 16.2  19.792 16.2  C 20.176 16.2  20.512 16.808  20.928 17.656  C 21.44 18.712  22.064 20.008  23.504 20.008  C 24.928 20.008  25.568 18.696  26.08 17.656  C 26.176 17.448  26.288 17.24  26.368 17.064  Z M 26.384 13.16  L 26.368 14.776  C 25.504 15.16  25.024 16.136  24.624 16.952  C 24.208 17.816  23.888 18.408  23.488 18.408  C 23.088 18.408  22.768 17.8  22.352 16.952  C 21.84 15.896  21.216 14.6  19.776 14.6  C 18.352 14.6  17.712 15.912  17.216 16.952  C 16.8 17.816  16.48 18.408  16.08 18.408  C 15.696 18.408  15.376 17.8  14.96 16.952  C 14.448 15.896  13.824 14.6  12.4 14.6  C 10.976 14.6  10.336 15.912  9.84 16.952  C 9.424 17.816  9.104 18.408  8.72 18.408  C 8.336 18.408  8 17.8  7.6 16.952  C 7.2 16.136  6.72 15.144  5.856 14.76  L 5.856 13.16  L 26.384 13.16  Z M 9.408 1.736  C 9.424 2.168  9.76 2.504  10.192 2.504  C 10.624 2.504  10.96 2.152  10.96 1.736  L 10.96 0.984  C 10.96 0.552  10.608 0.216  10.192 0.216  C 9.76 0.216  9.408 0.568  9.408 0.984  L 9.408 1.736  Z M 10.864 4.472  C 10.88 4.088  10.56 3.784  10.192 3.784  C 9.808 3.784  9.504 4.088  9.504 4.472  L 9.504 10.2  C 9.504 10.584  9.808 10.888  10.192 10.888  C 10.56 10.888  10.864 10.584  10.864 10.2  L 10.864 4.472  Z M 15.168 1.736  C 15.168 2.168  15.52 2.504  15.936 2.504  C 16.368 2.504  16.704 2.152  16.704 1.736  L 16.704 0.984  C 16.704 0.552  16.352 0.216  15.936 0.216  C 15.504 0.216  15.168 0.568  15.168 0.984  L 15.168 1.736  Z M 16.608 4.472  C 16.624 4.088  16.32 3.784  15.936 3.784  C 15.552 3.784  15.248 4.088  15.248 4.472  L 15.248 10.2  C 15.248 10.584  15.552 10.888  15.936 10.888  C 16.304 10.888  16.608 10.584  16.608 10.2  L 16.608 4.472  Z M 20.912 1.736  C 20.912 2.168  21.264 2.504  21.696 2.504  C 22.128 2.504  22.464 2.152  22.464 1.736  L 22.464 0.984  C 22.464 0.552  22.112 0.216  21.696 0.216  C 21.264 0.216  20.912 0.568  20.912 0.984  L 20.912 1.736  Z M 22.368 4.472  C 22.368 4.088  22.064 3.784  21.696 3.784  C 21.312 3.784  21.008 4.088  21.008 4.472  L 21.008 10.2  C 21.008 10.584  21.312 10.888  21.696 10.888  C 22.064 10.888  22.368 10.584  22.368 10.2  L 22.368 4.472  Z " fill-rule="nonzero" fill="#eeb834" stroke="none" transform="matrix(1 0 0 1 666 186 )" />
  </g>
</svg>