<?xml version="1.0" encoding="utf-8"?>
<svg version="1.1" xmlns:xlink="http://www.w3.org/1999/xlink" width="21px" height="23px" xmlns="http://www.w3.org/2000/svg">
  <g transform="matrix(1 0 0 1 -489 -98 )">
    <path d="M 19.2253462265625 11.4170002724609  L 20.3829083857422 5.75409471386719  L 14.7395356015625 3.95296588574219  L 10.4501248144531 0.102172735351562  L 6.298254796875 3.95421203613281  L 0.5743745859375 5.75899240039062  L 1.8869526484375 11.4170002724609  L 0.575562764648437 17.0920485898438  L 6.16537988378906 18.8810346591797  L 10.4487917207031 22.7537949130859  L 14.7395356015625 19.0162279863281  L 20.3780976425781 17.0811519814453  L 19.2253462265625 11.4170002724609  Z M 17.7590853261719 15.5811869638672  L 13.6350074755859 16.9967032451172  L 10.4767287744141 19.7212619960938  L 7.36635461816406 16.9088927744141  L 3.25688282714844 15.5692180634766  L 4.20277251367188 11.4783806699219  L 3.25688282714844 7.29173421484375  L 7.40892675976563 5.98266274511719  L 10.4727294931641 3.17295973925781  L 13.5405315078125 5.92678863769531  L 17.7524488291016 7.29573349609375  L 16.9209735732422 11.3626331455078  L 17.7590853261719 15.5811869638672  Z " fill-rule="nonzero" fill="#eeb834" stroke="none" transform="matrix(1 0 0 1 489 98 )" />
  </g>
</svg>