<?xml version="1.0" encoding="utf-8"?>
<svg version="1.1" xmlns:xlink="http://www.w3.org/1999/xlink" width="84px" height="84px" xmlns="http://www.w3.org/2000/svg">
  <g transform="matrix(1 0 0 1 -146 -208 )">
    <path d="M 73.97455078125 10.672060546875  L 68.1077783203125 10.672060546875  L 68.1077783203125 3.1294921875  C 68.1077783203125 1.4038623046875  66.703916015625 0  64.978388671875 0  L 64.7693115234375 0  C 63.044091796875 0  61.6406396484375 1.4034521484375  61.6406396484375 3.1294921875  L 61.6406396484375 11  L 22.6522119140625 11  L 22.6522119140625 3.1294921875  C 22.6522119140625 1.4038623046875  21.2486572265625 0  19.5231298828125 0  L 19.314052734375 0  C 17.588525390625 0  16.184560546875 1.4034521484375  16.184560546875 3.1294921875  L 16.184560546875 10.672060546875  L 10.0250390625 10.672060546875  C 4.5524267578125 10.672060546875  0.0999755859375 15.12451171875  0 20.5971240234375  L 0 74.074013671875  C 0.0999755859375 79.5470361328125  4.5524267578125 83.9998974609375  10.0250390625 84  L 73.97455078125 84  C 79.4475732421875 83.9998974609375  83.9000244140625 79.5470361328125  84 74.074013671875  L 84 20.5971240234375  C 83.9000244140625 15.12451171875  79.4471630859375 10.672060546875  73.97455078125 10.672060546875  Z M 77 77.51830078125  L 77.641552734375 77  L 7 77  L 7 34  L 77 34  L 77 77.51830078125  Z M 77.641552734375 26.6044775390625  L 77.641552734375 27  L 7 27  L 7 17  L 77.641552734375 17  L 77.641552734375 26.6044775390625  Z " fill-rule="nonzero" fill="#eeb834" stroke="none" transform="matrix(1 0 0 1 146 208 )" />
  </g>
</svg>