<?xml version="1.0" encoding="utf-8"?>
<svg version="1.1" xmlns:xlink="http://www.w3.org/1999/xlink" width="83px" height="83px" xmlns="http://www.w3.org/2000/svg">
  <g transform="matrix(1 0 0 1 -148 -211 )">
    <path d="M 42.7124513291016 82  C 42.3805836357422 82.817527703125  42.0241331191406 82.8789847011719  41.6553912509766 82.8789847011719  C 41.2866493828125 82.8789847011719  40.9424903378906 82.817527703125  40.5860398212891 82  L 14.6389027412109 82  C 9.955880859375 82.6946138271484  6.17013088476562 78.8719896777344  7 74.1889676757812  L 7 47.2831018105469  C 2.7777056015625 46.0416708583984  0.454631748046868 42.7475766279297  0.454631748046868 39.0970321210937  L 0.454631748046868 29.1287098486328  C 0.454631748046868 24.3350654423828  4.33871289550781 20.4264014716797  9.12006595019531 21  L 20.6739782197266 21  C 19.3587987978516 18.3491554902344  18.6704807080078 15.9646247587891  18.6704807080078 13.4694713828125  C 18.6704807080078 6.2544219501953  24.5211851923828 0.391425994140619  31.6993604501953 0.391425994140619  C 35.5342759511719 0.391425994140619  39.184820578125 2.11222145898437  41.6553912509766 5.03757370117187  C 44.1259618037109 2.11222145898437  47.7887979023437 0.391425994140619  51.6114220517578 0.391425994140619  C 58.80188878125 0.391425994140619  64.6403017939453 6.2544219501953  64.6403017939453 13.4694713828125  C 64.6403017939453 15.9646247587891  63.9519835839844 18.3491556103516  62.6368042822265 21  L 74.1907165517578 21  C 76.5137904052734 20.4264014716797  78.6893674394531 21.3359647304687  80.3241230830078 22.9830118457031  C 81.9711701982422 24.6300589609375  82.8684421054687 26.8179273466797  82.8684421054687 29.1287098486328  L 82.8684421054687 39.0970321210937  C 82.8684421054687 42.7475767480469  80.5453682519531 46.0416708583984  77 47.2831018105469  L 77 74.1766763242188  C 77.15294296875 78.8719895576172  73.3549016425781 82.6823223554688  68.6841711123047 82  L 42.7124513291016 82  Z M 44 76  L 68.671879640625 76  C 69.9624762392578 76.5120415292969  71.0072448457031 75.4672729228516  71 74.1766763242188  L 71 47  L 44 47  L 44 76  Z M 13 47  L 13 74.1766763242188  C 12.3035375361328 75.4672729228516  13.3483061425781 76.5120415292969  14.6389027412109 76  L 39 76  L 39 47  L 13 47  Z M 39 27  L 9.12006595019531 27  C 7.73113817871094 26.5966822978516  6.58803839941406 27.7397820771484  6.58803839941406 29.1287098486328  L 6.58803839941406 39.0970321210937  C 6.58803839941406 40.4982512441406  7.71884682714844 41.629059671875  9.12006595019531 41  L 39 41  L 39 27  Z M 74.1907165517578 41  L 74.1907165517578 41.629059671875  C 75.5796443232422 41.629059671875  76.7227441025391 40.4982512441406  76.7227441025391 39.0970321210937  L 76.7227441025391 29.1287098486328  C 76.7227441025391 27.7397820771484  75.5919356748047 26.5966822978516  74.1907165517578 27  L 44 27  L 44 41  L 74.1907165517578 41  Z M 51.6237134033203 20.389527296875  L 51.6237134033203 20.3772359453125  C 55.4094633779297 20.3772359453125  58.4946037910156 17.2798041806641  58.4946037910156 13.4694713828125  C 58.4946037910156 9.65913858496093  55.3971720263672 6.56170682031249  51.5991305800781 6.56170682031249  C 47.8133806054687 6.56170682031249  44.7282401923828 9.65913858496093  44.7159488408203 13.4694713828125  L 44.7159488408203 20.389527296875  L 51.6237134033203 20.389527296875  Z M 38.5825421894531 13.4448885595703  C 38.5702508378906 9.64684723339845  35.4851104248047 6.54941534863282  31.6993604501953 6.54941546875  C 27.9013191240234 6.54941546875  24.8161787109375 9.64684723339844  24.8161787109375 13.45718003125  C 24.8161787109375 17.2675128291016  27.8890277724609 20.36494459375  31.6870690986328 20.36494459375  L 38.5825421894531 20.36494459375  L 38.5825421894531 13.4448885595703  Z " fill-rule="nonzero" fill="#eeb834" stroke="none" transform="matrix(1 0 0 1 148 211 )" />
  </g>
</svg>