<?xml version="1.0" encoding="utf-8"?>
<svg version="1.1" xmlns:xlink="http://www.w3.org/1999/xlink" width="20px" height="14px" xmlns="http://www.w3.org/2000/svg">
  <g transform="matrix(1 0 0 1 -468 -197 )">
    <path d="M 6.773515625 13.302109375  C 6.98578125 13.5143359375  7.2639453125 13.620546875  7.542109375 13.620546875  C 7.730546875 13.620546875  7.9183984375 13.5706640625  8.08640625 13.47328125  C 8.1828125 13.4230859375  8.2734765625 13.3579296875  8.3543359375 13.2769140625  L 19.35609375 2.2753125  C 19.7805859375 1.8506640625  19.7805859375 1.16234375  19.35609375 0.737851562500001  C 18.9315625 0.313359375000001  18.2432421875 0.313359375000001  17.81859375 0.737851562500001  L 7.55140625 11.0051953125  L 2.353515625 5.807109375  C 1.9288671875 5.3826171875  1.240546875 5.3826171875  0.8160546875 5.807109375  C 0.3915234375 6.231796875  0.3915234375 6.9201171875  0.8160546875 7.344609375  L 6.773515625 13.302109375  Z " fill-rule="nonzero" fill="#eeb834" stroke="none" transform="matrix(1 0 0 1 468 197 )" />
  </g>
</svg>