<?xml version="1.0" encoding="utf-8"?>
<svg version="1.1" xmlns:xlink="http://www.w3.org/1999/xlink" width="32px" height="32px" xmlns="http://www.w3.org/2000/svg">
  <g transform="matrix(1 0 0 1 -462 -183 )">
    <path d="M 28.18078125 4.065546875  L 25.9458203125 4.065546875  L 25.9458203125 1.1921875  C 25.9458203125 0.5348046875  25.411015625 0  24.753671875 0  L 24.6740234375 0  C 24.016796875 0  23.4821484375 0.5346484375  23.4821484375 1.1921875  L 23.4821484375 4  L 8.6294140625 4  L 8.6294140625 1.1921875  C 8.6294140625 0.5348046875  8.0947265625 0  7.4373828125 0  L 7.357734375 0  C 6.700390625 0  6.165546875 0.5346484375  6.165546875 1.1921875  L 6.165546875 4.065546875  L 3.8190625 4.065546875  C 1.7342578125 4.065546875  0.0380859375 5.76171875  0 7.8465234375  L 0 28.218671875  C 0.0380859375 30.3036328125  1.7342578125 31.9999609375  3.8190625 32  L 28.18078125 32  C 30.2657421875 31.9999609375  31.9619140625 30.3036328125  32 28.218671875  L 32 7.8465234375  C 31.9619140625 5.76171875  30.2655859375 4.065546875  28.18078125 4.065546875  Z M 29 29.53078125  L 29.577734375 29  L 3 29  L 3 13  L 29 13  L 29 29.53078125  Z M 29.577734375 10.1350390625  L 2.4646875 10.1350390625  L 2.4646875 7  L 29.577734375 7  L 29.577734375 10.1350390625  Z " fill-rule="nonzero" fill="#eeb834" stroke="none" transform="matrix(1 0 0 1 462 183 )" />
  </g>
</svg>