<?xml version="1.0" encoding="utf-8"?>
<svg version="1.1" xmlns:xlink="http://www.w3.org/1999/xlink" width="13px" height="15px" xmlns="http://www.w3.org/2000/svg">
  <g transform="matrix(1 0 0 1 -417 -192 )">
    <path d="M 4.15 3.25  C 3.25 4  1.9 4.55  0 4.9  L 0 3.85  C 1.85 3.3  3.1 2.3  3.7 0.949999999999999  L 5.65 0.949999999999999  C 5.5 1.35  5.3 1.7  5.15 2  L 10.5 2  L 10.5 3.2  C 9.9 3.85  9.3 4.5  8.85 4.95  L 12 4.95  L 12 7.5  C 12 8.4  11.35 9.5  10 9.5  L 6.9 9.5  C 6.85 9.6  6.65 9.95  6.65 10  L 8 10  L 8 11.8  C 7.95 12.4  8.25 12.75  8.8 12.75  L 10.75 12.75  C 11.3 12.75  11.55 12.3  11.5 11.8  L 11.5 11.5  L 13 11.5  L 13 12.5  C 13 13.5  12.25 14  11.1 14  L 8.2 14  C 6.9 14.05  6.2 13.35  6.25 12.1  L 6.25 10.65  C 5.35 12.2  3.3 13.45  0 14.5  L 0 13.35  C 2.65 12.2  4.35 11  5 9.5  L 1 9.5  L 1 5  L 6.5 5  C 6.95 4.65  7.60000000000001 3.95  8.15 3.25  L 4.15 3.25  Z M 2.75 6  L 2.75 8.2  L 5.3 8.2  C 5.45 7.6  5.5 6  5.5 6  L 2.75 6  Z M 10.3 6.95  L 10.3 6  L 7.5 6  L 7.5 6.4  C 7.5 7.2  7.45 7.45  7.35 8.2  L 9.05 8.2  C 9.65 8.25  10.35 7.6  10.3 6.95  Z " fill-rule="nonzero" fill="#eeb834" stroke="none" transform="matrix(1 0 0 1 417 192 )" />
  </g>
</svg>