<?xml version="1.0" encoding="utf-8"?>
<svg version="1.1" xmlns:xlink="http://www.w3.org/1999/xlink" width="72px" height="84px" xmlns="http://www.w3.org/2000/svg">
  <g transform="matrix(1 0 0 1 -152 -208 )">
    <path d="M 36.39375 84  C 23.79375 84  0.5625 65.8875  1 47.90625  L 1 12.3375  L 4.10625 12.3375  C 4.2375 12.3375  12.1125 12.20625  20.38125 8.925  C 28.78125 5.5125  34.1625 1.70625  34.29375 1.70625  L 36.39375 0  L 38.49375 1.575  C 38.49375 1.575  44.00625 5.5125  52.40625 8.79375  C 60.54375 12.075  67.7625 12.20625  67.89375 12.20625  L 71 12.20625  L 71 47.775  C 71.4375 65.8875  48.8625 84  36.39375 84  Z M 6.20625 19.1625  L 7 19.1625  L 7 47.90625  C 6.20625 61.6875  27.99375 77.56875  36.39375 77.56875  C 44.6625 77.56875  65.79375 61.6875  65 47.90625  L 65 19.1625  C 62.25 18.76875  55.6875 17.85  49.78125 15.4875  C 43.6125 12.99375  39.01875 10.36875  36.525 8.79375  C 34.03125 10.36875  29.30625 13.125  23.26875 15.4875  C 17.1 17.85  9.75 18.76875  6.20625 19.1625  Z " fill-rule="nonzero" fill="#eeb834" stroke="none" transform="matrix(1 0 0 1 152 208 )" />
  </g>
</svg>