<?xml version="1.0" encoding="utf-8"?>
<svg version="1.1" xmlns:xlink="http://www.w3.org/1999/xlink" width="28px" height="32px" xmlns="http://www.w3.org/2000/svg">
  <g transform="matrix(1 0 0 1 -409 -183 )">
    <path d="M 14.15 32  C 9.35 32  0.5 25.1  1 18.25  L 1 4.7  L 1.85 4.7  C 1.9 4.7  4.9 4.65  8.05 3.4  C 11.25 2.1  13.3 0.65  13.35 0.65  L 14.15 0  L 14.95 0.6  C 14.95 0.6  17.05 2.1  20.25 3.35  C 23.35 4.6  26.1 4.65  26.15 4.65  L 27 4.65  L 27 18.2  C 27.5 25.1  18.9 32  14.15 32  Z M 2.65 7.3  L 3 7.3  L 3 18.25  C 2.65 23.5  10.95 29.55  14.15 29.55  C 17.3 29.55  25.35 23.5  25 18.25  L 25 7.3  C 24 7.15  21.5 6.8  19.25 5.9  C 16.9 4.95  15.15 3.95  14.2 3.35  C 13.25 3.95  11.45 5  9.15 5.9  C 6.8 6.8  4 7.15  2.65 7.3  Z " fill-rule="nonzero" fill="#eeb834" stroke="none" transform="matrix(1 0 0 1 409 183 )" />
  </g>
</svg>