<?xml version="1.0" encoding="utf-8"?>
<svg version="1.1" xmlns:xlink="http://www.w3.org/1999/xlink" width="30px" height="29px" xmlns="http://www.w3.org/2000/svg">
  <g transform="matrix(1 0 0 1 -568 -185 )">
    <path d="M 15.2734585947266 28.8970720429688  C 15.1574398076172 28.944338953125  15.0328270253906 28.9658239199219  14.9039172666016 28.9658239199219  C 14.7750075078125 28.9658239199219  14.6546917441406 28.944338953125  14.5300789619141 28.9013690615234  L 5.45912860058594 28.9013690615234  C 3.821974609375 28.9013690615234  2.49850104101562 27.5650045214844  2.49850104101562 25.9278504882813  L 2.49850104101562 16.5217347792969  C 1.3125312265625 16.0877385927734  0.500399716796872 14.9361446748047  0.500399716796872 13.6599380585937  L 0.500399716796872 10.1750774267578  C 0.500399716796872 8.49925052050781  1.85824922363281 7.13280701855469  3.52977915332031 7.13280701855469  L 7.56895173535156 7.13280701855469  C 7.10917356347656 6.40661533398437  6.86854203613281 5.57299889941406  6.86854203613281 4.7007095078125  C 6.86854203613281 2.17837515332031  8.91391027050781 0.128709900390622  11.4233536533203 0.128709900390622  C 12.7640151699219 0.128709900390622  14.040221828125 0.730288802734373  14.9039172666016 1.75297291992187  C 15.7676126630859 0.730288802734373  17.0481163398437 0.128709900390622  18.3844808798828 0.128709900390622  C 20.89822128125 0.128709900390622  22.9392924970703 2.17837515332031  22.9392924970703 4.7007095078125  C 22.9392924970703 5.57299889941406  22.6986609277344 6.40661537597656  22.2388827978516 7.13280701855469  L 26.2780553798828 7.13280701855469  C 27.0901868896484 7.13280701855469  27.8507544707031 7.45078441796875  28.4222544111328 8.02658137695312  C 28.9980513701172 8.6023783359375  29.3117317929688 9.36724289355469  29.3117317929688 10.1750774267578  L 29.3117317929688 13.6599380585937  C 29.3117317929688 14.9361447167969  28.4996002832031 16.0877385927734  27.31363046875 16.5217347792969  L 27.31363046875 25.9235535117188  C 27.31363046875 27.5650044794922  25.9858599238281 28.8970720429688  24.3530029091797 28.8970720429688  L 15.2734585947266 28.8970720429688  Z M 16 26.7399819980469  L 24.348705890625 26.7399819980469  C 24.7998900673828 26.7399819980469  25.1651343769531 26.3747376884766  25.1651344189453 25.9235535117188  L 25.1651344189453 16.7022084667969  L 16 16.7022084667969  L 16 26.7399819980469  Z M 4.64270011425781 16.7022084667969  L 4.64270011425782 25.9235535117188  C 4.64270011425782 26.3747376884766  5.00794442382813 26.7399819980469  5.45912860058594 26.7399819980469  L 14 26.7399819980469  L 14 16.7022084667969  L 4.64270011425781 16.7022084667969  Z M 13.8296692207031 9.28989706347656  L 3.52977915332031 9.28989706347656  C 3.04421903808594 9.28989706347656  2.64459879003906 9.68951731152344  2.64459879003906 10.1750774267578  L 2.64459879003906 13.6599380585937  C 2.64459879003906 14.1497951503906  3.03992206152344 14.545118421875  3.52977915332031 14  L 13.8296692207031 14  L 13.8296692207031 9.28989706347656  Z M 26.2780553798828 14  L 26.2780553798828 14.545118421875  C 26.7636154951172 14.545118421875  27.1632357431641 14.1497951503906  27.1632357431641 13.6599380585937  L 27.1632357431641 10.1750774267578  C 27.1632357431641 9.68951731152344  26.7679124716797 9.28989706347656  26.2780553798828 9.28989706347656  L 15.9781652705078 9.28989706347656  L 15.9781652705078 14  L 26.2780553798828 14  Z M 18.3887778564453 7.119916046875  L 18.3887778564453 7.1156190703125  C 19.7122514248047 7.1156190703125  20.7907964472656 6.03277707128906  20.7907964472656 4.7007095078125  C 20.7907964472656 3.36864194433594  19.7079544482422 2.2857999453125  18.3801838613281 2.2857999453125  C 17.0567102929687 2.2857999453125  15.9781652705078 3.36864194433594  15.9738682939453 4.7007095078125  L 15.9738682939453 7.119916046875  L 18.3887778564453 7.119916046875  Z M 13.8296692207031 4.69211551269531  C 13.8253722441406 3.36434496777344  12.7468272216797 2.28150292675782  11.4233536533203 2.28150296875  C 10.0955831083984 2.28150296875  9.0170380859375 3.36434496777344  9.0170380859375 4.69641253125  C 9.0170380859375 6.02848009472656  10.0912861318359 7.11132209375  11.4190566767578 7.11132209375  L 13.8296692207031 7.11132209375  L 13.8296692207031 4.69211551269531  Z " fill-rule="nonzero" fill="#eeb834" stroke="none" transform="matrix(1 0 0 1 568 185 )" />
  </g>
</svg>