<?xml version="1.0" encoding="utf-8"?>
<svg version="1.1" xmlns:xlink="http://www.w3.org/1999/xlink" width="12px" height="19px" xmlns="http://www.w3.org/2000/svg">
  <g transform="matrix(1 0 0 1 -629 -192 )">
    <path d="M 11.25 7.7875  C 11.5125 7.7875  11.775 8.05  11.5125 8.3125  C 8.625 11.725  5.475 14.875  2.5875 18.2875  C 2.325 18.55  2.0625 18.2875  2.0625 18.025  C 2.85 15.6625  3.9 13.3  4.6875 10.9375  L 1.0125 10.9375  C 0.75 10.9375  0.75 10.675  0.75 10.4125  L 8.625 0.962500000000002  C 8.625 0.962500000000002  8.8875 0.700000000000003  8.8875 0.962500000000002  C 9.15 0.962500000000002  9.15 1.225  9.15 1.225  C 8.1 3.5875  7.575 5.6875  6.7875 7.7875  L 11.25 7.7875  Z " fill-rule="nonzero" fill="#eeb834" stroke="none" transform="matrix(1 0 0 1 629 192 )" />
  </g>
</svg>