<?xml version="1.0" encoding="utf-8"?>
<svg version="1.1" xmlns:xlink="http://www.w3.org/1999/xlink" width="27px" height="25px" xmlns="http://www.w3.org/2000/svg">
  <g transform="matrix(1 0 0 1 -525 -97 )">
    <path d="M 13.4916391640625 24.3062763486328  L 26.1713833066406 8.16845178808594  L 21.5605804160156 1  L 5.42275588378906 1  L 0.811952993164063 8.16845178808594  L 13.4916391640625 24.3062763486328  Z M 23.8659673613281 7.59211955175781  L 18.6788322626953 7.59211955175781  L 20.9842192080078 2.98128768945312  L 23.8659673613281 7.59211955175781  Z M 13.4916681357422 2.404955453125  L 16.9497775537109 7.59211955175781  L 10.0335877177734 7.59211955175781  L 13.4916681357422 2.404955453125  Z M 9.19944627441406 6.591341078125  L 7.15181056445312 2.404926453125  L 11.7626134550781 2.404926453125  L 9.19944627441406 6.591341078125  Z M 15.2207228447266 2.404926453125  L 19.8314967353516 2.404926453125  L 17.7838900253906 6.591341078125  L 15.2207228447266 2.404926453125  Z M 10.0335877177734 9.32114526074219  L 16.9497775537109 9.32114526074219  L 13.4916681357422 21.4244991953125  L 10.0335877177734 9.32114526074219  Z M 5.99911709179688 2.98128768945312  L 8.30450403710937 7.59211955175781  L 3.11736891015625 7.59211955175781  L 5.99911709179688 2.98128768945312  Z M 3.69370117480469 9.32114526074219  L 8.30450403710937 9.32114526074219  L 11.18625221875 18.5427510136719  L 3.69370117480469 9.32114526074219  Z M 15.7970840810547 18.5427510136719  L 18.6788322626953 9.32114526074219  L 23.289635125 9.32114526074219  L 15.7970840810547 18.5427510136719  Z " fill-rule="nonzero" fill="#eeb834" stroke="none" transform="matrix(1 0 0 1 525 97 )" />
  </g>
</svg>