<?xml version="1.0" encoding="utf-8"?>
<svg version="1.1" xmlns:xlink="http://www.w3.org/1999/xlink" width="26px" height="26px" xmlns="http://www.w3.org/2000/svg">
  <g transform="matrix(1 0 0 1 -519 -183 )">
    <path d="M 25.005746125 6.42051090625  C 25.005714125 5.64762690625  24.7074843125 4.90656134375  24.188955875 4.38592234375  L 21.095661125 1.28850240625  C 20.5946568125 0.78477990625  19.87572025 0.49646340625  19.1213836875 0.49646340625  C 18.36800646875 0.49646340625  17.64846234375 0.7847799375  17.14749 1.28850240625  C 17.14550734375 1.28971759375  17.14339678125 1.29202003125  17.14125421875 1.29358696875  L 14.6201155625 4.264980375  L 1.16261575 17.170918125  C 1.14726615625 17.18508453125  1.13674528125 17.2051349375  1.13575396875 17.2263045625  L 0.247300343749999 24.96224359375  C 0.243974593749999 24.9915996875  0.25628625 25.02098775  0.278415249999999 25.040014875  L 0.705965374999999 25.414257125  C 0.721890562499999 25.428647375  0.743507906249999 25.43625821875  0.765061312499999 25.43625821875  C 0.76934640625 25.43625821875  0.7736315 25.43625821875  0.777692749999999 25.43526690625  L 8.3001765 24.4097861875  C 8.32131415625 24.4066523125  8.33922203125 24.3975065  8.35342040625 24.38234878125  L 21.22069640625 10.88462025  L 24.18281609375 8.4612073125  C 24.18492665625 8.45912871875001  24.18706921875 8.45714606250001  24.18962746875 8.45500353125  C 24.70751634375 7.93474825  25.005746125 7.19329896875  25.005746125 6.42051090625  Z M 22.7852675625 5.79018628125  C 23.10162909375 6.10705940625  23.1027803125 6.62456453125  22.787058375 6.94223715625  L 21.05869421875 8.67482246875  L 16.81974421875 4.428293625  L 18.5474688125 2.694717  C 18.7006769375 2.5427240625  18.90325959375 2.45849315625  19.12042434375 2.45849315625  C 19.3389321875 2.45849315625  19.54269803125 2.5426920625  19.694115375 2.694717  L 22.7852675625 5.79018628125  Z M 2.5804704375 23.091448  L 2.782637375 19.77587196875  L 5.83806978125 22.83459815625  L 2.5804704375 23.091448  Z M 3.6933159375 17.87994140625  L 15.598812 6.0139385625  L 19.4777820625 9.900295625  L 7.647658875 21.8378339375  L 3.6933159375 17.87994140625  Z " fill-rule="nonzero" fill="#eeb834" stroke="none" transform="matrix(1 0 0 1 519 183 )" />
  </g>
</svg>