<?xml version="1.0" encoding="utf-8"?>
<svg version="1.1" xmlns:xlink="http://www.w3.org/1999/xlink" width="31px" height="29px" xmlns="http://www.w3.org/2000/svg">
  <g transform="matrix(1 0 0 1 -301 -288 )">
    <path d="M 15.4899093359375 28.7489542138672  L 30.7930488183594 9.27226939941406  L 25.2282867089844 0.229535380859375  L 5.75160192871094 0.229535380859375  L 0.186839819335938 9.27226939941406  L 15.4899093359375 28.7489542138672  Z M 28.0106502636719 8.57669601074219  L 21.7503147998047 8.57669601074219  L 24.5326783544922 3.01189893554688  L 28.0106502636719 8.57669601074219  Z M 15.4899443017578 2.316325546875  L 19.6635246337891 8.57669601074219  L 11.3163989697266 8.57669601074219  L 15.4899443017578 2.316325546875  Z M 10.3096765380859 7.368859921875  L 7.83839206054687 2.316290546875  L 13.4031541699219 2.316290546875  L 10.3096765380859 7.368859921875  Z M 17.5767344677734 2.316290546875  L 23.1414615771484 2.316290546875  L 20.6702120996094 7.368859921875  L 17.5767344677734 2.316290546875  Z M 11.3163989697266 10.6634511767578  L 19.6635246337891 10.6634511767578  L 15.4899443017578 25.2709473046875  L 11.3163989697266 10.6634511767578  Z M 6.44721028320313 3.01189893554688  L 9.22957383789062 8.57669601074219  L 2.96923833984375 8.57669601074219  L 6.44721028320313 3.01189893554688  Z M 3.66481176269531 10.6634511767578  L 9.22957383789062 10.6634511767578  L 12.70754578125 21.7929753613281  L 3.66481176269531 10.6634511767578  Z M 18.2723428564453 21.7929753613281  L 21.7503147998047 10.6634511767578  L 27.315076875 10.6634511767578  L 18.2723428564453 21.7929753613281  Z " fill-rule="nonzero" fill="#eeb834" stroke="none" transform="matrix(1 0 0 1 301 288 )" />
  </g>
</svg>