<?xml version="1.0" encoding="utf-8"?>
<svg version="1.1" xmlns:xlink="http://www.w3.org/1999/xlink" width="73px" height="20px" xmlns="http://www.w3.org/2000/svg">
  <g transform="matrix(1 0 0 1 -231 -575 )">
    <path d="M 296.1617339551 575.5  C 296.1617339551 575.5  297.727328919566 575.714465063625  297.727328919566 575.714465063625  C 297.727328919566 575.714465063625  303.455588500033 585  303.455588500033 585  C 303.455588500033 585  297.727328919566 594.285534936375  297.727328919566 594.285534936375  C 297.727328919566 594.285534936375  296.1617339551 594.5  296.1617339551 594.5  C 296.1617339551 594.5  231.5 594.5  231.5 594.5  C 231.5 594.5  231.5 575.5  231.5 575.5  C 231.5 575.5  296.1617339551 575.5  296.1617339551 575.5  Z " fill-rule="nonzero" fill="#ffffff" stroke="none" fill-opacity="0" />
    <path d="M 296.1617339551 575.5  C 296.1617339551 575.5  297.727328919566 575.714465063625  297.727328919566 575.714465063625  C 297.727328919566 575.714465063625  303.455588500033 585  303.455588500033 585  C 303.455588500033 585  297.727328919566 594.285534936375  297.727328919566 594.285534936375  C 297.727328919566 594.285534936375  296.1617339551 594.5  296.1617339551 594.5  C 296.1617339551 594.5  231.5 594.5  231.5 594.5  C 231.5 594.5  231.5 575.5  231.5 575.5  C 231.5 575.5  296.1617339551 575.5  296.1617339551 575.5  Z " stroke-width="1" stroke="#f19736" fill="none" />
  </g>
</svg>