<?xml version="1.0" standalone="no"?><!DOCTYPE svg PUBLIC "-//W3C//DTD SVG 1.1//EN" "http://www.w3.org/Graphics/SVG/1.1/DTD/svg11.dtd"><svg t="1494228015566" class="icon" style="" viewBox="0 0 1024 1024" version="1.1" xmlns="http://www.w3.org/2000/svg" p-id="3117" xmlns:xlink="http://www.w3.org/1999/xlink" width="32" height="32"><defs><style type="text/css"></style></defs><path d="M794.194 323.978c-0.03-0.161-0.083-0.31-0.161-0.449-66.724-118.156-195.797-200.393-341.168-200.393C238.1 123.136 64 297.236 64 512c0 186.409 131.162 342.183 306.233 380.067 26.63 5.763 54.276 8.798 82.632 8.798l0 0c12.156 0 22.011-9.855 22.011-22.011s-9.855-22.011-22.011-22.011c-24.901 0-49.431-2.632-73.321-7.802-157.35-34.049-271.52-173.918-271.52-337.04 0-190.451 154.391-344.842 344.842-344.842 126.935 0 244.282 72.679 304.483 181.133 0.086 0.155 0.22 0.274 0.395 0.358 3.989 5.611 10.543 9.272 17.953 9.272 12.157 0 22.011-9.855 22.011-22.011C797.705 331.513 796.416 327.415 794.194 323.978L794.194 323.978 794.194 323.978zM618.337 772.98l250.165-344.323c14.272-19.645 41.865-23.928 61.567-9.613l11.652 8.466c19.73 14.334 24.216 41.795 9.883 61.523L701.438 833.357 618.337 772.98 618.337 772.98zM609.712 784.852l83.101 60.377-100.4 50.811L609.712 784.852 609.712 784.852zM291.449 445.966c28.365 0 51.359-22.994 51.359-51.359 0-28.365-22.994-51.359-51.359-51.359-28.366 0-51.36 22.994-51.36 51.359C240.089 422.972 263.083 445.966 291.449 445.966L291.449 445.966zM599.606 445.966c28.365 0 51.359-22.994 51.359-51.359 0-28.365-22.994-51.359-51.359-51.359-28.366 0-51.36 22.994-51.36 51.359C548.246 422.972 571.24 445.966 599.606 445.966L599.606 445.966zM248.554 600.937c26.237 90.087 109.086 153.186 204.311 153.186 94.97 0 177.653-62.763 204.114-152.517 4.583-15.547-4.304-31.865-19.852-36.449-15.547-4.583-31.866 4.304-36.449 19.852-19.15 64.954-79.042 110.419-147.813 110.419-68.955 0-128.968-45.706-147.955-110.902-4.532-15.562-20.821-24.503-36.384-19.972C252.964 569.086 244.022 585.375 248.554 600.937L248.554 600.937z" p-id="3118" fill="#999999"></path></svg>