<?xml version="1.0" encoding="utf-8"?>
<svg version="1.1" xmlns:xlink="http://www.w3.org/1999/xlink" width="9px" height="15px" xmlns="http://www.w3.org/2000/svg">
  <g transform="matrix(1 0 0 1 -346 -12 )">
    <path d="M 8.84536082474229 7.15430861723445  C 8.94845360824743 7.25450901803606  9 7.36973947895791  9 7.5  C 9 7.63026052104209  8.94845360824743 7.74549098196394  8.84536082474229 7.84569138276555  L 1.63917525773193 14.8496993987976  C 1.53608247422679 14.9498997995992  1.41752577319591 15  1.28350515463921 15  C 1.14948453608246 15  1.03092783505157 14.9498997995992  0.927835051546375 14.8496993987976  L 0.15463917525771 14.0981963927856  C 0.0515463917525699 13.997995991984  0 13.8827655310621  0 13.75250501002  C 0 13.622244488978  0.0515463917525699 13.5070140280561  0.15463917525771 13.4068136272545  L 6.23195876288657 7.5  L 0.15463917525771 1.59318637274549  C 0.0515463917525699 1.49298597194391  0 1.37775551102203  0 1.24749498997997  C 0 1.11723446893785  0.0515463917525699 1.00200400801603  0.15463917525771 0.901803607214418  L 0.927835051546375 0.150300601202417  C 1.03092783505157 0.0501002004008058  1.14948453608246 0  1.28350515463921 0  C 1.41752577319591 0  1.53608247422679 0.0501002004008058  1.63917525773193 0.150300601202417  L 8.84536082474229 7.15430861723445  Z " fill-rule="nonzero" fill="#f76a24" stroke="none" transform="matrix(1 0 0 1 346 12 )" />
  </g>
</svg>