<?xml version="1.0" encoding="utf-8"?>
<svg version="1.1" xmlns:xlink="http://www.w3.org/1999/xlink" width="18px" height="18px" xmlns="http://www.w3.org/2000/svg">
  <g transform="matrix(1 0 0 1 -17 -41 )">
    <path d="M 26 41  C 31.04 41  35 44.96  35 50  C 35 55.04  31.04 59  26 59  C 20.96 59  17 55.04  17 50  C 17 44.96  20.96 41  26 41  Z " fill-rule="nonzero" fill="#ffffff" stroke="none" />
    <path d="M 26 41.5  C 30.76 41.5  34.5 45.24  34.5 50  C 34.5 54.76  30.76 58.5  26 58.5  C 21.24 58.5  17.5 54.76  17.5 50  C 17.5 45.24  21.24 41.5  26 41.5  Z " stroke-width="1" stroke="#cccccc" fill="none" />
  </g>
</svg>