<?xml version="1.0" encoding="utf-8"?>
<svg version="1.1" xmlns:xlink="http://www.w3.org/1999/xlink" width="25px" height="29px" xmlns="http://www.w3.org/2000/svg">
  <g transform="matrix(1 0 0 1 -218 -288 )">
    <path d="M 23.0305902734375 14.3998279150391  L 24.4276480517578 7.56528672363281  L 17.6166808984375 5.39151055175781  L 12.4398058105469 0.744001577148437  L 7.428928203125 5.39301452636719  L 0.520796914062499 7.57119772460938  L 2.1049428515625 14.3998279150391  L 0.522230922851561 21.2490241601563  L 7.26856192871093 23.4081452783203  L 12.4381969042969 28.0821662744141  L 17.6166808984375 23.5713096386719  L 24.4218419824219 21.2358730810547  L 23.0305902734375 14.3998279150391  Z M 21.2609650488281 19.4255704736328  L 16.2836297119141 21.1339521923828  L 12.4719140380859 24.4222127539063  L 8.71801419433594 21.0279740380859  L 3.75830686035157 19.4111252490234  L 4.89989786132813 14.4739077050781  L 3.75830686035157 9.42105853515625  L 8.76939436523438 7.84114469238281  L 12.4670873193359 4.45012382324218  L 16.1696069921875 7.77371042480468  L 21.2529554833984 9.42588525390625  L 20.2494508642578 14.3342124169922  L 21.2609650488281 19.4255704736328  Z " fill-rule="nonzero" fill="#eeb834" stroke="none" transform="matrix(1 0 0 1 218 288 )" />
  </g>
</svg>