<?xml version="1.0" encoding="utf-8"?>
<svg version="1.1" xmlns:xlink="http://www.w3.org/1999/xlink" width="22px" height="24px" xmlns="http://www.w3.org/2000/svg">
  <g transform="matrix(1 0 0 1 -243 -500 )">
    <path d="M 20.026220234375 11.9141382128906  L 21.2236983300781 6.05596004882812  L 15.385726484375 4.19272333007812  L 10.9484049804688 0.209144208984375  L 6.65336703125 4.19401245117187  L 0.732111640625 6.06102662109375  L 2.089951015625 11.9141382128906  L 0.733340791015624 17.7848778515625  L 6.51591022460937 19.6355530957031  L 10.9470259179687 23.6418568066406  L 15.385726484375 19.7754082617188  L 21.2187216992188 17.7736054980469  L 20.026220234375 11.9141382128906  Z M 18.5093986132813 16.2219175488281  L 14.2431111816406 17.6862447363281  L 10.9759263183594 20.5047537890625  L 7.75829788085938 17.5954063183594  L 3.50712016601563 16.2095359277344  L 4.48562673828125 11.9776351757812  L 3.50712016601563 7.6466216015625  L 7.80233802734375 6.29240973632812  L 10.9717891308594 3.38582041992187  L 14.145377421875 6.23460893554687  L 18.5025332714844 7.6507587890625  L 17.6423864550781 11.8578963574219  L 18.5093986132813 16.2219175488281  Z " fill-rule="nonzero" fill="#eeb834" stroke="none" transform="matrix(1 0 0 1 243 500 )" />
  </g>
</svg>