<?xml version="1.0" encoding="utf-8"?>
<svg version="1.1" xmlns:xlink="http://www.w3.org/1999/xlink" width="28px" height="26px" xmlns="http://www.w3.org/2000/svg">
  <g transform="matrix(1 0 0 1 -306 -501 )">
    <path d="M 13.991350859375 25.2133893261719  L 27.1083275585938 8.51908805664062  L 22.3385314648438 1  L 5.64423022460938 1  L 0.874434130859375 8.51908805664062  L 13.991350859375 25.2133893261719  Z M 24.7234145117188 7.92288229492187  L 19.3574126855469 7.92288229492187  L 21.7422957324219 3.15305623046875  L 24.7234145117188 7.92288229492187  Z M 13.9913808300781 2.55685046875  L 17.5687354003906 7.92288229492187  L 10.4140562597656 7.92288229492187  L 13.9913808300781 2.55685046875  Z M 9.55115131835938 6.88759421875  L 7.43290748046875 2.55682046875  L 12.2027035742188 2.55682046875  L 9.55115131835938 6.88759421875  Z M 15.7800581152344 2.55682046875  L 20.5498242089844 2.55682046875  L 18.4316103710938 6.88759421875  L 15.7800581152344 2.55682046875  Z M 10.4140562597656 9.71152958007813  L 17.5687354003906 9.71152958007813  L 13.9913808300781 22.232240546875  L 10.4140562597656 9.71152958007813  Z M 6.24046595703125 3.15305623046875  L 8.62534900390625 7.92288229492187  L 3.2593471484375 7.92288229492187  L 6.24046595703125 3.15305623046875  Z M 3.85555293945312 9.71152958007813  L 8.62534900390625 9.71152958007813  L 11.6064678125 19.2511217382813  L 3.85555293945312 9.71152958007813  Z M 16.3762938769531 19.2511217382812  L 19.3574126855469 9.71152958007813  L 24.12720875 9.71152958007813  L 16.3762938769531 19.2511217382812  Z " fill-rule="nonzero" fill="#eeb834" stroke="none" transform="matrix(1 0 0 1 306 501 )" />
  </g>
</svg>