<?xml version="1.0" encoding="utf-8"?>
<svg version="1.1" xmlns:xlink="http://www.w3.org/1999/xlink" width="29px" height="21px" xmlns="http://www.w3.org/2000/svg">
  <g transform="matrix(1 0 0 1 -20 -847 )">
    <path d="M 26.4222222285156 9.07301586132812  C 27.5679012412109 9.08324515820313  28.5089947128906 8.14215168652344  28.5089947128906 6.97601410839844  C 28.5089947128906 5.80987653027344  27.5679012412109 4.86878305859375  26.4017636630859 4.86878305859375  C 25.2458553818359 4.86878305859375  24.2945326132812 5.82010579882813  24.2945326132812 6.97601410839844  C 24.2945326132812 7.17037038085938  24.3252204472656 7.35449735644531  24.3763668183594 7.52839506347656  C 24.0899470722656 7.62045856542969  23.8546736972656 7.75343914160156  23.7626101953125 7.81481480957031  L 19.936860640625 10.0754850009766  L 16.6021163730469 5.22680774121094  C 16.4589065 4.98130509765625  16.2031745878906 4.66419751757812  15.8451498769531 4.37777777148438  C 16.2543209589844 3.95837742089844  16.4998236025391 3.38553790039062  16.4998236025391 2.76155200878906  C 16.4998236025391 1.48289239160156  15.4564373603516 0.439506149414062  14.1777777431641 0.439506149414062  C 12.8991181259766 0.439506149414062  11.8659612089844 1.49312168847656  11.8659612089844 2.77178130566406  C 11.8659612089844 3.39576719726562  12.1114638525391 3.96860668945313  12.5206349345703 4.38800706835938  C 12.1728395205078 4.66419754589844  11.9068783115234 4.98130512597656  11.7636684384766 5.23703703808594  L 8.42892417089844 10.0857142978516  L 4.60317461621094 7.82504410644531  C 4.58271605078125 7.81481483789062  4.56225751367188 7.79435627246094  4.5315696796875 7.78412700390625  C 4.63386245019531 7.53862436035156  4.69523811816406 7.2624338828125  4.69523811816406 6.98624340527344  C 4.69523811816406 5.82010582714844  3.75414464648438 4.87901235546875  2.58800706835938 4.87901235546875  C 1.42186949023438 4.87901235546875  0.491005287109375 5.82010582714844  0.491005287109375 6.97601410839844  C 0.491005287109375 7.91710758007813  1.11499117871094 8.70476191015625  1.9640211484375 8.98095238769531  C 1.95379187988281 9.12416226074219  1.94356258300781 9.26737213378906  1.94356258300781 9.42081130371094  L 1.94356258300781 14.1774250615234  C 1.94356258300781 14.6070546806641  2.29135799707031 14.9650793916016  2.73121691308594 14.9650793916016  C 3.17107582910156 14.9650793916016  3.51887124316406 14.6172839775391  3.51887124316406 14.1774250615234  L 3.51887124316406 9.41058203515625  C 3.51887124316406 9.22645505957031  3.52910051171875 9.10370372363281  3.54955907714844 9.03209878710937  C 3.62116401367188 9.05255735253906  3.70299821875 9.09347445507812  3.76437388671875 9.13439155761719  C 3.77460315527344 9.14462082617187  3.79506172070313 9.15485012304687  3.80529098925781 9.15485012304687  L 8.27548500097656 11.7940035625  C 8.63350968359375 11.9985891035156  9.08359786816406 11.9065256015625  9.31887124316406 11.5587301875  L 13.0832451298828 6.07583776757812  C 13.0934743984375 6.05537920214844  13.1139329638672 6.03492066503906  13.1241622324219 6.01446209960937  C 13.1241622324219 6.00423283105468  13.5231040175781 5.35978837402343  14.1777777431641 5.32910054003906  C 14.1777777431641 5.32910054003906  14.1880070117188 5.32910054003906  14.1880070117188 5.32910054003906  C 14.1982362802734 5.32910054003906  14.2084655771484 5.32910054003906  14.2186948457031 5.32910054003906  C 14.8835978398438 5.35978837402343  15.2723103564453 6.01446209960937  15.2723103564453 6.01446209960937  C 15.282539625 6.03492066503906  15.292768921875 6.05537920214844  15.3132274589844 6.07583776757812  L 19.0776013457031 11.5587301875  C 19.3128747207031 11.8962963330078  19.7629629052734 11.9985891035156  20.1209875878906 11.7940035625  L 24.5911815996094 9.15485012304687  C 24.6014108681641 9.14462085449219  24.6116401650391 9.13439155761719  24.6218694335937 9.13439155761719  C 24.6832451015625 9.09347445507812  24.7650793066406 9.05255735253906  24.8366842431641 9.03209878710937  C 24.8571428085937 9.10370372363281  24.8673720771484 9.22645505957031  24.8673720771484 9.42081130371094  L 24.8673720771484 16  L 2.73121694140625 16  C 2.30158732226562 15.9266314003906  1.94356261132813 16.2744268144531  1.94356261132813 16.7142857304688  L 1.94356261132813 19.8342151601562  C 1.94356261132813 20.2638447792969  2.29135802539062 20.6218694902344  2.73121694140625 20.6218694902344  L 25.6447971953125 20.6218694902344  C 26.0744268144531 20.6218694902344  26.4324515253906 20.2740740761719  26.4324515253906 19.8342151601562  C 26.4324515253906 19.3943562441406  26.0846561113281 19.0465608300781  25.6447971953125 19  L 3.51887124316406 19  L 3.51887124316406 17.4917107636719  L 25.6447971669922 17.4917107636719  C 26.0744267861328 17.4917107636719  26.4324514970703 17.1439153496094  26.4324514970703 16.7040564335937  L 26.4324514970703 9.42081127539062  C 26.4324514970703 9.29805993945313  26.4324514970703 9.18553790039062  26.4222222285156 9.07301586132812  Z M 2.05608465039062 6.97601410839844  C 2.05608465039062 6.67936506542969  2.30158729394531 6.433862421875  2.59823633691406 6.433862421875  C 2.89488537988281 6.433862421875  3.1403880234375 6.67936506542969  3.1403880234375 6.97601410839844  C 3.1403880234375 7.27266315136719  2.89488537988281 7.51816579492187  2.59823633691406 7.51816579492187  C 2.30158729394531 7.51816579492187  2.05608465039062 7.27266315136719  2.05608465039062 6.97601410839844  Z M 13.4310405722656 2.77178130566406  C 13.4310405722656 2.35238095507813  13.7788359863281 2.01481480957031  14.1880070683594 2.01481480957031  C 14.6074074189453 2.01481480957031  14.9449735644531 2.35238095507813  14.9449735644531 2.77178130566406  C 14.9449735644531 3.19118165625  14.6074074189453 3.52874780175781  14.1880070683594 3.52874780175781  C 13.7686067177734 3.52874780175781  13.4310405722656 3.19118165625  13.4310405722656 2.77178130566406  Z M 26.9439153496094 6.98624337695312  C 26.9439153496094 7.28289241992187  26.6984127060547 7.52839506347656  26.4017636630859 7.52839506347656  C 26.1051146201172 7.52839506347656  25.8596119765625 7.28289241992187  25.8596119765625 6.98624337695312  C 25.8596119765625 6.68959433398438  26.1051146201172 6.44409169042969  26.4017636630859 6.44409169042969  C 26.6984127060547 6.44409169042969  26.9439153496094 6.68959433398438  26.9439153496094 6.98624337695312  Z " fill-rule="nonzero" fill="#eeb834" stroke="none" transform="matrix(1 0 0 1 20 847 )" />
  </g>
</svg>