<?xml version="1.0" standalone="no"?><!DOCTYPE svg PUBLIC "-//W3C//DTD SVG 1.1//EN" "http://www.w3.org/Graphics/SVG/1.1/DTD/svg11.dtd"><svg t="1492759395091" class="icon" style="" viewBox="0 0 1024 1024" version="1.1" xmlns="http://www.w3.org/2000/svg" p-id="2374" xmlns:xlink="http://www.w3.org/1999/xlink" width="32" height="32"><defs><style type="text/css"></style></defs><path d="M404.397 723.574c9.338-23.953 13.972-47.658 13.972-71.214 0-49.905-13.805-92.525-41.392-127.889-27.584-35.355-63.814-56.123-108.676-62.356l-16.556-1.014-12.431-2.119c-20.677-2.764-31.051-10.758-31.051-23.915 0-13.866 13.479-35.71 40.397-65.489 28.312-30.5 74.216-62.744 137.714-96.68 26.267-13.847 39.364-31.205 39.364-51.988 0-13.178-4.456-24.099-13.447-32.773-8.986-8.652-20.394-12.983-34.213-12.983-34.499 0-82.154 20.123-142.946 60.304-71.815 47.15-128.951 104.47-171.428 172.063C21.262 475.117 0.004 541.793 0.004 607.662c0 31.182 5.868 62.181 17.623 93.055 11.753 30.813 27.611 56.964 47.632 78.49 42.098 46.422 92.5 69.636 151.183 69.636 61.453 0 111.504-21.138 150.145-63.401 15.901-17.334 28.479-37.967 37.81-61.868z m598.227 0.529c9.335-23.593 14.004-47.508 14.004-71.742 0-49.905-14.027-92.354-42.075-127.371-28.052-35.008-64.565-55.939-109.607-62.873l-15.606-1.014-13.513-2.119c-20.756-2.764-31.15-10.758-31.15-23.915 0-13.866 13.878-35.71 41.582-65.488 29.107-31.908 75.192-64.115 138.222-96.681 26.346-13.847 39.515-31.205 39.515-51.988 0-13.178-4.497-24.1-13.482-32.773-8.983-8.651-20.415-12.983-34.265-12.983-34.59 0-82.332 20.123-143.213 60.304-71.936 47.153-129.349 104.47-172.257 172.064-42.908 67.598-64.362 134.272-64.362 200.141 0 31.182 5.9 62.181 17.653 93.055 11.741 30.813 27.668 56.964 47.716 78.49 42.207 46.422 93.044 69.636 152.506 69.636 60.87 0 111.046-21.138 150.463-63.401 15.901-17.337 28.542-37.807 37.869-61.342z" p-id="2375" fill="#999999"></path></svg>