<?xml version="1.0" standalone="no"?><!DOCTYPE svg PUBLIC "-//W3C//DTD SVG 1.1//EN" "http://www.w3.org/Graphics/SVG/1.1/DTD/svg11.dtd"><svg t="1493974562261" class="icon" style="" viewBox="0 0 1024 1024" version="1.1" xmlns="http://www.w3.org/2000/svg" p-id="3835" xmlns:xlink="http://www.w3.org/1999/xlink" width="32" height="32"><defs><style type="text/css"></style></defs><path d="M864.929684 159.070316C771.045053 65.212632 653.419789 16.680421 512 13.473684 370.580211 16.680421 252.954947 65.212632 159.070316 159.070316 65.185684 252.928 16.680421 370.580211 13.473684 512c3.206737 141.419789 51.738947 259.045053 145.596632 352.929684C252.928 958.814316 370.580211 1007.319579 512 1010.526316c141.419789-3.206737 259.045053-51.738947 352.929684-145.596632C958.814316 771.072 1007.319579 653.419789 1010.526316 512c-3.206737-141.419789-51.738947-259.045053-145.596632-352.929684z m-27.567158 678.29221c-86.689684 86.689684-195.125895 131.610947-325.362526 134.817685-130.236632-3.206737-238.672842-48.128-325.362526-134.817685S55.026526 642.236632 51.819789 512c3.206737-130.236632 48.128-238.672842 134.817685-325.362526S381.763368 55.026526 512 51.819789c130.236632 3.206737 238.672842 48.128 325.362526 134.817685S968.973474 381.763368 972.180211 512c-3.206737 130.236632-48.128 238.672842-134.817685 325.362526z" p-id="3836" fill="#999999"></path><path d="M741.726316 483.220211h-200.973474v-200.946527c0-7.976421-2.775579-14.767158-8.380631-20.37221A27.836632 27.836632 0 0 0 512 253.520842c-7.976421 0-14.767158 2.775579-20.399158 8.353684-5.578105 5.605053-8.380632 12.395789-8.380631 20.372211v200.973474h-200.946527c-7.976421 0-14.767158 2.775579-20.37221 8.380631-5.578105 5.605053-8.380632 12.395789-8.380632 20.372211s2.775579 14.767158 8.353684 20.399158c5.605053 5.578105 12.395789 8.380632 20.372211 8.380631h200.973474v200.946526c0 7.976421 2.775579 14.767158 8.380631 20.372211 5.605053 5.578105 12.395789 8.380632 20.372211 8.380632s14.767158-2.775579 20.399158-8.353685c5.578105-5.605053 8.380632-12.395789 8.380631-20.37221v-200.973474h200.946526c7.976421 0 14.767158-2.775579 20.372211-8.380631 5.578105-5.605053 8.380632-12.395789 8.380632-20.372211s-2.775579-14.767158-8.353685-20.399158a27.836632 27.836632 0 0 0-20.37221-8.380631z" p-id="3837" fill="#999999"></path></svg>