<?xml version="1.0" encoding="utf-8"?>
<svg version="1.1" xmlns:xlink="http://www.w3.org/1999/xlink" width="60px" height="237px" xmlns="http://www.w3.org/2000/svg">
  <g transform="matrix(1 0 0 1 -150 -19 )">
    <path d="M 151.074052812859 245.647162261239  C 151.074052812859 245.647162261239  151.074052812859 23.030338028169  151.074052812859 23.030338028169  C 151.074052812859 21.649626153592  152.193340938282 20.530338028169  153.574052812859 20.530338028169  C 153.574052812859 20.530338028169  206.425947187141 20.530338028169  206.425947187141 20.530338028169  C 207.806659061718 20.530338028169  208.925947187141 21.649626153592  208.925947187141 23.030338028169  C 208.925947187141 23.030338028169  208.925947187141 245.647162261239  208.925947187141 245.647162261239  C 208.925947187141 247.027874135816  207.806659061718 248.147162261239  206.425947187141 248.147162261239  C 206.425947187141 248.147162261239  181.744225946255 248.147162261239  181.744225946255 248.147162261239  C 181.744225946255 248.147162261239  172.232992207964 255.013889136271  172.232992207964 255.013889136271  C 172.232992207964 255.013889136271  162.058797226926 248.147162261239  162.058797226926 248.147162261239  C 162.058797226926 248.147162261239  153.574052812859 248.147162261239  153.574052812859 248.147162261239  C 152.193340938282 248.147162261239  151.074052812859 247.027874135816  151.074052812859 245.647162261239  Z " fill-rule="nonzero" fill="#ffffff" stroke="none" />
    <path d="M 150.574052812859 245.647162261239  C 150.574052812859 245.647162261239  150.574052812859 23.030338028169  150.574052812859 23.030338028169  C 150.574052812859 21.3734837786766  151.917198563366 20.030338028169  153.574052812859 20.030338028169  C 153.574052812859 20.030338028169  206.425947187141 20.030338028169  206.425947187141 20.030338028169  C 208.082801436634 20.030338028169  209.425947187141 21.3734837786766  209.425947187141 23.030338028169  C 209.425947187141 23.030338028169  209.425947187141 245.647162261239  209.425947187141 245.647162261239  C 209.425947187141 247.304016510731  208.082801436634 248.647162261239  206.425947187141 248.647162261239  C 206.425947187141 248.647162261239  181.905855338691 248.647162261239  181.905855338691 248.647162261239  C 181.905855338691 248.647162261239  172.242632988902 255.623618779343  172.242632988902 255.623618779343  C 172.242632988902 255.623618779343  161.905855338691 248.647162261239  161.905855338691 248.647162261239  C 161.905855338691 248.647162261239  153.574052812859 248.647162261239  153.574052812859 248.647162261239  C 151.917198563366 248.647162261239  150.574052812859 247.304016510731  150.574052812859 245.647162261239  Z M 151.574052812859 245.647162261239  C 151.574052812859 246.7517317609  152.469483313197 247.647162261239  153.574052812859 247.647162261239  C 153.574052812859 247.647162261239  162.21173911516 247.647162261239  162.21173911516 247.647162261239  C 162.21173911516 247.647162261239  172.223351427027 254.404159493198  172.223351427027 254.404159493198  C 172.223351427027 254.404159493198  181.582596553818 247.647162261239  181.582596553818 247.647162261239  C 181.582596553818 247.647162261239  206.425947187141 247.647162261239  206.425947187141 247.647162261239  C 207.530516686803 247.647162261239  208.425947187141 246.7517317609  208.425947187141 245.647162261239  C 208.425947187141 245.647162261239  208.425947187141 23.030338028169  208.425947187141 23.030338028169  C 208.425947187141 21.9257685285074  207.530516686803 21.030338028169  206.425947187141 21.030338028169  C 206.425947187141 21.030338028169  153.574052812859 21.030338028169  153.574052812859 21.030338028169  C 152.469483313197 21.030338028169  151.574052812859 21.9257685285074  151.574052812859 23.030338028169  C 151.574052812859 23.030338028169  151.574052812859 245.647162261239  151.574052812859 245.647162261239  Z " fill-rule="nonzero" fill="#f2f2f2" stroke="none" />
  </g>
</svg>