<?xml version="1.0" encoding="utf-8"?>
<svg version="1.1" xmlns:xlink="http://www.w3.org/1999/xlink" width="45px" height="152px" xmlns="http://www.w3.org/2000/svg">
  <g transform="matrix(1 0 0 1 -215 -194 )">
    <path d="M 215.430539609644 332.886403755869  C 215.430539609644 332.886403755869  215.430539609644 198.050723004695  215.430539609644 198.050723004695  C 215.430539609644 196.393868755202  216.773685360152 195.050723004695  218.430539609644 195.050723004695  C 218.430539609644 195.050723004695  256.569460390356 195.050723004695  256.569460390356 195.050723004695  C 258.226314639848 195.050723004695  259.569460390356 196.393868755202  259.569460390356 198.050723004695  C 259.569460390356 198.050723004695  259.569460390356 332.886403755869  259.569460390356 332.886403755869  C 259.569460390356 334.543258005361  258.226314639848 335.886403755869  256.569460390356 335.886403755869  C 256.569460390356 335.886403755869  248.516126197896 335.886403755869  248.516126197896 335.886403755869  C 248.516126197896 335.886403755869  238.457484945758 345.768136463224  238.457484945758 345.768136463224  C 238.457484945758 345.768136463224  228.516126197896 335.886403755869  228.516126197896 335.886403755869  C 228.516126197896 335.886403755869  218.430539609644 335.886403755869  218.430539609644 335.886403755869  C 216.773685360152 335.886403755869  215.430539609644 334.543258005361  215.430539609644 332.886403755869  Z " fill-rule="nonzero" fill="#eeb834" stroke="none" />
  </g>
</svg>