<?xml version="1.0" encoding="utf-8"?>
<svg version="1.1" xmlns:xlink="http://www.w3.org/1999/xlink" width="45px" height="152px" xmlns="http://www.w3.org/2000/svg">
  <g transform="matrix(1 0 0 1 -211 -330 )">
    <path d="M 211.930539609644 468.886403755869  C 211.930539609644 468.886403755869  211.930539609644 334.050723004695  211.930539609644 334.050723004695  C 211.930539609644 332.670011130118  213.049827735067 331.550723004695  214.430539609644 331.550723004695  C 214.430539609644 331.550723004695  252.569460390356 331.550723004695  252.569460390356 331.550723004695  C 253.950172264933 331.550723004695  255.069460390356 332.670011130118  255.069460390356 334.050723004695  C 255.069460390356 334.050723004695  255.069460390356 468.886403755869  255.069460390356 468.886403755869  C 255.069460390356 470.267115630446  253.950172264933 471.386403755869  252.569460390356 471.386403755869  C 252.569460390356 471.386403755869  244.311613112556 471.386403755869  244.311613112556 471.386403755869  C 244.311613112556 471.386403755869  234.459545884649 481.065195604656  234.459545884649 481.065195604656  C 234.459545884649 481.065195604656  224.722352533623 471.386403755869  224.722352533623 471.386403755869  C 224.722352533623 471.386403755869  214.430539609644 471.386403755869  214.430539609644 471.386403755869  C 213.049827735067 471.386403755869  211.930539609644 470.267115630446  211.930539609644 468.886403755869  Z " fill-rule="nonzero" fill="#ffffff" stroke="none" />
    <path d="M 211.430539609644 468.886403755869  C 211.430539609644 468.886403755869  211.430539609644 334.050723004695  211.430539609644 334.050723004695  C 211.430539609644 332.393868755202  212.773685360152 331.050723004695  214.430539609644 331.050723004695  C 214.430539609644 331.050723004695  252.569460390356 331.050723004695  252.569460390356 331.050723004695  C 254.226314639848 331.050723004695  255.569460390356 332.393868755202  255.569460390356 334.050723004695  C 255.569460390356 334.050723004695  255.569460390356 468.886403755869  255.569460390356 468.886403755869  C 255.569460390356 470.543258005361  254.226314639848 471.886403755869  252.569460390356 471.886403755869  C 252.569460390356 471.886403755869  244.516126197896 471.886403755869  244.516126197896 471.886403755869  C 244.516126197896 471.886403755869  234.457484945758 481.768136463224  234.457484945758 481.768136463224  C 234.457484945758 481.768136463224  224.516126197896 471.886403755869  224.516126197896 471.886403755869  C 224.516126197896 471.886403755869  214.430539609644 471.886403755869  214.430539609644 471.886403755869  C 212.773685360152 471.886403755869  211.430539609644 470.543258005361  211.430539609644 468.886403755869  Z M 212.430539609644 468.886403755869  C 212.430539609644 469.99097325553  213.325970109983 470.886403755869  214.430539609644 470.886403755869  C 214.430539609644 470.886403755869  224.92857886935 470.886403755869  224.92857886935 470.886403755869  C 224.92857886935 470.886403755869  234.46160682354 480.362254746088  234.46160682354 480.362254746088  C 234.46160682354 480.362254746088  244.107100027215 470.886403755869  244.107100027215 470.886403755869  C 244.107100027215 470.886403755869  252.569460390356 470.886403755869  252.569460390356 470.886403755869  C 253.674029890017 470.886403755869  254.569460390356 469.99097325553  254.569460390356 468.886403755869  C 254.569460390356 468.886403755869  254.569460390356 334.050723004695  254.569460390356 334.050723004695  C 254.569460390356 332.946153505033  253.674029890017 332.050723004695  252.569460390356 332.050723004695  C 252.569460390356 332.050723004695  214.430539609644 332.050723004695  214.430539609644 332.050723004695  C 213.325970109983 332.050723004695  212.430539609644 332.946153505033  212.430539609644 334.050723004695  C 212.430539609644 334.050723004695  212.430539609644 468.886403755869  212.430539609644 468.886403755869  Z " fill-rule="nonzero" fill="#f2f2f2" stroke="none" />
  </g>
</svg>