<?xml version="1.0" encoding="utf-8"?>
<svg version="1.1" xmlns:xlink="http://www.w3.org/1999/xlink" width="45px" height="205px" xmlns="http://www.w3.org/2000/svg">
  <g transform="matrix(1 0 0 1 -139 -105 )">
    <path d="M 139.930539609644 297.889999742749  C 139.930539609644 297.889999742749  139.930539609644 108.070525821596  139.930539609644 108.070525821596  C 139.930539609644 106.689813947019  141.049827735067 105.570525821596  142.430539609644 105.570525821596  C 142.430539609644 105.570525821596  180.569460390356 105.570525821596  180.569460390356 105.570525821596  C 181.950172264933 105.570525821596  183.069460390356 106.689813947019  183.069460390356 108.070525821596  C 183.069460390356 108.070525821596  183.069460390356 297.889999742749  183.069460390356 297.889999742749  C 183.069460390356 299.270711617326  181.950172264933 300.389999742749  180.569460390356 300.389999742749  C 180.569460390356 300.389999742749  169.550767377476 300.389999742749  169.550767377476 300.389999742749  C 169.550767377476 300.389999742749  161.400952315181 309.009632255644  161.400952315181 309.009632255644  C 161.400952315181 309.009632255644  149.933083053464 300.389999742749  149.933083053464 300.389999742749  C 149.933083053464 300.389999742749  142.430539609644 300.389999742749  142.430539609644 300.389999742749  C 141.049827735067 300.389999742749  139.930539609644 299.270711617326  139.930539609644 297.889999742749  Z " fill-rule="nonzero" fill="#ffffff" stroke="none" />
    <path d="M 139.430539609644 297.889999742749  C 139.430539609644 297.889999742749  139.430539609644 108.070525821596  139.430539609644 108.070525821596  C 139.430539609644 106.413671572104  140.773685360152 105.070525821596  142.430539609644 105.070525821596  C 142.430539609644 105.070525821596  180.569460390356 105.070525821596  180.569460390356 105.070525821596  C 182.226314639848 105.070525821596  183.569460390356 106.413671572104  183.569460390356 108.070525821596  C 183.569460390356 108.070525821596  183.569460390356 297.889999742749  183.569460390356 297.889999742749  C 183.569460390356 299.546853992241  182.226314639848 300.889999742749  180.569460390356 300.889999742749  C 180.569460390356 300.889999742749  169.766126197896 300.889999742749  169.766126197896 300.889999742749  C 169.766126197896 300.889999742749  161.457484945758 309.677614397496  161.457484945758 309.677614397496  C 161.457484945758 309.677614397496  149.766126197896 300.889999742749  149.766126197896 300.889999742749  C 149.766126197896 300.889999742749  142.430539609644 300.889999742749  142.430539609644 300.889999742749  C 140.773685360152 300.889999742749  139.430539609644 299.546853992241  139.430539609644 297.889999742749  Z M 140.430539609644 297.889999742749  C 140.430539609644 298.99456924241  141.325970109983 299.889999742749  142.430539609644 299.889999742749  C 142.430539609644 299.889999742749  150.100039909032 299.889999742749  150.100039909032 299.889999742749  C 150.100039909032 299.889999742749  161.344419684604 308.341650113791  161.344419684604 308.341650113791  C 161.344419684604 308.341650113791  169.335408557057 299.889999742749  169.335408557057 299.889999742749  C 169.335408557057 299.889999742749  180.569460390356 299.889999742749  180.569460390356 299.889999742749  C 181.674029890017 299.889999742749  182.569460390356 298.99456924241  182.569460390356 297.889999742749  C 182.569460390356 297.889999742749  182.569460390356 108.070525821596  182.569460390356 108.070525821596  C 182.569460390356 106.965956321935  181.674029890017 106.070525821596  180.569460390356 106.070525821596  C 180.569460390356 106.070525821596  142.430539609644 106.070525821596  142.430539609644 106.070525821596  C 141.325970109983 106.070525821596  140.430539609644 106.965956321935  140.430539609644 108.070525821596  C 140.430539609644 108.070525821596  140.430539609644 297.889999742749  140.430539609644 297.889999742749  Z " fill-rule="nonzero" fill="#f2f2f2" stroke="none" />
  </g>
</svg>