<?xml version="1.0" standalone="no"?><!DOCTYPE svg PUBLIC "-//W3C//DTD SVG 1.1//EN" "http://www.w3.org/Graphics/SVG/1.1/DTD/svg11.dtd"><svg t="1493974460845" class="icon" style="" viewBox="0 0 1024 1024" version="1.1" xmlns="http://www.w3.org/2000/svg" p-id="1907" xmlns:xlink="http://www.w3.org/1999/xlink" width="32" height="32"><defs><style type="text/css"></style></defs><path d="M510.499833 63.143109c-242.956428 0-440.625416 197.660802-440.625416 440.625416 0 242.964614 197.668988 440.625416 440.625416 440.625416 242.958474 0 440.625416-197.659779 440.625416-440.625416C951.125249 260.804934 753.457284 63.143109 510.499833 63.143109zM510.499833 895.525953c-216.008682 0-391.757428-175.739537-391.757428-391.757428 0-216.016869 175.748746-391.757428 391.757428-391.757428 216.010729 0 391.757428 175.74056 391.757428 391.757428C902.256238 719.786417 726.510562 895.525953 510.499833 895.525953z" p-id="1908" fill="#999999"></path><path d="M710.09366 519.111978c-13.490246 0-24.434505 10.937097-24.434505 24.434505l0 16.687054c0 96.582709-78.582753 175.159322-175.160345 175.159322-96.575546 0-175.158299-78.57559-175.158299-175.159322l0-16.687054c0-13.496385-10.945283-24.434505-24.434505-24.434505-13.489222 0-24.434505 10.937097-24.434505 24.434505l0 16.687054c0 123.530454 100.502995 224.027309 224.026286 224.027309s224.028333-100.496855 224.028333-224.027309l0-16.687054C734.527143 530.049075 723.582883 519.111978 710.09366 519.111978z" p-id="1909" fill="#999999"></path><path d="M310.902936 403.952168m-42.092677 0a41.134 41.134 0 1 0 84.185354 0 41.134 41.134 0 1 0-84.185354 0Z" p-id="1910" fill="#999999"></path><path d="M710.100824 403.952168m-42.0937 0a41.135 41.135 0 1 0 84.187401 0 41.135 41.135 0 1 0-84.187401 0Z" p-id="1911" fill="#999999"></path></svg>