<?xml version="1.0" standalone="no"?><!DOCTYPE svg PUBLIC "-//W3C//DTD SVG 1.1//EN" "http://www.w3.org/Graphics/SVG/1.1/DTD/svg11.dtd"><svg t="1493976242994" class="icon" style="" viewBox="0 0 1024 1024" version="1.1" xmlns="http://www.w3.org/2000/svg" p-id="4550" xmlns:xlink="http://www.w3.org/1999/xlink" width="32" height="32"><defs><style type="text/css"></style></defs><path d="M704.425 667.786c14.837 11.976 37.779 10.968 51.238-2.268 13.444-13.236 12.317-33.69-2.535-45.696-33.985-27.48-53.492-66.817-53.492-107.901 0-41.027 19.55-80.392 53.669-107.962 7.915-6.388 11.917-15.162 11.917-23.981 0-7.737-3.098-15.533-9.413-21.729-13.458-13.222-36.402-14.229-51.237-2.223-49.237 39.825-77.487 96.637-77.487 155.894 0.001 59.332 28.192 116.141 77.339 155.863v0zM566.91 774.385c14.125 12.672 37.084 12.746 51.283 0.133 14.213-12.569 14.257-33.097 0.148-45.754-64.519-57.879-100.075-134.877-100.075-216.84 0-81.815 35.602-158.799 100.253-216.782 7.025-6.299 10.553-14.555 10.553-22.795 0-8.3-3.557-16.631-10.686-22.929-14.213-12.613-37.159-12.554-51.297 0.119-78.275 70.165-121.374 163.365-121.374 262.387-0.001 99.187 43.056 192.398 121.196 262.462v0zM430.582 881.486c13.858 12.88 36.817 13.311 51.281 0.934 14.481-12.376 14.942-32.859 1.068-45.74-94.177-87.566-146.022-202.893-146.022-324.742 0-121.612 51.936-236.895 146.2-324.639 6.729-6.255 10.093-14.317 10.093-22.38 0-8.493-3.735-17.001-11.175-23.359-14.451-12.361-37.424-11.917-51.297 0.978-107.279 99.84-166.358 231.011-166.358 369.386-0.030 138.642 59.018 269.873 166.21 369.562v0zM430.582 881.486z" p-id="4551" fill="#999999"></path></svg>