<?xml version="1.0" encoding="utf-8"?>
<svg version="1.1" xmlns:xlink="http://www.w3.org/1999/xlink" width="60px" height="33px" xmlns="http://www.w3.org/2000/svg">
  <g transform="matrix(1 0 0 1 -209 -173 )">
    <path d="M 209 185.061538461538  C 209 178.400134709733  214.400134709733 173  221.061538461538 173  C 221.061538461538 173  256.938461538462 173  256.938461538462 173  C 263.599865290267 173  269 178.400134709733  269 185.061538461538  C 269 191.722942213344  263.599865290267 197.123076923077  256.938461538462 197.123076923077  C 256.938461538462 197.123076923077  246.25 197.123076923077  246.25 197.123076923077  C 246.25 197.123076923077  238 206  238 206  C 238 206  229.75 197.123076923077  229.75 197.123076923077  C 229.75 197.123076923077  221.061538461538 197.123076923077  221.061538461538 197.123076923077  C 214.400134709733 197.123076923077  209 191.722942213344  209 185.061538461538  Z " fill-rule="nonzero" fill="#eeb834" stroke="none" />
  </g>
</svg>