<?xml version="1.0" encoding="utf-8"?>
<svg version="1.1" xmlns:xlink="http://www.w3.org/1999/xlink" width="15px" height="15px" xmlns="http://www.w3.org/2000/svg">
  <g transform="matrix(1 0 0 1 -24 -210 )">
    <path d="M 31.5 211  C 35.14 211  38 213.86  38 217.5  C 38 221.14  35.14 224  31.5 224  C 27.86 224  25 221.14  25 217.5  C 25 213.86  27.86 211  31.5 211  Z " fill-rule="nonzero" fill="#cccccc" stroke="none" />
    <path d="M 31.5 211  C 35.14 211  38 213.86  38 217.5  C 38 221.14  35.14 224  31.5 224  C 27.86 224  25 221.14  25 217.5  C 25 213.86  27.86 211  31.5 211  Z " stroke-width="2" stroke="#ffffff" fill="none" />
  </g>
</svg>