<?xml version="1.0" encoding="utf-8"?>
<svg version="1.1" xmlns:xlink="http://www.w3.org/1999/xlink" width="15px" height="15px" xmlns="http://www.w3.org/2000/svg">
  <g transform="matrix(1 0 0 1 -231 -210 )">
    <path d="M 238.5 211  C 242.14 211  245 213.86  245 217.5  C 245 221.14  242.14 224  238.5 224  C 234.86 224  232 221.14  232 217.5  C 232 213.86  234.86 211  238.5 211  Z " fill-rule="nonzero" fill="#eeb834" stroke="none" />
    <path d="M 238.5 211  C 242.14 211  245 213.86  245 217.5  C 245 221.14  242.14 224  238.5 224  C 234.86 224  232 221.14  232 217.5  C 232 213.86  234.86 211  238.5 211  Z " stroke-width="2" stroke="#ffffff" fill="none" />
  </g>
</svg>