<?xml version="1.0" encoding="utf-8"?>
<svg version="1.1" xmlns:xlink="http://www.w3.org/1999/xlink" width="60px" height="33px" xmlns="http://www.w3.org/2000/svg">
  <g transform="matrix(1 0 0 1 -2 -182 )">
    <path d="M 2 194.061538461538  C 2 187.400134709733  7.4001347097332 182  14.0615384615385 182  C 14.0615384615385 182  49.9384615384615 182  49.9384615384615 182  C 56.5998652902668 182  62 187.400134709733  62 194.061538461538  C 62 200.722942213344  56.5998652902668 206.123076923077  49.9384615384615 206.123076923077  C 49.9384615384615 206.123076923077  39.25 206.123076923077  39.25 206.123076923077  C 39.25 206.123076923077  31 215  31 215  C 31 215  22.75 206.123076923077  22.75 206.123076923077  C 22.75 206.123076923077  14.0615384615385 206.123076923077  14.0615384615385 206.123076923077  C 7.4001347097332 206.123076923077  2 200.722942213344  2 194.061538461538  Z " fill-rule="nonzero" fill="#ffffff" stroke="none" fill-opacity="0" />
  </g>
</svg>