<?xml version="1.0" encoding="utf-8"?>
<svg version="1.1" xmlns:xlink="http://www.w3.org/1999/xlink" width="15px" height="15px" xmlns="http://www.w3.org/2000/svg">
  <g transform="matrix(1 0 0 1 -24 -251 )">
    <path d="M 31.5 252  C 35.14 252  38 254.86  38 258.5  C 38 262.14  35.14 265  31.5 265  C 27.86 265  25 262.14  25 258.5  C 25 254.86  27.86 252  31.5 252  Z " fill-rule="nonzero" fill="#cccccc" stroke="none" />
    <path d="M 31.5 252  C 35.14 252  38 254.86  38 258.5  C 38 262.14  35.14 265  31.5 265  C 27.86 265  25 262.14  25 258.5  C 25 254.86  27.86 252  31.5 252  Z " stroke-width="2" stroke="#ffffff" fill="none" />
  </g>
</svg>