<?xml version="1.0" encoding="utf-8"?>
<svg version="1.1" xmlns:xlink="http://www.w3.org/1999/xlink" width="15px" height="15px" xmlns="http://www.w3.org/2000/svg">
  <g transform="matrix(1 0 0 1 -231 -251 )">
    <path d="M 238.5 252  C 242.14 252  245 254.86  245 258.5  C 245 262.14  242.14 265  238.5 265  C 234.86 265  232 262.14  232 258.5  C 232 254.86  234.86 252  238.5 252  Z " fill-rule="nonzero" fill="#eeb834" stroke="none" />
    <path d="M 238.5 252  C 242.14 252  245 254.86  245 258.5  C 245 262.14  242.14 265  238.5 265  C 234.86 265  232 262.14  232 258.5  C 232 254.86  234.86 252  238.5 252  Z " stroke-width="2" stroke="#ffffff" fill="none" />
  </g>
</svg>