<?xml version="1.0" encoding="utf-8"?>
<svg version="1.1" xmlns:xlink="http://www.w3.org/1999/xlink" width="60px" height="33px" xmlns="http://www.w3.org/2000/svg">
  <g transform="matrix(1 0 0 1 -209 -214 )">
    <path d="M 209 226.061538461538  C 209 219.400134709733  214.400134709733 214  221.061538461538 214  C 221.061538461538 214  256.938461538462 214  256.938461538462 214  C 263.599865290267 214  269 219.400134709733  269 226.061538461538  C 269 232.722942213344  263.599865290267 238.123076923077  256.938461538462 238.123076923077  C 256.938461538462 238.123076923077  246.25 238.123076923077  246.25 238.123076923077  C 246.25 238.123076923077  238 247  238 247  C 238 247  229.75 238.123076923077  229.75 238.123076923077  C 229.75 238.123076923077  221.061538461538 238.123076923077  221.061538461538 238.123076923077  C 214.400134709733 238.123076923077  209 232.722942213344  209 226.061538461538  Z " fill-rule="nonzero" fill="#eeb834" stroke="none" />
  </g>
</svg>