<?xml version="1.0" encoding="utf-8"?>
<svg version="1.1" xmlns:xlink="http://www.w3.org/1999/xlink" width="60px" height="33px" xmlns="http://www.w3.org/2000/svg">
  <g transform="matrix(1 0 0 1 -2 -223 )">
    <path d="M 2 235.061538461538  C 2 228.400134709733  7.4001347097332 223  14.0615384615385 223  C 14.0615384615385 223  49.9384615384615 223  49.9384615384615 223  C 56.5998652902668 223  62 228.400134709733  62 235.061538461538  C 62 241.722942213344  56.5998652902668 247.123076923077  49.9384615384615 247.123076923077  C 49.9384615384615 247.123076923077  39.25 247.123076923077  39.25 247.123076923077  C 39.25 247.123076923077  31 256  31 256  C 31 256  22.75 247.123076923077  22.75 247.123076923077  C 22.75 247.123076923077  14.0615384615385 247.123076923077  14.0615384615385 247.123076923077  C 7.4001347097332 247.123076923077  2 241.722942213344  2 235.061538461538  Z " fill-rule="nonzero" fill="#ffffff" stroke="none" fill-opacity="0" />
  </g>
</svg>