<?xml version="1.0" encoding="utf-8"?>
<svg version="1.1" xmlns:xlink="http://www.w3.org/1999/xlink" width="108px" height="52px" xmlns="http://www.w3.org/2000/svg">
  <defs>
    <filter x="-3px" y="-3px" width="108px" height="52px" filterUnits="userSpaceOnUse" id="filter196">
      <feOffset dx="0" dy="0" in="SourceAlpha" result="shadowOffsetInner" />
      <feGaussianBlur stdDeviation="1.5" in="shadowOffsetInner" result="shadowGaussian" />
      <feComposite in2="shadowGaussian" operator="atop" in="SourceAlpha" result="shadowComposite" />
      <feColorMatrix type="matrix" values="0 0 0 0 0.6  0 0 0 0 0.6  0 0 0 0 0.6  0 0 0 0.349019607843137 0  " in="shadowComposite" />
    </filter>
    <g id="widget197">
      <path d="M 0 33.2278470258002  C 0 33.2278470258002  0 5  0 5  C 0 2.23857625084603  2.23857625084603 0  5 0  C 5 0  97 0  97 0  C 99.761423749154 0  102 2.23857625084603  102 5  C 102 5  102 33.2278470258002  102 33.2278470258002  C 102 35.9892707749542  99.761423749154 38.2278470258002  97 38.2278470258002  C 97 38.2278470258002  33.3135238095238 38.2278470258002  33.3135238095238 38.2278470258002  C 33.3135238095238 38.2278470258002  23.2100865800866 45.7850790100242  23.2100865800866 45.7850790100242  C 23.2100865800866 45.7850790100242  13.3135238095238 38.2278470258002  13.3135238095238 38.2278470258002  C 13.3135238095238 38.2278470258002  5 38.2278470258002  5 38.2278470258002  C 2.23857625084603 38.2278470258002  0 35.9892707749542  0 33.2278470258002  Z " fill-rule="nonzero" fill="#333333" stroke="none" />
    </g>
  </defs>
  <g transform="matrix(1 0 0 1 3 3 )">
    <use xlink:href="#widget197" filter="url(#filter196)" />
    <use xlink:href="#widget197" />
  </g>
</svg>