<?xml version="1.0" encoding="utf-8"?>
<svg version="1.1" xmlns:xlink="http://www.w3.org/1999/xlink" width="17px" height="24px" xmlns="http://www.w3.org/2000/svg">
  <g transform="matrix(1 0 0 1 -9 -36 )">
    <path d="M 10.0662525879917 21.4509018036072  C 10.1835748792271 21.6112224448898  10.2422360248447 21.7955911823647  10.2422360248447 22.0040080160321  C 10.2422360248447 22.2124248496994  10.1835748792271 22.3967935871744  10.0662525879917 22.5571142284569  L 9.18633540372671 23.7595190380762  C 9.06901311249137 23.9198396793587  8.93409247757074 24  8.7815734989648 24  C 8.62905452035887 24  8.49413388543823 23.9198396793587  8.3768115942029 23.7595190380762  L 0.175983436853002 12.5531062124248  C 0.0586611456176674 12.3927855711423  0 12.2084168336673  0 12  C 0 11.7915831663327  0.0586611456176674 11.6072144288577  0.175983436853002 11.4468937875752  L 8.3768115942029 0.240480961923848  C 8.49413388543823 0.0801603206412818  8.62905452035887 0  8.7815734989648 0  C 8.93409247757074 0  9.06901311249137 0.0801603206412818  9.18633540372671 0.240480961923848  L 10.0662525879917 1.44288577154308  C 10.1835748792271 1.60320641282565  10.2422360248447 1.7875751503006  10.2422360248447 1.99599198396794  C 10.2422360248447 2.20440881763527  10.1835748792271 2.38877755511022  10.0662525879917 2.54909819639279  L 3.15010351966874 12  L 10.0662525879917 21.4509018036072  Z M 16.824016563147 21.4509018036072  C 16.9413388543823 21.6112224448898  17 21.7955911823647  17 22.0040080160321  C 17 22.2124248496994  16.9413388543823 22.3967935871744  16.824016563147 22.5571142284569  L 15.944099378882 23.7595190380762  C 15.8267770876467 23.9198396793587  15.691856452726 24  15.5393374741201 24  C 15.3868184955142 24  15.2518978605935 23.9198396793587  15.1345755693582 23.7595190380762  L 6.93374741200828 12.5531062124248  C 6.81642512077295 12.3927855711423  6.75776397515528 12.2084168336673  6.75776397515528 12  C 6.75776397515528 11.7915831663327  6.81642512077295 11.6072144288577  6.93374741200828 11.4468937875752  L 15.1345755693582 0.240480961923848  C 15.2518978605935 0.0801603206412818  15.3868184955142 0  15.5393374741201 0  C 15.691856452726 0  15.8267770876467 0.0801603206412818  15.944099378882 0.240480961923848  L 16.824016563147 1.44288577154308  C 16.9413388543823 1.60320641282565  17 1.7875751503006  17 1.99599198396794  C 17 2.20440881763527  16.9413388543823 2.38877755511022  16.824016563147 2.54909819639279  L 9.90786749482402 12  L 16.824016563147 21.4509018036072  Z " fill-rule="nonzero" fill="#eeb834" stroke="none" transform="matrix(1 0 0 1 9 36 )" />
  </g>
</svg>