<?xml version="1.0" encoding="utf-8"?>
<svg version="1.1" xmlns:xlink="http://www.w3.org/1999/xlink" width="17px" height="24px" xmlns="http://www.w3.org/2000/svg">
  <g transform="matrix(1 0 0 1 -37 -36 )">
    <path d="M 16.7079037800687 1.44288577154308  C 16.9026345933562 1.60320641282565  17 1.7875751503006  17 1.99599198396794  C 17 2.20440881763527  16.9026345933562 2.38877755511022  16.7079037800687 2.54909819639279  L 5.22852233676976 12  L 16.7079037800687 21.4509018036072  C 16.9026345933562 21.6112224448898  17 21.7955911823647  17 22.0040080160321  C 17 22.2124248496994  16.9026345933562 22.3967935871744  16.7079037800687 22.5571142284569  L 15.2474226804124 23.7595190380762  C 15.0526918671249 23.9198396793587  14.8287514318442 24  14.5756013745704 24  C 14.3224513172967 24  14.098510882016 23.9198396793587  13.9037800687285 23.7595190380762  L 0.292096219931271 12.5531062124248  C 0.0973654066437572 12.3927855711423  0 12.2084168336673  0 12  C 0 11.7915831663327  0.0973654066437572 11.6072144288577  0.292096219931271 11.4468937875752  L 13.9037800687285 0.240480961923848  C 14.098510882016 0.0801603206412818  14.3224513172967 0  14.5756013745704 0  C 14.8287514318442 0  15.0526918671249 0.0801603206412818  15.2474226804124 0.240480961923848  L 16.7079037800687 1.44288577154308  Z " fill-rule="nonzero" fill="#eeb834" stroke="none" transform="matrix(1 0 0 1 37 36 )" />
  </g>
</svg>