<?xml version="1.0" encoding="utf-8"?>
<svg version="1.1" xmlns:xlink="http://www.w3.org/1999/xlink" width="17px" height="24px" xmlns="http://www.w3.org/2000/svg">
  <g transform="matrix(1 0 0 1 -253 -36 )">
    <path d="M 10.0662525879917 11.4468937875752  C 10.1835748792271 11.6072144288577  10.2422360248447 11.7915831663327  10.2422360248447 12  C 10.2422360248447 12.2084168336673  10.1835748792271 12.3927855711423  10.0662525879917 12.5531062124248  L 1.86542443064182 23.7595190380762  C 1.74810213940649 23.9198396793587  1.61318150448585 24  1.46066252587992 24  C 1.30814354727398 24  1.17322291235335 23.9198396793587  1.05590062111801 23.7595190380762  L 0.175983436853002 22.5571142284569  C 0.0586611456176674 22.3967935871744  0 22.2124248496994  0 22.0040080160321  C 0 21.7955911823647  0.0586611456176674 21.6112224448898  0.175983436853002 21.4509018036072  L 7.09213250517598 12  L 0.175983436853002 2.54909819639279  C 0.0586611456176674 2.38877755511022  0 2.20440881763527  0 1.99599198396794  C 0 1.7875751503006  0.0586611456176674 1.60320641282565  0.175983436853002 1.44288577154308  L 1.05590062111801 0.240480961923848  C 1.17322291235335 0.0801603206412818  1.30814354727398 0  1.46066252587992 0  C 1.61318150448585 0  1.74810213940649 0.0801603206412818  1.86542443064182 0.240480961923848  L 10.0662525879917 11.4468937875752  Z M 16.824016563147 11.4468937875752  C 16.9413388543823 11.6072144288577  17 11.7915831663327  17 12  C 17 12.2084168336673  16.9413388543823 12.3927855711423  16.824016563147 12.5531062124248  L 8.6231884057971 23.7595190380762  C 8.50586611456177 23.9198396793587  8.37094547964113 24  8.2184265010352 24  C 8.06590752242926 24  7.93098688750863 23.9198396793587  7.81366459627329 23.7595190380762  L 6.93374741200828 22.5571142284569  C 6.81642512077295 22.3967935871744  6.75776397515528 22.2124248496994  6.75776397515528 22.0040080160321  C 6.75776397515528 21.7955911823647  6.81642512077295 21.6112224448898  6.93374741200828 21.4509018036072  L 13.8498964803313 12  L 6.93374741200828 2.54909819639279  C 6.81642512077295 2.38877755511022  6.75776397515528 2.20440881763527  6.75776397515528 1.99599198396794  C 6.75776397515528 1.7875751503006  6.81642512077295 1.60320641282565  6.93374741200828 1.44288577154308  L 7.81366459627329 0.240480961923848  C 7.93098688750863 0.0801603206412818  8.06590752242926 0  8.2184265010352 0  C 8.37094547964113 0  8.50586611456177 0.0801603206412818  8.6231884057971 0.240480961923848  L 16.824016563147 11.4468937875752  Z " fill-rule="nonzero" fill="#eeb834" stroke="none" transform="matrix(1 0 0 1 253 36 )" />
  </g>
</svg>