<?xml version="1.0" encoding="utf-8"?>
<svg version="1.1" xmlns:xlink="http://www.w3.org/1999/xlink" width="17px" height="24px" xmlns="http://www.w3.org/2000/svg">
  <g transform="matrix(1 0 0 1 -229 -36 )">
    <path d="M 16.7079037800687 11.4468937875752  C 16.9026345933562 11.6072144288577  17 11.7915831663327  17 12  C 17 12.2084168336673  16.9026345933562 12.3927855711423  16.7079037800687 12.5531062124248  L 3.09621993127148 23.7595190380762  C 2.90148911798396 23.9198396793587  2.67754868270332 24  2.42439862542955 24  C 2.17124856815578 24  1.94730813287514 23.9198396793587  1.75257731958763 23.7595190380762  L 0.292096219931271 22.5571142284569  C 0.0973654066437572 22.3967935871744  0 22.2124248496994  0 22.0040080160321  C 0 21.7955911823647  0.0973654066437572 21.6112224448898  0.292096219931271 21.4509018036072  L 11.7714776632302 12  L 0.292096219931271 2.54909819639279  C 0.0973654066437572 2.38877755511022  0 2.20440881763527  0 1.99599198396794  C 0 1.7875751503006  0.0973654066437572 1.60320641282565  0.292096219931271 1.44288577154308  L 1.75257731958763 0.240480961923848  C 1.94730813287514 0.0801603206412818  2.17124856815578 0  2.42439862542955 0  C 2.67754868270332 0  2.90148911798396 0.0801603206412818  3.09621993127148 0.240480961923848  L 16.7079037800687 11.4468937875752  Z " fill-rule="nonzero" fill="#eeb834" stroke="none" transform="matrix(1 0 0 1 229 36 )" />
  </g>
</svg>