<?xml version="1.0" encoding="utf-8"?>
<svg version="1.1" xmlns:xlink="http://www.w3.org/1999/xlink" width="60px" height="33px" xmlns="http://www.w3.org/2000/svg">
  <g transform="matrix(1 0 0 1 -20 -182 )">
    <path d="M 20 194.061538461538  C 20 187.400134709733  25.4001347097332 182  32.0615384615385 182  C 32.0615384615385 182  67.9384615384615 182  67.9384615384615 182  C 74.5998652902668 182  80 187.400134709733  80 194.061538461538  C 80 200.722942213344  74.5998652902668 206.123076923077  67.9384615384615 206.123076923077  C 67.9384615384615 206.123076923077  57.25 206.123076923077  57.25 206.123076923077  C 57.25 206.123076923077  49 215  49 215  C 49 215  40.75 206.123076923077  40.75 206.123076923077  C 40.75 206.123076923077  32.0615384615385 206.123076923077  32.0615384615385 206.123076923077  C 25.4001347097332 206.123076923077  20 200.722942213344  20 194.061538461538  Z " fill-rule="nonzero" fill="#ffffff" stroke="none" fill-opacity="0" />
  </g>
</svg>