<?xml version="1.0" encoding="utf-8"?>
<svg version="1.1" xmlns:xlink="http://www.w3.org/1999/xlink" width="15px" height="15px" xmlns="http://www.w3.org/2000/svg">
  <g transform="matrix(1 0 0 1 -42 -210 )">
    <path d="M 49.5 211  C 53.14 211  56 213.86  56 217.5  C 56 221.14  53.14 224  49.5 224  C 45.86 224  43 221.14  43 217.5  C 43 213.86  45.86 211  49.5 211  Z " fill-rule="nonzero" fill="#cccccc" stroke="none" />
    <path d="M 49.5 211  C 53.14 211  56 213.86  56 217.5  C 56 221.14  53.14 224  49.5 224  C 45.86 224  43 221.14  43 217.5  C 43 213.86  45.86 211  49.5 211  Z " stroke-width="2" stroke="#ffffff" fill="none" />
  </g>
</svg>