<?xml version="1.0" encoding="utf-8"?>
<svg version="1.1" xmlns:xlink="http://www.w3.org/1999/xlink" width="60px" height="33px" xmlns="http://www.w3.org/2000/svg">
  <g transform="matrix(1 0 0 1 -203 -173 )">
    <path d="M 203 185.061538461538  C 203 178.400134709733  208.400134709733 173  215.061538461538 173  C 215.061538461538 173  250.938461538462 173  250.938461538462 173  C 257.599865290267 173  263 178.400134709733  263 185.061538461538  C 263 191.722942213344  257.599865290267 197.123076923077  250.938461538462 197.123076923077  C 250.938461538462 197.123076923077  240.25 197.123076923077  240.25 197.123076923077  C 240.25 197.123076923077  232 206  232 206  C 232 206  223.75 197.123076923077  223.75 197.123076923077  C 223.75 197.123076923077  215.061538461538 197.123076923077  215.061538461538 197.123076923077  C 208.400134709733 197.123076923077  203 191.722942213344  203 185.061538461538  Z " fill-rule="nonzero" fill="#1abc9c" stroke="none" />
  </g>
</svg>