<?xml version="1.0" encoding="utf-8"?>
<svg version="1.1" xmlns:xlink="http://www.w3.org/1999/xlink" width="15px" height="15px" xmlns="http://www.w3.org/2000/svg">
  <g transform="matrix(1 0 0 1 -36 -271 )">
    <path d="M 43.5 274  C 46.02 274  48 275.98  48 278.5  C 48 281.02  46.02 283  43.5 283  C 40.98 283  39 281.02  39 278.5  C 39 275.98  40.98 274  43.5 274  Z " fill-rule="nonzero" fill="#eeb834" stroke="none" />
    <path d="M 43.5 273  C 46.58 273  49 275.42  49 278.5  C 49 281.58  46.58 284  43.5 284  C 40.42 284  38 281.58  38 278.5  C 38 275.42  40.42 273  43.5 273  Z " stroke-width="4" stroke="#eeb834" fill="none" />
  </g>
</svg>