<?xml version="1.0" encoding="utf-8"?>
<svg version="1.1" xmlns:xlink="http://www.w3.org/1999/xlink" width="187px" height="29px" xmlns="http://www.w3.org/2000/svg">
  <defs>
    <mask fill="white" id="clip91">
      <path d="M 19.5071942446043 29  C 8.58316546762589 29  0 22.62  0 14.5  C 0 6.38  8.58316546762589 0  19.5071942446043 0  L 61.8848920863309 0  L 167.492805755396 0  C 178.416834532374 0  187 6.38  187 14.5  C 187 22.62  178.416834532374 29  167.492805755396 29  L 19.5071942446043 29  Z " fill-rule="evenodd" />
    </mask>
  </defs>
  <g transform="matrix(1 0 0 1 -118 -98 )">
    <path d="M 19.5071942446043 29  C 8.58316546762589 29  0 22.62  0 14.5  C 0 6.38  8.58316546762589 0  19.5071942446043 0  L 61.8848920863309 0  L 167.492805755396 0  C 178.416834532374 0  187 6.38  187 14.5  C 187 22.62  178.416834532374 29  167.492805755396 29  L 19.5071942446043 29  Z " fill-rule="nonzero" fill="#ffffff" stroke="none" fill-opacity="0" transform="matrix(1 0 0 1 118 98 )" />
    <path d="M 19.5071942446043 29  C 8.58316546762589 29  0 22.62  0 14.5  C 0 6.38  8.58316546762589 0  19.5071942446043 0  L 61.8848920863309 0  L 167.492805755396 0  C 178.416834532374 0  187 6.38  187 14.5  C 187 22.62  178.416834532374 29  167.492805755396 29  L 19.5071942446043 29  Z " stroke-width="2" stroke="#ffffff" fill="none" transform="matrix(1 0 0 1 118 98 )" mask="url(#clip91)" />
  </g>
</svg>