<?xml version="1.0" encoding="utf-8"?>
<svg version="1.1" xmlns:xlink="http://www.w3.org/1999/xlink" width="51px" height="36px" xmlns="http://www.w3.org/2000/svg">
  <g transform="matrix(1 0 0 1 -163 -245 )">
    <path d="M 16.530478515625 34.668037109375  C 17.08767578125 35.2251318359375  17.8178564453125 35.503935546875  18.548037109375 35.503935546875  C 19.042685546875 35.503935546875  19.5357958984375 35.3729931640625  19.97681640625 35.11736328125  C 20.2298828125 34.9856005859375  20.4678759765625 34.8145654296875  20.6801318359375 34.6018994140625  L 49.55974609375 5.72269531250001  C 50.6740380859375 4.60799316406251  50.6740380859375 2.80115234375  49.55974609375 1.6868603515625  C 48.4453515625 0.572568359375005  46.6385107421875 0.572568359375005  45.52380859375 1.6868603515625  L 18.57244140625 28.6386376953125  L 4.927978515625 14.993662109375  C 3.8132763671875 13.8793701171875  2.006435546875 13.8793701171875  0.8921435546875 14.993662109375  C -0.222250976562499 16.108466796875  -0.222250976562499 17.9153076171875  0.8921435546875 19.029599609375  L 16.530478515625 34.668037109375  Z " fill-rule="nonzero" fill="#eeb834" stroke="none" transform="matrix(1 0 0 1 163 245 )" />
  </g>
</svg>