<?xml version="1.0" encoding="utf-8"?>
<svg version="1.1" xmlns:xlink="http://www.w3.org/1999/xlink" width="73px" height="73px" xmlns="http://www.w3.org/2000/svg">
  <g transform="matrix(1 0 0 1 -148 -216 )">
    <path d="M 72 29.8386893828125  C 72.4836660859375 28.3586048710937  71.3694895117187 27.2002742382813  69.9410299726563 27.2002742382813  C 68.5176909882812 27.2002742382813  67.4010800546875 28.3586048710938  67 29.8387733007812  L 67 61.5301425273438  C 67.4010800546875 64.6202554492187  64.997957359375 67.137204953125  62.0436643984375 67  L 12.2736404453125 67  C 10.786672609375 67.137204953125  9.129552109375 66.5044419765625  7.8321278125 65.4515438125  C 6.47157825390625 64.346684921875  5.68981633984375 62.9156231875  6 61.5301425273438  L 6 11.614477421875  C 5.68981633984375 8.67353135546875  9.19687458203125 5.32017293359375  12.2736405273438 6  L 39.0728906054688 6  C 40.5503728398438 5.32017293359375  41.7072764570312 4.2003721328125  41.7072764570312 2.7730039375  C 41.7072764570312 1.34563566015625  40.5503728398438 0.229024726562503  39.0728906054688 1  L 12.2736404453125 1  C 5.73271121875 0.2290247265625  0.610000421875 5.23186481640625  1 11.614477421875  L 1 61.5300586914063  C 0.610000421875 64.5956601835938  1.82818253125 67.358059328125  4.0410901796875 69.3090644921875  C 6.1753431484375 71.1912364140625  9.0989969453125 72.2271779804688  12.2737244453125 72  L 62.0438323164063 72  C 65.1838074414062 72.2271779804688  67.82490878125 71.2137330742188  69.6763574570313 69.2952977617188  C 71.514123484375 67.3968409140625  72.4837500039063 64.7120052695313  72 61.530058609375  L 72 29.8386893828125  Z " fill-rule="nonzero" fill="#eeb834" stroke="none" transform="matrix(1 0 0 1 148 216 )" />
  </g>
</svg>