<?xml version="1.0" encoding="utf-8"?>
<svg version="1.1" xmlns:xlink="http://www.w3.org/1999/xlink" width="66px" height="66px" xmlns="http://www.w3.org/2000/svg">
  <g transform="matrix(1 0 0 1 -162 -209 )">
    <path d="M 65.390083578125 15.8538411289063  C 65.389999578125 13.8250206289063  64.6071463203125 11.8797235273437  63.246009171875 10.5130461523437  L 55.126110453125 2.38231881640625  C 53.8109741328125 1.06004725390625  51.92376565625 0.30321644140625  49.9436321796875 0.30321644140625  C 47.9660169804688 0.30321644140625  46.0772136523438 1.0600473359375  44.76216125 2.38231881640625  C 44.7569567773438 2.38550868359375  44.7514165507813 2.39155258203125  44.7457923242188 2.39566579296875  L 38.1278033515625 10.195573484375  L 2.80186634375 44.073660078125  C 2.76157366015625 44.1108468945313  2.73395636328125 44.1634792109375  2.73135416796875 44.2190494765625  L 0.399163402343749 64.5258894335938  C 0.390433308593746 64.6029491796875  0.422751406250001 64.68009284375  0.480840031249997 64.730039046875  L 1.603159109375 65.712424953125  C 1.6449627265625 65.750199359375  1.70170825390625 65.7701778242188  1.7582859453125 65.7701778242188  C 1.76953431640625 65.7701778242188  1.7807826875 65.7701778242188  1.79144346875 65.7675756289063  L 21.5379633125 63.0756887421875  C 21.5934496601562 63.0674623203125  21.6404578320312 63.0434545625  21.6777285664062 63.0036655507813  L 55.4543280664062 27.57212815625  L 63.2298922460937 21.2106691953125  C 63.2354324726562 21.2052128867188  63.2410566992187 21.2000084140625  63.2477721054688 21.1943842695313  C 64.6072304023438 19.82871415625  65.390083578125 17.8824097929688  65.390083578125 15.8538411289063  Z M 59.5613273515625 14.1992389882813  C 60.3917763710937 15.0310309414063  60.3947983203125 16.3894818945313  59.566028234375 17.2233725351563  L 55.0290723242188 21.7714089804687  L 43.9018285742187 10.624270765625  L 48.4371056328125 6.073632125  C 48.8392769609375 5.6746506640625  49.3710564335938 5.45354453515625  49.9411139023437 5.45354453515625  C 50.5146969921875 5.45354453515625  51.0495823320313 5.6745666640625  51.447052859375 6.073632125  L 59.5613273515625 14.1992389882813  Z M 6.5237348984375 59.615051  L 7.054423109375 50.9116639179688  L 15.0749331757813 58.9408201601563  L 6.5237348984375 59.615051  Z M 9.4449543359375 45.9348461914063  L 40.6968815 14.7865887265625  L 50.8791779140625 24.988276015625  L 19.825104546875 56.3243140859375  L 9.4449543359375 45.9348461914063  Z " fill-rule="nonzero" fill="#eeb834" stroke="none" transform="matrix(1 0 0 1 162 209 )" />
  </g>
</svg>