<?xml version="1.0" encoding="utf-8"?>
<svg version="1.1" xmlns:xlink="http://www.w3.org/1999/xlink" width="27px" height="45px" xmlns="http://www.w3.org/2000/svg">
  <g transform="matrix(1 0 0 1 -175 -233 )">
    <path d="M 26 18  C 26.65 17.95  27.3 18.6  26.65 19.25  C 19.5 27.7  11.7 35.5  4.55 43.95  C 3.90000000000001 44.6  3.25 43.95  3.25 43.3  C 5.2 37.45  7.8 31.6  9.75 25.75  L 0.649999999999999 25.75  C 0 25.75  0 25.1  0 24.45  L 19.5 1.05  C 19.5 1.05  20.15 0.400000000000006  20.15 1.05  C 20.8 1.05  20.8 1.7  20.8 1.7  C 18.2 7.55  16.9 12.75  14.95 18  L 26 18  Z " fill-rule="nonzero" fill="#eeb834" stroke="none" transform="matrix(1 0 0 1 175 233 )" />
  </g>
</svg>