<?xml version="1.0" encoding="utf-8"?>
<svg version="1.1" xmlns:xlink="http://www.w3.org/1999/xlink" width="29px" height="28px" xmlns="http://www.w3.org/2000/svg">
  <g transform="matrix(1 0 0 1 -513 -186 )">
    <path d="M 28 11.4147388125  C 28.3747299375 10.85089709375  27.95028171875 10.40962828125  27.40610665625 10.40962828125  C 26.86388228125 10.40962828125  26.4385066875 10.85089709375  26 11.41477078125  L 26 23.48767334375  C 26.4385066875 24.66485921875  25.523031375 25.623697125  24.3975864375 25.623697125  L 5.4375773125 25.623697125  C 4.871113375 25.623697125  4.239829375 25.3826445625  3.7455725 24.9815405  C 3.22726790625 24.560641875  2.92945384375 24.0154755  3 23.48767334375  L 3 4.472181875  C 2.92945384375 3.35182146875  4.26547603125 2.07435159375  5.43757734375 2  L 15.64681546875 2  C 16.20966584375 2.07435159375  16.65039103125 1.6477608125  16.65039103125 1.1040015  C 16.65039103125 0.560242156250001  16.20966584375 0.134866562500001  15.64681546875 0.134866562500001  L 5.4375773125 0.1348665625  C 2.94579475 0.1348665625  0.994285875 2.04071040625  1 4.472181875  L 1 23.48764140625  C 0.994285875 24.65548959375  1.45835525 25.707832125  2.3013676875 26.4510721875  C 3.1144164375 27.1680900625  4.2281893125 27.56273446875  5.4376093125 27.56273446875  L 24.39765040625 27.56273446875  C 25.59383140625 27.56273446875  26.59996525 27.17666021875  27.30527903125 26.44582771875  C 28.005380375 25.7226060625  28.37476190625 24.69981153125  28 23.487641375  L 28 11.4147388125  Z " fill-rule="nonzero" fill="#eeb834" stroke="none" transform="matrix(1 0 0 1 513 186 )" />
  </g>
</svg>