<?xml version="1.0" encoding="utf-8"?>
<svg version="1.1" xmlns:xlink="http://www.w3.org/1999/xlink" width="81px" height="71px" xmlns="http://www.w3.org/2000/svg">
  <g transform="matrix(1 0 0 1 -147 -218 )">
    <path d="M 80.9 68.482  C 80.9 67.18  79.892 66.172  78.59 66.172  L 73 66.172  L 73 33.454  C 72.962 31.102  71.072 29.212  68.72 30  L 13.826 30  C 11.474 29.212  9.58400000000001 31.102  10 33.454  L 10 66.172  L 2.86400000000001 66.172  C 1.60400000000001 66.172  0.554000000000009 67.18  0.554000000000009 68.482  C 0.554000000000009 69.742  1.60400000000001 70.792  2.86400000000001 70  L 78.59 70  C 79.85 70.792  80.9 69.742  80.9 68.482  Z M 68 44.668  L 68 66  L 15 66  L 15 44.584  C 14.582 45.088  14.876 45.592  15.128 46.222  C 16.472 48.994  18.11 52.396  21.848 52.396  C 25.586 52.396  27.266 48.952  28.568 46.222  C 29.66 43.954  30.5 42.4  31.55 42.4  C 32.558 42.4  33.44 43.996  34.49 46.222  C 35.834 48.994  37.472 52.396  41.21 52.396  C 44.948 52.396  46.628 48.952  47.972 46.222  C 49.064 43.996  49.904 42.4  50.954 42.4  C 51.962 42.4  52.844 43.996  53.936 46.222  C 55.28 48.994  56.918 52.396  60.698 52.396  C 64.436 52.396  66.116 48.952  67.46 46.222  C 67.712 45.676  68.006 45.13  68 44.668  Z M 68.258 35  L 68.216 38.662  C 65.948 39.67  64.688 42.232  63.638 44.374  C 62.546 46.642  61.706 48.196  60.656 48.196  C 59.606 48.196  58.766 46.6  57.674 44.374  C 56.33 41.602  54.692 38.2  50.912 38.2  C 47.174 38.2  45.494 41.644  44.192 44.374  C 43.1 46.642  42.26 48.196  41.21 48.196  C 40.202 48.196  39.362 46.6  38.27 44.374  C 36.926 41.602  35.288 38.2  31.55 38.2  C 27.812 38.2  26.132 41.644  24.83 44.374  C 23.738 46.642  22.898 48.196  21.89 48.196  C 20.882 48.196  20 46.6  18.95 44.374  C 17.9 42.232  16.64 39.628  14.372 38.62  L 14.372 35  L 68.258 35  Z M 23.696 4.432  C 23.738 5.566  24.62 6.448  25.754 6.448  C 26.888 6.448  27.77 5.524  27.77 4.432  L 27.77 2.458  C 27.77 1.324  26.846 0.442  25.754 0.442  C 24.62 0.442  23.696 1.366  23.696 2.458  L 23.696 4.432  Z M 28 11.614  C 27.56 10.606  26.72 9.808  25.754 9.808  C 24.746 9.808  23.948 10.606  24 11.614  L 24 26.65  C 23.948 27.658  24.746 28.456  25.754 28.456  C 26.72 28.456  27.518 27.658  28 26.65  L 28 11.614  Z M 38.816 4.432  C 38.816 5.566  39.74 6.448  40.832 6.448  C 41.966 6.448  42.848 5.524  42.848 4.432  L 42.848 2.458  C 42.848 1.324  41.924 0.442  40.832 0.442  C 39.698 0.442  38.816 1.366  38.816 2.458  L 38.816 4.432  Z M 42 11.614  C 42.638 10.606  41.84 9.808  40.832 9.808  C 39.824 9.808  39.026 10.606  39 11.614  L 39 26.65  C 39.026 27.658  39.824 28.456  40.832 28.456  C 41.798 28.456  42.596 27.658  42 26.65  L 42 11.614  Z M 53.894 4.432  C 53.894 5.566  54.818 6.448  55.952 6.448  C 57.086 6.448  57.968 5.524  57.968 4.432  L 57.968 2.458  C 57.968 1.324  57.044 0.442  55.952 0.442  C 54.818 0.442  53.894 1.366  53.894 2.458  L 53.894 4.432  Z M 57 11.614  C 57.716 10.606  56.918 9.808  55.952 9.808  C 54.944 9.808  54.146 10.606  54 11.614  L 54 26.65  C 54.146 27.658  54.944 28.456  55.952 28.456  C 56.918 28.456  57.716 27.658  57 26.65  L 57 11.614  Z " fill-rule="nonzero" fill="#eeb834" stroke="none" transform="matrix(1 0 0 1 147 218 )" />
  </g>
</svg>