<?xml version="1.0" encoding="utf-8"?>
<svg version="1.1" xmlns:xlink="http://www.w3.org/1999/xlink" width="35px" height="36px" xmlns="http://www.w3.org/2000/svg">
  <g transform="matrix(1 0 0 1 -172 -234 )">
    <path d="M 11.14375 6.15625000000001  C 8.78125 8.125  5.2375 9.56875  0.25 10.4875  L 0.25 7.73125  C 5.10625 6.28749999999999  8.3875 3.6625  9.9625 0.118749999999999  L 15.08125 0.118749999999999  C 14.6875 1.16875  14.1625 2.0875  13.76875 3  L 27.8125 3  L 27.8125 6.025  C 26.2375 7.73125  24.6625 9.4375  23.48125 10.61875  L 31.75 10.61875  L 31.75 17.3125  C 31.75 19.675  30.04375 22.5625  26.5 22.5625  L 18.3625 22.5625  C 18.23125 22.825  17.70625 23.74375  17.70625 23.875  L 21.25 23.875  L 21.25 28.6  C 21.11875 30.175  21.90625 31.09375  23.35 31.09375  L 28.46875 31.09375  C 29.9125 31.09375  30.56875 29.9125  30.4375 28.6  L 30.4375 27.8125  L 34.375 27.8125  L 34.375 30.4375  C 34.375 33.0625  32.40625 34.375  29.3875 34.375  L 21.775 34.375  C 18.3625 34.50625  16.525 32.66875  16.65625 29.3875  L 16.65625 25.58125  C 14.29375 29.65  8.91250000000001 32.93125  0.250000000000011 35.6875  L 0.250000000000011 32.66875  C 7.20625000000001 29.65  11.66875 26.5  13.375 22  L 3 22  L 3 11  L 17.3125 11  C 18.49375 9.83125000000001  20.2 7.99375000000001  21.64375 6.15625000000001  L 11.14375 6.15625000000001  Z M 7.46875 13.375  L 7.46875 19.15  L 14.1625 19.15  C 14.55625 17.575  14.6875 13.375  14.6875 13.375  L 7.46875 13.375  Z M 27.2875 15.86875  L 27.2875 13.375  L 19.9375 13.375  L 19.9375 14.425  C 19.9375 16.525  19.80625 17.18125  19.54375 19.15  L 24.00625 19.15  C 25.58125 19.28125  27.41875 17.575  27.2875 15.86875  Z " fill-rule="nonzero" fill="#eeb834" stroke="none" transform="matrix(1 0 0 1 172 234 )" />
  </g>
</svg>