<?xml version="1.0" encoding="utf-8"?>
<svg version="1.1" xmlns:xlink="http://www.w3.org/1999/xlink" width="66px" height="78px" xmlns="http://www.w3.org/2000/svg">
  <g transform="matrix(1 0 0 1 -155 -210 )">
    <path d="M 27.15 12.35  C 31.7 9.1  36.25 7.15  40.15 6.5  C 38.2 13  41.45 18.2  43.4 20.8  L 46.65 24.05  C 49.25 26.65  51.2 27.3  53.8 31.85  C 58.35 38.35  61.6 44.85  57.7 56.55  C 53.15 68.25  42.1 72.15  33 72.15  C 23.9 72.15  12.2 67.6  7.65 55.9  C 2.45 40.3  13.5 21.45  27.15 12.35  Z M 49.9 0  L 46.65 0  C 41.45 0  32.35 1.3  23.9 7.15  C 8.95 16.9  -4.05 39  2.45 57.85  C 7 70.85  20 78  33 78  C 45.35 78  57.7 71.5  62.9 58.5  C 68.75 43.55  61.6 33.15  56.4 25.35  C 51.85 18.2  55.1 11.05  53.8 11.05  C 51.2 11.05  47.95 16.9  47.95 16.9  C 47.95 16.9  44.05 12.35  47.3 5.85000000000001  C 48.6 3.25000000000001  50.55 0.650000000000007  49.9 0  Z " fill-rule="nonzero" fill="#eeb834" stroke="none" transform="matrix(1 0 0 1 155 210 )" />
  </g>
</svg>