<?xml version="1.0" encoding="utf-8"?>
<svg version="1.1" xmlns:xlink="http://www.w3.org/1999/xlink" width="18px" height="19px" xmlns="http://www.w3.org/2000/svg">
  <g transform="matrix(1 0 0 1 -331 -30 )">
    <path d="M 17.500546875 1.228427734375  C 17.11728515625 0.845224609375  16.49595703125 0.845224609375  16.11275390625 1.2283984375  L 9 8.340859375  L 1.88724609375 1.2283984375  C 1.504013671875 0.845166015625001  0.882656250000001 0.845166015625001  0.499482421875 1.2283984375  C 0.116250000000001 1.611630859375  0.116250000000001 2.2329296875  0.499482421875 2.616103515625  L 7.612236328125 9.72853515625  L 0.499482421874999 16.841025390625  C 0.11625 17.2242578125  0.11625 17.845556640625  0.499482421874999 18.22873046875  C 0.88271484375 18.611962890625  1.504072265625 18.611962890625  1.88724609375 18.22873046875  L 9 11.116298828125  L 16.11275390625 18.22873046875  C 16.495986328125 18.611962890625  17.117314453125 18.611962890625  17.500546875 18.22873046875  C 17.883779296875 17.845498046875  17.883779296875 17.22419921875  17.500546875 16.841025390625  L 10.38779296875 9.728564453125  L 17.500546875 2.6161328125  C 17.883779296875 2.232900390625  17.883779296875 1.6116015625  17.500546875 1.228427734375  Z " fill-rule="nonzero" fill="#eeb834" stroke="none" transform="matrix(1 0 0 1 331 30 )" />
  </g>
</svg>