<?xml version="1.0" encoding="utf-8"?>
<svg version="1.1" xmlns:xlink="http://www.w3.org/1999/xlink" width="100px" height="100px" xmlns="http://www.w3.org/2000/svg">
  <g transform="matrix(1 0 0 1 -138 -160 )">
    <path d="M 188 164.5  C 213.48 164.5  233.5 184.52  233.5 210  C 233.5 235.48  213.48 255.5  188 255.5  C 162.52 255.5  142.5 235.48  142.5 210  C 142.5 184.52  162.52 164.5  188 164.5  Z " fill-rule="nonzero" fill="#ffffff" stroke="none" fill-opacity="0" />
    <path d="M 188 162.5  C 214.6 162.5  235.5 183.4  235.5 210  C 235.5 236.6  214.6 257.5  188 257.5  C 161.4 257.5  140.5 236.6  140.5 210  C 140.5 183.4  161.4 162.5  188 162.5  Z " stroke-width="5" stroke="#ffffff" fill="none" stroke-opacity="0.498039215686275" />
  </g>
</svg>