<?xml version="1.0" standalone="no"?><!DOCTYPE svg PUBLIC "-//W3C//DTD SVG 1.1//EN" "http://www.w3.org/Graphics/SVG/1.1/DTD/svg11.dtd"><svg t="1494318983996" class="icon" style="" viewBox="0 0 1024 1024" version="1.1" xmlns="http://www.w3.org/2000/svg" p-id="21816" xmlns:xlink="http://www.w3.org/1999/xlink" width="32" height="32"><defs><style type="text/css"></style></defs><path d="M953.434197 745.213714l-87.64564-149.654592-22.069452-37.681755c23.41281-47.999647 36.57546-101.914585 36.57546-158.911344 0-200.498997-162.535024-363.045309-363.045309-363.045309s-363.045309 162.535024-363.045309 363.045309c0 56.996759 13.16265 110.900408 36.57546 158.900055l-22.080741 37.693044L81.053026 745.213714l-39.375063 67.224341 74.889384 21.505016c1.896505 0.541859 1.896505 0.541859 10.396913 2.980223 11.333877 3.251152 11.333877 3.251152 27.409018 7.856951 24.462661 6.999008 48.755992 13.941572 72.123647 20.601918 17.22659 16.684732 35.412722 34.182251 53.689163 51.645905 6.8071 6.502304 13.128784 12.530482 18.807011 17.93778 5.847558 5.554051 5.847558 5.554051 7.168339 6.818388l55.314739 52.458693 38.528409-65.790674 80.149928-136.864469 17.632984-30.118311c6.44586 0.338662 12.936876 0.53057 19.461757 0.53057 6.53617 0 13.015897-0.191908 19.461757-0.53057l17.632984 30.118311 80.149928 136.864469 38.528409 65.790674 55.314739-52.458693c1.320781-1.253048 1.320781-1.253048 7.168339-6.818388 5.678227-5.396009 11.999912-11.435476 18.807011-17.93778 18.276441-17.463653 36.462573-34.961173 53.689163-51.645905 23.367655-6.660346 47.660986-13.60291 72.112358-20.601918 16.075141-4.605799 16.075141-4.605799 27.397729-7.856951 8.500408-2.438364 8.500408-2.438364 10.385625-2.980223l74.878095-21.505016L953.434197 745.213714zM517.249256 96.428266c167.084379 0 302.537758 135.453379 302.537758 302.537758s-135.453379 302.537758-302.537758 302.537758-302.537758-135.453379-302.537758-302.537758S350.164877 96.428266 517.249256 96.428266zM347.782957 897.882394c0 0-46.453092-44.059883-90.095293-86.516768-61.929931-17.621696-124.424297-35.570764-124.424297-35.570764l87.64564-149.654592c50.562187 65.982582 123.080939 114.422489 207.023878 134.877654L347.782957 897.882394zM776.810848 811.365627c-43.6422 42.456885-90.095293 86.516768-90.095293 86.516768l-80.161217-136.864469c83.93165-20.455165 156.461691-68.895072 207.01259-134.877654l87.64564 149.654592C901.223856 775.794863 838.740778 793.743931 776.810848 811.365627z" p-id="21817" fill="#ffffff"></path><path d="M517.249256 610.742454c116.962452 0 211.77643-94.813979 211.77643-211.77643 0-116.962452-94.813979-211.77643-211.77643-211.77643s-211.77643 94.813979-211.77643 211.77643C305.472825 515.928475 400.286804 610.742454 517.249256 610.742454zM517.249256 247.697145c83.547834 0 151.268879 67.721045 151.268879 151.268879 0 83.547834-67.721045 151.268879-151.268879 151.268879s-151.268879-67.721045-151.268879-151.268879C365.980377 315.429479 433.712711 247.697145 517.249256 247.697145z" p-id="21818" fill="#ffffff"></path></svg>