<?xml version="1.0" encoding="utf-8"?>
<svg version="1.1" xmlns:xlink="http://www.w3.org/1999/xlink" width="18px" height="18px" xmlns="http://www.w3.org/2000/svg">
  <g transform="matrix(1 0 0 1 -13 -19 )">
    <path d="M 22 19  C 27.04 19  31 22.96  31 28  C 31 33.04  27.04 37  22 37  C 16.96 37  13 33.04  13 28  C 13 22.96  16.96 19  22 19  Z " fill-rule="nonzero" fill="#1abc9c" stroke="none" />
    <path d="M 22 19.5  C 26.76 19.5  30.5 23.24  30.5 28  C 30.5 32.76  26.76 36.5  22 36.5  C 17.24 36.5  13.5 32.76  13.5 28  C 13.5 23.24  17.24 19.5  22 19.5  Z " stroke-width="1" stroke="#1abc9c" fill="none" />
  </g>
</svg>