<?xml version="1.0" encoding="utf-8"?>
<svg version="1.1" xmlns:xlink="http://www.w3.org/1999/xlink" width="80px" height="80px" xmlns="http://www.w3.org/2000/svg">
  <defs>
    <mask fill="white" id="clip35">
      <path d="M 68.9782984795322 0.0779727095516591  L 11.3454675243665 0.0779727095516591  C 5.23430760233918 0.0779727095516591  0.213568654970759 5.08698417153996  0.213568654970759 11.1986227680312  L 0.213568654970759 56.652214502924  C 0.213568654970759 62.7633744249513  5.23430760233918 67.6681943859649  11.3454675243665 67  L 26.7918209746589 67  L 38.2118022612086 79.0956748538012  C 38.7527046393762 79.6352209746589  39.460983625731 79.9216279922027  40.1691030019493 79.9216279922027  C 40.8791370760234 79.9216279922027  41.5895701364522 79.6587557894737  42.1307916569201 79.1166567641325  C 43.2112402339181 78.0331766081871  43.2094850682261 76.2828228460039  42.1260049122807 75.2020552046784  L 29.8948296296296 62.9526105263158  C 29.3753079922027 62.434365380117  28.6714168421053 62.0966604288499  27.9375288888889 62  L 11.3454675243665 62  C 8.28992748538012 62.0966604288499  5.78526222222222 59.7079141520468  6 56.6522943469786  L 6 11.1986227680312  C 5.78526222222222 8.14308272904484  8.28992748538012 5.55815961013645  11.3454675243665 6  L 68.9783781676413 6  C 72.0339979727095 5.55815961013645  74.3800624561404 8.14260397660819  74 11.1986227680312  L 74 56.652214502924  C 74.3800624561404 59.7078343079922  72.0339980506823 62.0965805847953  68.9783781676413 62  L 46.2576854580897 62  C 44.7274422612086 62.0965805847953  43.4871164132554 63.3522240155945  43.4871164132554 64.8824672124756  C 43.4871164132554 66.4130295516569  44.7274422612086 67.6681943079922  46.2576854580897 67  L 68.9782984795322 67  C 75.0900168421053 67.6681943079922  79.9516762573099 62.7633744249513  79.9516762573099 56.6522144249513  L 79.9516762573099 11.1986227680312  C 79.9516762573099 5.08698417153996  75.0900168421053 0.0779727095516591  68.9782984795322 0.0779727095516591  Z M 19.7574571539961 44.1268935672515  C 23.776649122807 49.5826680701754  30.6418812475634 52.3493279532164  40.1621622612086 52.3493279532164  C 49.6292306432749 52.3493279532164  56.5053126705653 49.5795567251462  60.5986992592592 44.1181976608187  C 64.8384804678362 38.4611405068226  64.9409168810916 31.3396577777778  64.4157309161793 26.7730215204678  C 65.2651391812865 25.8787773879142  65.78777208577 24.6705227290448  65.78777208577 23.339567797271  C 65.78777208577 20.5846354775828  63.5549939961014 18.3519371539961  60.8000616764132 18.3519371539961  C 58.045687797271 18.3519371539961  55.8129097076023 20.5850343859649  55.8129097076023 23.339567797271  C 55.8129097076023 25.4450184015595  57.1181757504873 27.244197037037  58.9634666666667 27.9758512280702  C 59.309548460039 31.6050828849902  59.1269341130604 36.8590162183236  56.1489392592593 40.8150231578947  C 53.1557066666667 44.7914535672515  47.7770785964912 46.8072324366472  40.1622419493177 46.8072324366472  C 32.513419337232 46.8072324366472  27.154416920078 44.8067711500975  24.2343418323587 40.8603376998051  C 21.2685532163743 36.8533518908382  21.2585011306043 31.503045380117  21.6986424951267 27.9488060818714  C 23.5069158674464 27.2000790643275  24.7796320467836 25.4184519298246  24.7796320467836 23.3394880311891  C 24.7796320467836 20.584954619883  22.546853957115 18.3518573879142  19.792320545809 18.3518573879142  C 17.0379466666667 18.3518573879142  14.8046899025341 20.584954619883  14.8046899025341 23.3394880311891  C 14.8046899025341 24.7071413645224  15.3556445224171 25.9457121247563  16.2473355945419 26.8465778557505  C 15.6358287719298 31.3322384405458  15.5791856530214 38.4558750877193  19.7574571539961 44.1268935672515  Z " fill-rule="evenodd" />
    </mask>
  </defs>
  <g transform="matrix(1 0 0 1 -147 -127 )">
    <path d="M 68.9782984795322 0.0779727095516591  L 11.3454675243665 0.0779727095516591  C 5.23430760233918 0.0779727095516591  0.213568654970759 5.08698417153996  0.213568654970759 11.1986227680312  L 0.213568654970759 56.652214502924  C 0.213568654970759 62.7633744249513  5.23430760233918 67.6681943859649  11.3454675243665 67  L 26.7918209746589 67  L 38.2118022612086 79.0956748538012  C 38.7527046393762 79.6352209746589  39.460983625731 79.9216279922027  40.1691030019493 79.9216279922027  C 40.8791370760234 79.9216279922027  41.5895701364522 79.6587557894737  42.1307916569201 79.1166567641325  C 43.2112402339181 78.0331766081871  43.2094850682261 76.2828228460039  42.1260049122807 75.2020552046784  L 29.8948296296296 62.9526105263158  C 29.3753079922027 62.434365380117  28.6714168421053 62.0966604288499  27.9375288888889 62  L 11.3454675243665 62  C 8.28992748538012 62.0966604288499  5.78526222222222 59.7079141520468  6 56.6522943469786  L 6 11.1986227680312  C 5.78526222222222 8.14308272904484  8.28992748538012 5.55815961013645  11.3454675243665 6  L 68.9783781676413 6  C 72.0339979727095 5.55815961013645  74.3800624561404 8.14260397660819  74 11.1986227680312  L 74 56.652214502924  C 74.3800624561404 59.7078343079922  72.0339980506823 62.0965805847953  68.9783781676413 62  L 46.2576854580897 62  C 44.7274422612086 62.0965805847953  43.4871164132554 63.3522240155945  43.4871164132554 64.8824672124756  C 43.4871164132554 66.4130295516569  44.7274422612086 67.6681943079922  46.2576854580897 67  L 68.9782984795322 67  C 75.0900168421053 67.6681943079922  79.9516762573099 62.7633744249513  79.9516762573099 56.6522144249513  L 79.9516762573099 11.1986227680312  C 79.9516762573099 5.08698417153996  75.0900168421053 0.0779727095516591  68.9782984795322 0.0779727095516591  Z M 19.7574571539961 44.1268935672515  C 23.776649122807 49.5826680701754  30.6418812475634 52.3493279532164  40.1621622612086 52.3493279532164  C 49.6292306432749 52.3493279532164  56.5053126705653 49.5795567251462  60.5986992592592 44.1181976608187  C 64.8384804678362 38.4611405068226  64.9409168810916 31.3396577777778  64.4157309161793 26.7730215204678  C 65.2651391812865 25.8787773879142  65.78777208577 24.6705227290448  65.78777208577 23.339567797271  C 65.78777208577 20.5846354775828  63.5549939961014 18.3519371539961  60.8000616764132 18.3519371539961  C 58.045687797271 18.3519371539961  55.8129097076023 20.5850343859649  55.8129097076023 23.339567797271  C 55.8129097076023 25.4450184015595  57.1181757504873 27.244197037037  58.9634666666667 27.9758512280702  C 59.309548460039 31.6050828849902  59.1269341130604 36.8590162183236  56.1489392592593 40.8150231578947  C 53.1557066666667 44.7914535672515  47.7770785964912 46.8072324366472  40.1622419493177 46.8072324366472  C 32.513419337232 46.8072324366472  27.154416920078 44.8067711500975  24.2343418323587 40.8603376998051  C 21.2685532163743 36.8533518908382  21.2585011306043 31.503045380117  21.6986424951267 27.9488060818714  C 23.5069158674464 27.2000790643275  24.7796320467836 25.4184519298246  24.7796320467836 23.3394880311891  C 24.7796320467836 20.584954619883  22.546853957115 18.3518573879142  19.792320545809 18.3518573879142  C 17.0379466666667 18.3518573879142  14.8046899025341 20.584954619883  14.8046899025341 23.3394880311891  C 14.8046899025341 24.7071413645224  15.3556445224171 25.9457121247563  16.2473355945419 26.8465778557505  C 15.6358287719298 31.3322384405458  15.5791856530214 38.4558750877193  19.7574571539961 44.1268935672515  Z " fill-rule="nonzero" fill="#eeb834" stroke="none" transform="matrix(1 0 0 1 147 127 )" />
    <path d="M 68.9782984795322 0.0779727095516591  L 11.3454675243665 0.0779727095516591  C 5.23430760233918 0.0779727095516591  0.213568654970759 5.08698417153996  0.213568654970759 11.1986227680312  L 0.213568654970759 56.652214502924  C 0.213568654970759 62.7633744249513  5.23430760233918 67.6681943859649  11.3454675243665 67  L 26.7918209746589 67  L 38.2118022612086 79.0956748538012  C 38.7527046393762 79.6352209746589  39.460983625731 79.9216279922027  40.1691030019493 79.9216279922027  C 40.8791370760234 79.9216279922027  41.5895701364522 79.6587557894737  42.1307916569201 79.1166567641325  C 43.2112402339181 78.0331766081871  43.2094850682261 76.2828228460039  42.1260049122807 75.2020552046784  L 29.8948296296296 62.9526105263158  C 29.3753079922027 62.434365380117  28.6714168421053 62.0966604288499  27.9375288888889 62  L 11.3454675243665 62  C 8.28992748538012 62.0966604288499  5.78526222222222 59.7079141520468  6 56.6522943469786  L 6 11.1986227680312  C 5.78526222222222 8.14308272904484  8.28992748538012 5.55815961013645  11.3454675243665 6  L 68.9783781676413 6  C 72.0339979727095 5.55815961013645  74.3800624561404 8.14260397660819  74 11.1986227680312  L 74 56.652214502924  C 74.3800624561404 59.7078343079922  72.0339980506823 62.0965805847953  68.9783781676413 62  L 46.2576854580897 62  C 44.7274422612086 62.0965805847953  43.4871164132554 63.3522240155945  43.4871164132554 64.8824672124756  C 43.4871164132554 66.4130295516569  44.7274422612086 67.6681943079922  46.2576854580897 67  L 68.9782984795322 67  C 75.0900168421053 67.6681943079922  79.9516762573099 62.7633744249513  79.9516762573099 56.6522144249513  L 79.9516762573099 11.1986227680312  C 79.9516762573099 5.08698417153996  75.0900168421053 0.0779727095516591  68.9782984795322 0.0779727095516591  Z " stroke-width="2" stroke="#797979" fill="none" transform="matrix(1 0 0 1 147 127 )" mask="url(#clip35)" />
    <path d="M 19.7574571539961 44.1268935672515  C 23.776649122807 49.5826680701754  30.6418812475634 52.3493279532164  40.1621622612086 52.3493279532164  C 49.6292306432749 52.3493279532164  56.5053126705653 49.5795567251462  60.5986992592592 44.1181976608187  C 64.8384804678362 38.4611405068226  64.9409168810916 31.3396577777778  64.4157309161793 26.7730215204678  C 65.2651391812865 25.8787773879142  65.78777208577 24.6705227290448  65.78777208577 23.339567797271  C 65.78777208577 20.5846354775828  63.5549939961014 18.3519371539961  60.8000616764132 18.3519371539961  C 58.045687797271 18.3519371539961  55.8129097076023 20.5850343859649  55.8129097076023 23.339567797271  C 55.8129097076023 25.4450184015595  57.1181757504873 27.244197037037  58.9634666666667 27.9758512280702  C 59.309548460039 31.6050828849902  59.1269341130604 36.8590162183236  56.1489392592593 40.8150231578947  C 53.1557066666667 44.7914535672515  47.7770785964912 46.8072324366472  40.1622419493177 46.8072324366472  C 32.513419337232 46.8072324366472  27.154416920078 44.8067711500975  24.2343418323587 40.8603376998051  C 21.2685532163743 36.8533518908382  21.2585011306043 31.503045380117  21.6986424951267 27.9488060818714  C 23.5069158674464 27.2000790643275  24.7796320467836 25.4184519298246  24.7796320467836 23.3394880311891  C 24.7796320467836 20.584954619883  22.546853957115 18.3518573879142  19.792320545809 18.3518573879142  C 17.0379466666667 18.3518573879142  14.8046899025341 20.584954619883  14.8046899025341 23.3394880311891  C 14.8046899025341 24.7071413645224  15.3556445224171 25.9457121247563  16.2473355945419 26.8465778557505  C 15.6358287719298 31.3322384405458  15.5791856530214 38.4558750877193  19.7574571539961 44.1268935672515  Z " stroke-width="2" stroke="#797979" fill="none" transform="matrix(1 0 0 1 147 127 )" mask="url(#clip35)" />
  </g>
</svg>