<?xml version="1.0" encoding="utf-8"?>
<svg version="1.1" xmlns:xlink="http://www.w3.org/1999/xlink" width="30px" height="30px" xmlns="http://www.w3.org/2000/svg">
  <g transform="matrix(1 0 0 1 -22 -257 )">
    <path d="M 37 258  C 44.84 258  51 264.16  51 272  C 51 279.84  44.84 286  37 286  C 29.16 286  23 279.84  23 272  C 23 264.16  29.16 258  37 258  Z " fill-rule="nonzero" fill="#ffffff" stroke="none" />
    <path d="M 37 258  C 44.84 258  51 264.16  51 272  C 51 279.84  44.84 286  37 286  C 29.16 286  23 279.84  23 272  C 23 264.16  29.16 258  37 258  Z " stroke-width="2" stroke="#eeb834" fill="none" />
  </g>
</svg>