<?xml version="1.0" encoding="utf-8"?>
<svg version="1.1" xmlns:xlink="http://www.w3.org/1999/xlink" width="103px" height="20px" xmlns="http://www.w3.org/2000/svg">
  <g transform="matrix(1 0 0 1 -196 -706 )">
    <path d="M 291.3200931686 706.5  C 291.3200931686 706.5  292.738805273414 706.637739039302  292.738805273414 706.637739039302  C 292.738805273414 706.637739039302  298.467396633524 716  298.467396633524 716  C 298.467396633524 716  292.738805273414 725.362260960698  292.738805273414 725.362260960698  C 292.738805273414 725.362260960698  291.3200931686 725.5  291.3200931686 725.5  C 291.3200931686 725.5  196.5 725.5  196.5 725.5  C 196.5 725.5  196.5 706.5  196.5 706.5  C 196.5 706.5  291.3200931686 706.5  291.3200931686 706.5  Z " fill-rule="nonzero" fill="#ffffff" stroke="none" fill-opacity="0" />
    <path d="M 291.3200931686 706.5  C 291.3200931686 706.5  292.738805273414 706.637739039302  292.738805273414 706.637739039302  C 292.738805273414 706.637739039302  298.467396633524 716  298.467396633524 716  C 298.467396633524 716  292.738805273414 725.362260960698  292.738805273414 725.362260960698  C 292.738805273414 725.362260960698  291.3200931686 725.5  291.3200931686 725.5  C 291.3200931686 725.5  196.5 725.5  196.5 725.5  C 196.5 725.5  196.5 706.5  196.5 706.5  C 196.5 706.5  291.3200931686 706.5  291.3200931686 706.5  Z " stroke-width="1" stroke="#f19736" fill="none" />
  </g>
</svg>