<?xml version="1.0" encoding="utf-8"?>
<svg version="1.1" xmlns:xlink="http://www.w3.org/1999/xlink" width="18px" height="18px" xmlns="http://www.w3.org/2000/svg">
  <g transform="matrix(1 0 0 1 -20 -861 )">
    <path d="M 29 861  C 34.04 861  38 864.96  38 870  C 38 875.04  34.04 879  29 879  C 23.96 879  20 875.04  20 870  C 20 864.96  23.96 861  29 861  Z " fill-rule="nonzero" fill="#eeb834" stroke="none" />
    <path d="M 29 861.5  C 33.76 861.5  37.5 865.24  37.5 870  C 37.5 874.76  33.76 878.5  29 878.5  C 24.24 878.5  20.5 874.76  20.5 870  C 20.5 865.24  24.24 861.5  29 861.5  Z " stroke-width="1" stroke="#eeb834" fill="none" />
  </g>
</svg>