<?xml version="1.0" encoding="utf-8"?>
<svg version="1.1" xmlns:xlink="http://www.w3.org/1999/xlink" width="14px" height="14px" xmlns="http://www.w3.org/2000/svg">
  <defs>
    <mask fill="white" id="clip88">
      <path d="M 8.52808 0.568239999999999  C 8.21512 0.568239999999999  7.9612 0.82216  7.9612 1.13536  L 7.9612 3.44512  C 7.9612 3.75832  8.21512 4.01224  8.52832 4.01224  C 9.646 4.01224  10.25392 5.15848  10.33816 7.42096  L 8.52832 7.42096  C 8.21512 7.42096  7.9612 7.67512  7.9612 7.98808  L 7.9612 12.86488  C 7.9612 13.17808  8.21512 13.432  8.52832 13.432  L 13.35376 13.432  C 13.6672 13.432  13.92088 13.17784  13.92088 12.86488  L 13.92088 7.98808  C 13.92088 6.90352  13.81168 5.90824  13.5964 5.0296  C 13.3756 4.12864  13.03672 3.34096  12.58936 2.68816  C 12.12904 2.01736  11.55328 1.49104  10.87792 1.12432  C 10.198 0.755439999999999  9.40744 0.568239999999999  8.52808 0.568239999999999  Z M 2.4304 7.42096  C 2.34736 5.15848  1.74832 4.01224  0.646239999999998 4.01224  C 0.333040000000001 4.01224  0.0791199999999994 3.75808  0.0791199999999994 3.44512  L 0.0791199999999994 1.13536  C 0.0791199999999994 0.82216  0.333040000000001 0.56824  0.646239999999998 0.56824  C 1.52536 0.56824  2.31592 0.75544  2.99584 1.12432  C 3.6712 1.49104  4.2472 2.01736  4.70752 2.68816  C 5.15488 3.34096  5.49376 4.12864  5.71456 5.02984  C 5.9296 5.90872  6.0388 6.904  6.0388 7.98808  L 6.0388 12.86488  C 6.0388 13.17808  5.78488 13.432  5.47168 13.432  L 0.646479999999996 13.432  C 0.333279999999994 13.432  0.0793599999999943 13.17784  0.0793599999999943 12.86488  L 0.0793599999999943 7.98808  C 0.0793599999999943 7.67488  0.333279999999994 7.42096  0.646479999999996 7.42096  L 2.4304 7.42096  Z " fill-rule="evenodd" />
    </mask>
  </defs>
  <g transform="matrix(1 0 0 1 -251 -275 )">
    <path d="M 8.52808 0.568239999999999  C 8.21512 0.568239999999999  7.9612 0.82216  7.9612 1.13536  L 7.9612 3.44512  C 7.9612 3.75832  8.21512 4.01224  8.52832 4.01224  C 9.646 4.01224  10.25392 5.15848  10.33816 7.42096  L 8.52832 7.42096  C 8.21512 7.42096  7.9612 7.67512  7.9612 7.98808  L 7.9612 12.86488  C 7.9612 13.17808  8.21512 13.432  8.52832 13.432  L 13.35376 13.432  C 13.6672 13.432  13.92088 13.17784  13.92088 12.86488  L 13.92088 7.98808  C 13.92088 6.90352  13.81168 5.90824  13.5964 5.0296  C 13.3756 4.12864  13.03672 3.34096  12.58936 2.68816  C 12.12904 2.01736  11.55328 1.49104  10.87792 1.12432  C 10.198 0.755439999999999  9.40744 0.568239999999999  8.52808 0.568239999999999  Z M 2.4304 7.42096  C 2.34736 5.15848  1.74832 4.01224  0.646239999999998 4.01224  C 0.333040000000001 4.01224  0.0791199999999994 3.75808  0.0791199999999994 3.44512  L 0.0791199999999994 1.13536  C 0.0791199999999994 0.82216  0.333040000000001 0.56824  0.646239999999998 0.56824  C 1.52536 0.56824  2.31592 0.75544  2.99584 1.12432  C 3.6712 1.49104  4.2472 2.01736  4.70752 2.68816  C 5.15488 3.34096  5.49376 4.12864  5.71456 5.02984  C 5.9296 5.90872  6.0388 6.904  6.0388 7.98808  L 6.0388 12.86488  C 6.0388 13.17808  5.78488 13.432  5.47168 13.432  L 0.646479999999996 13.432  C 0.333279999999994 13.432  0.0793599999999943 13.17784  0.0793599999999943 12.86488  L 0.0793599999999943 7.98808  C 0.0793599999999943 7.67488  0.333279999999994 7.42096  0.646479999999996 7.42096  L 2.4304 7.42096  Z " fill-rule="nonzero" fill="#ffffff" stroke="none" transform="matrix(1 0 0 1 251 275 )" />
    <path d="M 8.52808 0.568239999999999  C 8.21512 0.568239999999999  7.9612 0.82216  7.9612 1.13536  L 7.9612 3.44512  C 7.9612 3.75832  8.21512 4.01224  8.52832 4.01224  C 9.646 4.01224  10.25392 5.15848  10.33816 7.42096  L 8.52832 7.42096  C 8.21512 7.42096  7.9612 7.67512  7.9612 7.98808  L 7.9612 12.86488  C 7.9612 13.17808  8.21512 13.432  8.52832 13.432  L 13.35376 13.432  C 13.6672 13.432  13.92088 13.17784  13.92088 12.86488  L 13.92088 7.98808  C 13.92088 6.90352  13.81168 5.90824  13.5964 5.0296  C 13.3756 4.12864  13.03672 3.34096  12.58936 2.68816  C 12.12904 2.01736  11.55328 1.49104  10.87792 1.12432  C 10.198 0.755439999999999  9.40744 0.568239999999999  8.52808 0.568239999999999  Z " stroke-width="2" stroke="#797979" fill="none" transform="matrix(1 0 0 1 251 275 )" mask="url(#clip88)" />
    <path d="M 2.4304 7.42096  C 2.34736 5.15848  1.74832 4.01224  0.646239999999998 4.01224  C 0.333040000000001 4.01224  0.0791199999999994 3.75808  0.0791199999999994 3.44512  L 0.0791199999999994 1.13536  C 0.0791199999999994 0.82216  0.333040000000001 0.56824  0.646239999999998 0.56824  C 1.52536 0.56824  2.31592 0.75544  2.99584 1.12432  C 3.6712 1.49104  4.2472 2.01736  4.70752 2.68816  C 5.15488 3.34096  5.49376 4.12864  5.71456 5.02984  C 5.9296 5.90872  6.0388 6.904  6.0388 7.98808  L 6.0388 12.86488  C 6.0388 13.17808  5.78488 13.432  5.47168 13.432  L 0.646479999999996 13.432  C 0.333279999999994 13.432  0.0793599999999943 13.17784  0.0793599999999943 12.86488  L 0.0793599999999943 7.98808  C 0.0793599999999943 7.67488  0.333279999999994 7.42096  0.646479999999996 7.42096  L 2.4304 7.42096  Z " stroke-width="2" stroke="#797979" fill="none" transform="matrix(1 0 0 1 251 275 )" mask="url(#clip88)" />
  </g>
</svg>