<?xml version="1.0" encoding="utf-8"?>
<svg version="1.1" xmlns:xlink="http://www.w3.org/1999/xlink" width="14px" height="14px" xmlns="http://www.w3.org/2000/svg">
  <defs>
    <mask fill="white" id="clip272">
      <path d="M 5.47192 0.568239999999999  C 5.78488 0.568239999999999  6.0388 0.82216  6.0388 1.13536  L 6.0388 3.44512  C 6.0388 3.75832  5.78488 4.01224  5.47168 4.01224  C 4.354 4.01224  3.74608 5.15848  3.66184 7.42096  L 5.47168 7.42096  C 5.78488 7.42096  6.0388 7.67512  6.0388 7.98808  L 6.0388 12.86488  C 6.0388 13.17808  5.78488 13.432  5.47168 13.432  L 0.64624 13.432  C 0.332800000000001 13.432  0.0791199999999996 13.17784  0.0791199999999996 12.86488  L 0.0791199999999996 7.98808  C 0.0791199999999996 6.90352  0.188319999999999 5.90824  0.4036 5.0296  C 0.6244 4.12864  0.96328 3.34096  1.41064 2.68816  C 1.87096 2.01736  2.44672 1.49104  3.12208 1.12432  C 3.802 0.755439999999999  4.59256 0.568239999999999  5.47192 0.568239999999999  Z M 11.5696 7.42096  C 11.65264 5.15848  12.25168 4.01224  13.35376 4.01224  C 13.66696 4.01224  13.92088 3.75808  13.92088 3.44512  L 13.92088 1.13536  C 13.92088 0.82216  13.66696 0.56824  13.35376 0.56824  C 12.47464 0.56824  11.68408 0.75544  11.00416 1.12432  C 10.3288 1.49104  9.7528 2.01736  9.29248 2.68816  C 8.84512 3.34096  8.50624 4.12864  8.28544 5.02984  C 8.0704 5.90872  7.9612 6.904  7.9612 7.98808  L 7.9612 12.86488  C 7.9612 13.17808  8.21512 13.432  8.52832 13.432  L 13.35352 13.432  C 13.66672 13.432  13.92064 13.17784  13.92064 12.86488  L 13.92064 7.98808  C 13.92064 7.67488  13.66672 7.42096  13.35352 7.42096  L 11.5696 7.42096  Z " fill-rule="evenodd" />
    </mask>
  </defs>
  <g transform="matrix(1 0 0 1 -106 -275 )">
    <path d="M 5.47192 0.568239999999999  C 5.78488 0.568239999999999  6.0388 0.82216  6.0388 1.13536  L 6.0388 3.44512  C 6.0388 3.75832  5.78488 4.01224  5.47168 4.01224  C 4.354 4.01224  3.74608 5.15848  3.66184 7.42096  L 5.47168 7.42096  C 5.78488 7.42096  6.0388 7.67512  6.0388 7.98808  L 6.0388 12.86488  C 6.0388 13.17808  5.78488 13.432  5.47168 13.432  L 0.64624 13.432  C 0.332800000000001 13.432  0.0791199999999996 13.17784  0.0791199999999996 12.86488  L 0.0791199999999996 7.98808  C 0.0791199999999996 6.90352  0.188319999999999 5.90824  0.4036 5.0296  C 0.6244 4.12864  0.96328 3.34096  1.41064 2.68816  C 1.87096 2.01736  2.44672 1.49104  3.12208 1.12432  C 3.802 0.755439999999999  4.59256 0.568239999999999  5.47192 0.568239999999999  Z M 11.5696 7.42096  C 11.65264 5.15848  12.25168 4.01224  13.35376 4.01224  C 13.66696 4.01224  13.92088 3.75808  13.92088 3.44512  L 13.92088 1.13536  C 13.92088 0.82216  13.66696 0.56824  13.35376 0.56824  C 12.47464 0.56824  11.68408 0.75544  11.00416 1.12432  C 10.3288 1.49104  9.7528 2.01736  9.29248 2.68816  C 8.84512 3.34096  8.50624 4.12864  8.28544 5.02984  C 8.0704 5.90872  7.9612 6.904  7.9612 7.98808  L 7.9612 12.86488  C 7.9612 13.17808  8.21512 13.432  8.52832 13.432  L 13.35352 13.432  C 13.66672 13.432  13.92064 13.17784  13.92064 12.86488  L 13.92064 7.98808  C 13.92064 7.67488  13.66672 7.42096  13.35352 7.42096  L 11.5696 7.42096  Z " fill-rule="nonzero" fill="#ffffff" stroke="none" transform="matrix(1 0 0 1 106 275 )" />
    <path d="M 5.47192 0.568239999999999  C 5.78488 0.568239999999999  6.0388 0.82216  6.0388 1.13536  L 6.0388 3.44512  C 6.0388 3.75832  5.78488 4.01224  5.47168 4.01224  C 4.354 4.01224  3.74608 5.15848  3.66184 7.42096  L 5.47168 7.42096  C 5.78488 7.42096  6.0388 7.67512  6.0388 7.98808  L 6.0388 12.86488  C 6.0388 13.17808  5.78488 13.432  5.47168 13.432  L 0.64624 13.432  C 0.332800000000001 13.432  0.0791199999999996 13.17784  0.0791199999999996 12.86488  L 0.0791199999999996 7.98808  C 0.0791199999999996 6.90352  0.188319999999999 5.90824  0.4036 5.0296  C 0.6244 4.12864  0.96328 3.34096  1.41064 2.68816  C 1.87096 2.01736  2.44672 1.49104  3.12208 1.12432  C 3.802 0.755439999999999  4.59256 0.568239999999999  5.47192 0.568239999999999  Z " stroke-width="2" stroke="#797979" fill="none" transform="matrix(1 0 0 1 106 275 )" mask="url(#clip272)" />
    <path d="M 11.5696 7.42096  C 11.65264 5.15848  12.25168 4.01224  13.35376 4.01224  C 13.66696 4.01224  13.92088 3.75808  13.92088 3.44512  L 13.92088 1.13536  C 13.92088 0.82216  13.66696 0.56824  13.35376 0.56824  C 12.47464 0.56824  11.68408 0.75544  11.00416 1.12432  C 10.3288 1.49104  9.7528 2.01736  9.29248 2.68816  C 8.84512 3.34096  8.50624 4.12864  8.28544 5.02984  C 8.0704 5.90872  7.9612 6.904  7.9612 7.98808  L 7.9612 12.86488  C 7.9612 13.17808  8.21512 13.432  8.52832 13.432  L 13.35352 13.432  C 13.66672 13.432  13.92064 13.17784  13.92064 12.86488  L 13.92064 7.98808  C 13.92064 7.67488  13.66672 7.42096  13.35352 7.42096  L 11.5696 7.42096  Z " stroke-width="2" stroke="#797979" fill="none" transform="matrix(1 0 0 1 106 275 )" mask="url(#clip272)" />
  </g>
</svg>