<?xml version="1.0" standalone="no"?><!DOCTYPE svg PUBLIC "-//W3C//DTD SVG 1.1//EN" "http://www.w3.org/Graphics/SVG/1.1/DTD/svg11.dtd"><svg t="1495442656215" class="icon" style="" viewBox="0 0 1024 1024" version="1.1" xmlns="http://www.w3.org/2000/svg" p-id="4379" xmlns:xlink="http://www.w3.org/1999/xlink" width="24" height="24"><defs><style type="text/css"></style></defs><path d="M554.666667 85.333333 864.348463 85.333333C928.957423 85.333333 981.333333 137.811473 981.333333 202.318203L981.333333 907.01513C981.333333 971.62409 928.855194 1024 864.348463 1024L159.651536 1024C95.042577 1024 42.666667 971.52186 42.666667 907.01513L42.666667 384 128 384 128 900.581427C128 921.182933 145.051343 938.666667 166.085239 938.666667L857.914761 938.666667C878.516267 938.666667 896 921.615326 896 900.581427L896 208.751906C896 188.150401 878.948659 170.666667 857.914761 170.666667L554.666667 170.666667 554.666667 85.333333ZM183.068848 285.52629C200.63824 303.046792 229.116154 303.046792 246.685547 285.52629L456.160286 76.59166C473.724348 59.066176 473.724348 30.660879 456.160286 13.140377 438.590894-4.380126 410.11298-4.380126 392.543587 13.140377L214.879861 190.349366 119.456413 95.171445C101.88702 77.650943 73.409106 77.650943 55.839714 95.171445 38.275651 112.696929 38.275651 141.102226 55.839714 158.622728L183.068848 285.52629ZM213.333333 768C213.333333 744.435853 232.249736 725.333333 256.39974 725.333333L340.933594 725.333333C364.718513 725.333333 384 744.271565 384 768 384 791.564147 365.083598 810.666667 340.933594 810.666667L256.39974 810.666667C232.61482 810.666667 213.333333 791.728435 213.333333 768ZM213.333333 554.666667C213.333333 531.102519 232.249736 512 256.39974 512L340.933594 512C364.718513 512 384 530.938231 384 554.666667 384 578.230814 365.083598 597.333333 340.933594 597.333333L256.39974 597.333333C232.61482 597.333333 213.333333 578.395102 213.333333 554.666667ZM469.333333 768C469.333333 744.435853 488.662882 725.333333 511.873284 725.333333L768.126716 725.333333C791.620881 725.333333 810.666667 744.271565 810.666667 768 810.666667 791.564147 791.337118 810.666667 768.126716 810.666667L511.873284 810.666667C488.379119 810.666667 469.333333 791.728435 469.333333 768ZM469.333333 554.666667C469.333333 531.102519 488.662882 512 511.873284 512L768.126716 512C791.620881 512 810.666667 530.938231 810.666667 554.666667 810.666667 578.230814 791.337118 597.333333 768.126716 597.333333L511.873284 597.333333C488.379119 597.333333 469.333333 578.395102 469.333333 554.666667ZM469.333333 341.333333C469.333333 317.769184 488.662882 298.666667 511.873284 298.666667L768.126716 298.666667C791.620881 298.666667 810.666667 317.604899 810.666667 341.333333 810.666667 364.897483 791.337118 384 768.126716 384L511.873284 384C488.379119 384 469.333333 365.061768 469.333333 341.333333Z" p-id="4380" fill="#ffffff"></path></svg>