<?xml version="1.0" encoding="utf-8"?>
<svg version="1.1" xmlns:xlink="http://www.w3.org/1999/xlink" width="18px" height="18px" xmlns="http://www.w3.org/2000/svg">
  <g transform="matrix(1 0 0 1 -61 -350 )">
    <path d="M 70 350  C 75.04 350  79 353.96  79 359  C 79 364.04  75.04 368  70 368  C 64.96 368  61 364.04  61 359  C 61 353.96  64.96 350  70 350  Z " fill-rule="nonzero" fill="#eeb834" stroke="none" />
    <path d="M 70 350.5  C 74.76 350.5  78.5 354.24  78.5 359  C 78.5 363.76  74.76 367.5  70 367.5  C 65.24 367.5  61.5 363.76  61.5 359  C 61.5 354.24  65.24 350.5  70 350.5  Z " stroke-width="1" stroke="#eeb834" fill="none" />
  </g>
</svg>