<?xml version="1.0" encoding="utf-8"?>
<svg version="1.1" xmlns:xlink="http://www.w3.org/1999/xlink" width="15px" height="15px" xmlns="http://www.w3.org/2000/svg">
  <g transform="matrix(1 0 0 1 -36 -351 )">
    <path d="M 43.5 354  C 46.02 354  48 355.98  48 358.5  C 48 361.02  46.02 363  43.5 363  C 40.98 363  39 361.02  39 358.5  C 39 355.98  40.98 354  43.5 354  Z " fill-rule="nonzero" fill="#eeb834" stroke="none" />
    <path d="M 43.5 353  C 46.58 353  49 355.42  49 358.5  C 49 361.58  46.58 364  43.5 364  C 40.42 364  38 361.58  38 358.5  C 38 355.42  40.42 353  43.5 353  Z " stroke-width="4" stroke="#eeb834" fill="none" />
  </g>
</svg>