<?xml version="1.0" encoding="utf-8"?>
<svg version="1.1" xmlns:xlink="http://www.w3.org/1999/xlink" width="20px" height="20px" xmlns="http://www.w3.org/2000/svg">
  <defs>
    <mask fill="white" id="clip581">
      <path d="M 17.0409765625 1.35197265625  L 15.3654296875 1.35197265625  L 15.3654296875 2.69521484375  C 15.3654296875 3.20599609375  14.89232421875 3.62146484375  14.31015625 3.62146484375  C 13.72845703125 3.62146484375  13.255 3.20599609375  13.255 2.69521484375  L 13.255 1.35197265625  L 6.74501953125 1.35197265625  L 6.74501953125 2.69521484375  C 6.74501953125 3.20599609375  6.271484375 3.62146484375  5.68982421875 3.62146484375  C 5.10767578125 3.62146484375  4.63458984375 3.20599609375  4.63458984375 2.69521484375  L 4.63458984375 1.35197265625  L 2.9590234375 1.35197265625  C 1.82865234375 1.35197265625  0.909082031250001 2.158828125  0.909082031250001 3.15021484375  L 0.909082031250001 17.659921875  C 0.909082031250001 18.651328125  1.8286328125 19.45857421875  2.9590234375 19.45857421875  L 17.04099609375 19.45857421875  C 18.17134765625 19.45857421875  19.09091796875 18.651328125  19.09091796875 17.659921875  L 19.09091796875 3.15025390625  C 19.09087890625 2.158828125  18.171328125 1.35197265625  17.0409765625 1.35197265625  Z M 17.75662109375 6.44228515625  L 17.75662109375 17.38595703125  C 17.75662109375 17.70615234375  17.43591796875 17.96671875  17.04099609375 18  L 2.95900390625 18  C 2.5640234375 17.96671875  2.24337890625 17.70615234375  2.24337890625 17.38595703125  L 2.24337890625 6.44228515625  L 17.75662109375 6.44228515625  Z M 5.70736328125 3.2673828125  C 5.9866015625 3.2673828125  6.21212890625 3.0938671875  6.21212890625 2.87966796875  L 6.21212890625 0.45232421875  C 6.21212890625 0.238125  5.9865234375 0.0646289062499998  5.70736328125 0.0646289062499998  C 5.428125 0.0646289062499998  5.20201171875 0.23814453125  5.20201171875 0.45232421875  L 5.20201171875 2.87966796875  C 5.20201171875 3.09384765625  5.428125 3.2673828125  5.70736328125 3.2673828125  Z M 13.78787109375 2.87966796875  C 13.78791015625 3.09384765625  14.0134375 3.2673828125  14.29259765625 3.2673828125  C 14.57181640625 3.2673828125  14.79798828125 3.0938671875  14.79798828125 2.87966796875  L 14.79798828125 0.45232421875  C 14.79798828125 0.238125  14.57181640625 0.0646289062499998  14.29259765625 0.0646289062499998  C 14.0133984375 0.0646289062499998  13.78787109375 0.23814453125  13.78787109375 0.45232421875  L 13.78787109375 2.87966796875  Z M 14.650390625 8.62580078125  C 14.91451171875 8.93029296875  14.91451171875 9.4239453125  14.65041015625 9.72841796875  L 9.69439453125 15.4418359375  C 9.43029296875 15.74630859375  9.00208984375 15.74630859375  8.73798828125 15.4418359375  L 5.95564453125 12.23431640625  C 5.69154296875 11.92984375  5.69154296875 11.436171875  5.95564453125 11.13171875  C 6.219765625 10.82724609375  6.64796875 10.82724609375  6.9120703125 11.13171875  L 9.21619140625 13.78794921875  L 13.693984375 8.62580078125  C 13.9580859375 8.32134765625  14.3862890625 8.32134765625  14.650390625 8.62580078125  Z " fill-rule="evenodd" />
    </mask>
  </defs>
  <g transform="matrix(1 0 0 1 -302 -238 )">
    <path d="M 17.0409765625 1.35197265625  L 15.3654296875 1.35197265625  L 15.3654296875 2.69521484375  C 15.3654296875 3.20599609375  14.89232421875 3.62146484375  14.31015625 3.62146484375  C 13.72845703125 3.62146484375  13.255 3.20599609375  13.255 2.69521484375  L 13.255 1.35197265625  L 6.74501953125 1.35197265625  L 6.74501953125 2.69521484375  C 6.74501953125 3.20599609375  6.271484375 3.62146484375  5.68982421875 3.62146484375  C 5.10767578125 3.62146484375  4.63458984375 3.20599609375  4.63458984375 2.69521484375  L 4.63458984375 1.35197265625  L 2.9590234375 1.35197265625  C 1.82865234375 1.35197265625  0.909082031250001 2.158828125  0.909082031250001 3.15021484375  L 0.909082031250001 17.659921875  C 0.909082031250001 18.651328125  1.8286328125 19.45857421875  2.9590234375 19.45857421875  L 17.04099609375 19.45857421875  C 18.17134765625 19.45857421875  19.09091796875 18.651328125  19.09091796875 17.659921875  L 19.09091796875 3.15025390625  C 19.09087890625 2.158828125  18.171328125 1.35197265625  17.0409765625 1.35197265625  Z M 17.75662109375 6.44228515625  L 17.75662109375 17.38595703125  C 17.75662109375 17.70615234375  17.43591796875 17.96671875  17.04099609375 18  L 2.95900390625 18  C 2.5640234375 17.96671875  2.24337890625 17.70615234375  2.24337890625 17.38595703125  L 2.24337890625 6.44228515625  L 17.75662109375 6.44228515625  Z M 5.70736328125 3.2673828125  C 5.9866015625 3.2673828125  6.21212890625 3.0938671875  6.21212890625 2.87966796875  L 6.21212890625 0.45232421875  C 6.21212890625 0.238125  5.9865234375 0.0646289062499998  5.70736328125 0.0646289062499998  C 5.428125 0.0646289062499998  5.20201171875 0.23814453125  5.20201171875 0.45232421875  L 5.20201171875 2.87966796875  C 5.20201171875 3.09384765625  5.428125 3.2673828125  5.70736328125 3.2673828125  Z M 13.78787109375 2.87966796875  C 13.78791015625 3.09384765625  14.0134375 3.2673828125  14.29259765625 3.2673828125  C 14.57181640625 3.2673828125  14.79798828125 3.0938671875  14.79798828125 2.87966796875  L 14.79798828125 0.45232421875  C 14.79798828125 0.238125  14.57181640625 0.0646289062499998  14.29259765625 0.0646289062499998  C 14.0133984375 0.0646289062499998  13.78787109375 0.23814453125  13.78787109375 0.45232421875  L 13.78787109375 2.87966796875  Z M 14.650390625 8.62580078125  C 14.91451171875 8.93029296875  14.91451171875 9.4239453125  14.65041015625 9.72841796875  L 9.69439453125 15.4418359375  C 9.43029296875 15.74630859375  9.00208984375 15.74630859375  8.73798828125 15.4418359375  L 5.95564453125 12.23431640625  C 5.69154296875 11.92984375  5.69154296875 11.436171875  5.95564453125 11.13171875  C 6.219765625 10.82724609375  6.64796875 10.82724609375  6.9120703125 11.13171875  L 9.21619140625 13.78794921875  L 13.693984375 8.62580078125  C 13.9580859375 8.32134765625  14.3862890625 8.32134765625  14.650390625 8.62580078125  Z " fill-rule="nonzero" fill="#ffa847" stroke="none" transform="matrix(1 0 0 1 302 238 )" />
    <path d="M 17.0409765625 1.35197265625  L 15.3654296875 1.35197265625  L 15.3654296875 2.69521484375  C 15.3654296875 3.20599609375  14.89232421875 3.62146484375  14.31015625 3.62146484375  C 13.72845703125 3.62146484375  13.255 3.20599609375  13.255 2.69521484375  L 13.255 1.35197265625  L 6.74501953125 1.35197265625  L 6.74501953125 2.69521484375  C 6.74501953125 3.20599609375  6.271484375 3.62146484375  5.68982421875 3.62146484375  C 5.10767578125 3.62146484375  4.63458984375 3.20599609375  4.63458984375 2.69521484375  L 4.63458984375 1.35197265625  L 2.9590234375 1.35197265625  C 1.82865234375 1.35197265625  0.909082031250001 2.158828125  0.909082031250001 3.15021484375  L 0.909082031250001 17.659921875  C 0.909082031250001 18.651328125  1.8286328125 19.45857421875  2.9590234375 19.45857421875  L 17.04099609375 19.45857421875  C 18.17134765625 19.45857421875  19.09091796875 18.651328125  19.09091796875 17.659921875  L 19.09091796875 3.15025390625  C 19.09087890625 2.158828125  18.171328125 1.35197265625  17.0409765625 1.35197265625  Z " stroke-width="2" stroke="#797979" fill="none" transform="matrix(1 0 0 1 302 238 )" mask="url(#clip581)" />
    <path d="M 17.75662109375 6.44228515625  L 17.75662109375 17.38595703125  C 17.75662109375 17.70615234375  17.43591796875 17.96671875  17.04099609375 18  L 2.95900390625 18  C 2.5640234375 17.96671875  2.24337890625 17.70615234375  2.24337890625 17.38595703125  L 2.24337890625 6.44228515625  L 17.75662109375 6.44228515625  Z " stroke-width="2" stroke="#797979" fill="none" transform="matrix(1 0 0 1 302 238 )" mask="url(#clip581)" />
    <path d="M 5.70736328125 3.2673828125  C 5.9866015625 3.2673828125  6.21212890625 3.0938671875  6.21212890625 2.87966796875  L 6.21212890625 0.45232421875  C 6.21212890625 0.238125  5.9865234375 0.0646289062499998  5.70736328125 0.0646289062499998  C 5.428125 0.0646289062499998  5.20201171875 0.23814453125  5.20201171875 0.45232421875  L 5.20201171875 2.87966796875  C 5.20201171875 3.09384765625  5.428125 3.2673828125  5.70736328125 3.2673828125  Z " stroke-width="2" stroke="#797979" fill="none" transform="matrix(1 0 0 1 302 238 )" mask="url(#clip581)" />
    <path d="M 13.78787109375 2.87966796875  C 13.78791015625 3.09384765625  14.0134375 3.2673828125  14.29259765625 3.2673828125  C 14.57181640625 3.2673828125  14.79798828125 3.0938671875  14.79798828125 2.87966796875  L 14.79798828125 0.45232421875  C 14.79798828125 0.238125  14.57181640625 0.0646289062499998  14.29259765625 0.0646289062499998  C 14.0133984375 0.0646289062499998  13.78787109375 0.23814453125  13.78787109375 0.45232421875  L 13.78787109375 2.87966796875  Z " stroke-width="2" stroke="#797979" fill="none" transform="matrix(1 0 0 1 302 238 )" mask="url(#clip581)" />
    <path d="M 14.650390625 8.62580078125  C 14.91451171875 8.93029296875  14.91451171875 9.4239453125  14.65041015625 9.72841796875  L 9.69439453125 15.4418359375  C 9.43029296875 15.74630859375  9.00208984375 15.74630859375  8.73798828125 15.4418359375  L 5.95564453125 12.23431640625  C 5.69154296875 11.92984375  5.69154296875 11.436171875  5.95564453125 11.13171875  C 6.219765625 10.82724609375  6.64796875 10.82724609375  6.9120703125 11.13171875  L 9.21619140625 13.78794921875  L 13.693984375 8.62580078125  C 13.9580859375 8.32134765625  14.3862890625 8.32134765625  14.650390625 8.62580078125  Z " stroke-width="2" stroke="#797979" fill="none" transform="matrix(1 0 0 1 302 238 )" mask="url(#clip581)" />
  </g>
</svg>