<?xml version="1.0" encoding="utf-8"?>
<svg version="1.1" xmlns:xlink="http://www.w3.org/1999/xlink" width="7px" height="7px" xmlns="http://www.w3.org/2000/svg">
  <defs>
    <mask fill="white" id="clip121">
      <path d="M 3.142807046875 2.601302328125  C 3.5923526640625 2.181970625  4.17143978125 1.9316523359375  4.69068503125 1.9316523359375  C 4.8461540078125 1.9316523359375  5.134330421875 1.9571710390625  5.31764565625 2.12817509375  C 5.35942703125 2.1670527265625  5.4862582421875 2.285196640625  5.4862582421875 2.5770547578125  C 5.4862582421875 2.904816546875  5.3083635625 3.42075471875  4.80960128125 3.88591934375  C 4.1986384609375 4.454981515625  3.19128015625 4.8842904453125  2.4661020859375 4.8842904453125  C 2.25625975 4.8842904453125  2.157970375 4.846444109375  2.1413729453125 4.846444109375  C 2.1400537890625 4.846444109375  2.139358234375 4.846731921875  2.139358234375 4.846731921875  C 2.0052356640625 4.5738209609375  2.298760703125 3.388208796875  3.142807046875 2.601302328125  Z M 4.69068503125 0.54412109375  C 3.8539780234375 0.54412109375  2.9309499765625 0.902030421875  2.196465859375 1.5859747109375  C 0.934078000000001 2.7630006875  0.197651101562501 4.933073375  1.179801484375 5.84846075  C 1.4958961328125 6.1429810625  1.9514859296875 6.271797734375  2.466102109375 6.271797734375  C 3.5511709140625 6.271797734375  4.8985606328125 5.6993778359375  5.755870515625 4.901222984375  C 7.017586796875 3.724508796875  7.2460412734375 2.028234875  6.2632193359375 1.1128475  C 5.8522171328125 0.72968328125  5.2936609375 0.5437853046875  4.69068503125 0.54412109375  Z " fill-rule="evenodd" />
    </mask>
  </defs>
  <g transform="matrix(1 0 0 1 -228 -238 )">
    <path d="M 3.142807046875 2.601302328125  C 3.5923526640625 2.181970625  4.17143978125 1.9316523359375  4.69068503125 1.9316523359375  C 4.8461540078125 1.9316523359375  5.134330421875 1.9571710390625  5.31764565625 2.12817509375  C 5.35942703125 2.1670527265625  5.4862582421875 2.285196640625  5.4862582421875 2.5770547578125  C 5.4862582421875 2.904816546875  5.3083635625 3.42075471875  4.80960128125 3.88591934375  C 4.1986384609375 4.454981515625  3.19128015625 4.8842904453125  2.4661020859375 4.8842904453125  C 2.25625975 4.8842904453125  2.157970375 4.846444109375  2.1413729453125 4.846444109375  C 2.1400537890625 4.846444109375  2.139358234375 4.846731921875  2.139358234375 4.846731921875  C 2.0052356640625 4.5738209609375  2.298760703125 3.388208796875  3.142807046875 2.601302328125  Z M 4.69068503125 0.54412109375  C 3.8539780234375 0.54412109375  2.9309499765625 0.902030421875  2.196465859375 1.5859747109375  C 0.934078000000001 2.7630006875  0.197651101562501 4.933073375  1.179801484375 5.84846075  C 1.4958961328125 6.1429810625  1.9514859296875 6.271797734375  2.466102109375 6.271797734375  C 3.5511709140625 6.271797734375  4.8985606328125 5.6993778359375  5.755870515625 4.901222984375  C 7.017586796875 3.724508796875  7.2460412734375 2.028234875  6.2632193359375 1.1128475  C 5.8522171328125 0.72968328125  5.2936609375 0.5437853046875  4.69068503125 0.54412109375  Z " fill-rule="nonzero" fill="#ffa847" stroke="none" transform="matrix(1 0 0 1 228 238 )" />
    <path d="M 3.142807046875 2.601302328125  C 3.5923526640625 2.181970625  4.17143978125 1.9316523359375  4.69068503125 1.9316523359375  C 4.8461540078125 1.9316523359375  5.134330421875 1.9571710390625  5.31764565625 2.12817509375  C 5.35942703125 2.1670527265625  5.4862582421875 2.285196640625  5.4862582421875 2.5770547578125  C 5.4862582421875 2.904816546875  5.3083635625 3.42075471875  4.80960128125 3.88591934375  C 4.1986384609375 4.454981515625  3.19128015625 4.8842904453125  2.4661020859375 4.8842904453125  C 2.25625975 4.8842904453125  2.157970375 4.846444109375  2.1413729453125 4.846444109375  C 2.1400537890625 4.846444109375  2.139358234375 4.846731921875  2.139358234375 4.846731921875  C 2.0052356640625 4.5738209609375  2.298760703125 3.388208796875  3.142807046875 2.601302328125  Z " stroke-width="2" stroke="#797979" fill="none" transform="matrix(1 0 0 1 228 238 )" mask="url(#clip121)" />
    <path d="M 4.69068503125 0.54412109375  C 3.8539780234375 0.54412109375  2.9309499765625 0.902030421875  2.196465859375 1.5859747109375  C 0.934078000000001 2.7630006875  0.197651101562501 4.933073375  1.179801484375 5.84846075  C 1.4958961328125 6.1429810625  1.9514859296875 6.271797734375  2.466102109375 6.271797734375  C 3.5511709140625 6.271797734375  4.8985606328125 5.6993778359375  5.755870515625 4.901222984375  C 7.017586796875 3.724508796875  7.2460412734375 2.028234875  6.2632193359375 1.1128475  C 5.8522171328125 0.72968328125  5.2936609375 0.5437853046875  4.69068503125 0.54412109375  Z " stroke-width="2" stroke="#797979" fill="none" transform="matrix(1 0 0 1 228 238 )" mask="url(#clip121)" />
  </g>
</svg>