<?xml version="1.0" encoding="utf-8"?>
<svg version="1.1" xmlns:xlink="http://www.w3.org/1999/xlink" width="7px" height="7px" xmlns="http://www.w3.org/2000/svg">
  <defs>
    <mask fill="white" id="clip250">
      <path d="M 1.9735768125 2.1281990703125  C 2.1575396484375 1.9571710390625  2.4450445078125 1.9316523359375  2.5997939296875 1.9316523359375  C 3.119135109375 1.9316523359375  3.6981502734375 2.181970625  4.1484394453125 2.600990515625  C 4.9991055703125 3.393844953125  5.289944296875 4.590465640625  5.1723951796875 4.82754490625  C 5.1710760234375 4.828168484375  5.0807975390625 4.884314421875  4.82509640625 4.884314421875  C 4.0999183359375 4.884314421875  3.093231609375 4.4550054921875  2.4829163671875 3.8859433203125  C 1.983530484375 3.42075471875  1.805587828125 2.9044807578125  1.805587828125 2.576790921875  C 1.805587828125 2.28495678125  1.9317714375 2.1667409375  1.9735768125 2.1281990703125  Z M 2.5997939296875 0.54412109375  C 1.9968180234375 0.54412109375  1.4390293359375 0.72968328125  1.027283625 1.1128475  C 0.0457808437499994 2.028234875  0.274235320312499 3.724508796875  1.53664715625 4.901222984375  C 2.39261390625 5.6993778359375  3.740003625 6.271797734375  4.8250724296875 6.271797734375  C 5.339712609375 6.271797734375  5.7953023828125 6.1429570859375  6.1113730546875 5.84846075  C 7.0942189921875 4.933073375  6.3570485625 2.7630246640625  5.0946846796875 1.5859747109375  C 4.3602245390625 0.902030421875  3.437172515625 0.54412109375  2.5997939296875 0.54412109375  Z " fill-rule="evenodd" />
    </mask>
  </defs>
  <g transform="matrix(1 0 0 1 -223 -238 )">
    <path d="M 1.9735768125 2.1281990703125  C 2.1575396484375 1.9571710390625  2.4450445078125 1.9316523359375  2.5997939296875 1.9316523359375  C 3.119135109375 1.9316523359375  3.6981502734375 2.181970625  4.1484394453125 2.600990515625  C 4.9991055703125 3.393844953125  5.289944296875 4.590465640625  5.1723951796875 4.82754490625  C 5.1710760234375 4.828168484375  5.0807975390625 4.884314421875  4.82509640625 4.884314421875  C 4.0999183359375 4.884314421875  3.093231609375 4.4550054921875  2.4829163671875 3.8859433203125  C 1.983530484375 3.42075471875  1.805587828125 2.9044807578125  1.805587828125 2.576790921875  C 1.805587828125 2.28495678125  1.9317714375 2.1667409375  1.9735768125 2.1281990703125  Z M 2.5997939296875 0.54412109375  C 1.9968180234375 0.54412109375  1.4390293359375 0.72968328125  1.027283625 1.1128475  C 0.0457808437499994 2.028234875  0.274235320312499 3.724508796875  1.53664715625 4.901222984375  C 2.39261390625 5.6993778359375  3.740003625 6.271797734375  4.8250724296875 6.271797734375  C 5.339712609375 6.271797734375  5.7953023828125 6.1429570859375  6.1113730546875 5.84846075  C 7.0942189921875 4.933073375  6.3570485625 2.7630246640625  5.0946846796875 1.5859747109375  C 4.3602245390625 0.902030421875  3.437172515625 0.54412109375  2.5997939296875 0.54412109375  Z " fill-rule="nonzero" fill="#ffa847" stroke="none" transform="matrix(1 0 0 1 223 238 )" />
    <path d="M 1.9735768125 2.1281990703125  C 2.1575396484375 1.9571710390625  2.4450445078125 1.9316523359375  2.5997939296875 1.9316523359375  C 3.119135109375 1.9316523359375  3.6981502734375 2.181970625  4.1484394453125 2.600990515625  C 4.9991055703125 3.393844953125  5.289944296875 4.590465640625  5.1723951796875 4.82754490625  C 5.1710760234375 4.828168484375  5.0807975390625 4.884314421875  4.82509640625 4.884314421875  C 4.0999183359375 4.884314421875  3.093231609375 4.4550054921875  2.4829163671875 3.8859433203125  C 1.983530484375 3.42075471875  1.805587828125 2.9044807578125  1.805587828125 2.576790921875  C 1.805587828125 2.28495678125  1.9317714375 2.1667409375  1.9735768125 2.1281990703125  Z " stroke-width="2" stroke="#797979" fill="none" transform="matrix(1 0 0 1 223 238 )" mask="url(#clip250)" />
    <path d="M 2.5997939296875 0.54412109375  C 1.9968180234375 0.54412109375  1.4390293359375 0.72968328125  1.027283625 1.1128475  C 0.0457808437499994 2.028234875  0.274235320312499 3.724508796875  1.53664715625 4.901222984375  C 2.39261390625 5.6993778359375  3.740003625 6.271797734375  4.8250724296875 6.271797734375  C 5.339712609375 6.271797734375  5.7953023828125 6.1429570859375  6.1113730546875 5.84846075  C 7.0942189921875 4.933073375  6.3570485625 2.7630246640625  5.0946846796875 1.5859747109375  C 4.3602245390625 0.902030421875  3.437172515625 0.54412109375  2.5997939296875 0.54412109375  Z " stroke-width="2" stroke="#797979" fill="none" transform="matrix(1 0 0 1 223 238 )" mask="url(#clip250)" />
  </g>
</svg>