<?xml version="1.0" encoding="utf-8"?>
<svg version="1.1" xmlns:xlink="http://www.w3.org/1999/xlink" width="9px" height="7px" xmlns="http://www.w3.org/2000/svg">
  <defs>
    <mask fill="white" id="clip251">
      <path d="M 0.8259018984375 6.711621515625  L 8.305993078125 6.711621515625  L 8.305993078125 1.9517606953125  C 8.305993078125 1.203731859375  7.693735078125 0.5918347265625  6.9459873984375 0.5918347265625  L 0.8259018984375 0.5918347265625  L 0.8259018984375 6.711621515625  Z " fill-rule="evenodd" />
    </mask>
  </defs>
  <g transform="matrix(1 0 0 1 -229 -243 )">
    <path d="M 0.8259018984375 6.711621515625  L 8.305993078125 6.711621515625  L 8.305993078125 1.9517606953125  C 8.305993078125 1.203731859375  7.693735078125 0.5918347265625  6.9459873984375 0.5918347265625  L 0.8259018984375 0.5918347265625  L 0.8259018984375 6.711621515625  Z " fill-rule="nonzero" fill="#ffa847" stroke="none" transform="matrix(1 0 0 1 229 243 )" />
    <path d="M 0.8259018984375 6.711621515625  L 8.305993078125 6.711621515625  L 8.305993078125 1.9517606953125  C 8.305993078125 1.203731859375  7.693735078125 0.5918347265625  6.9459873984375 0.5918347265625  L 0.8259018984375 0.5918347265625  L 0.8259018984375 6.711621515625  Z " stroke-width="2" stroke="#797979" fill="none" transform="matrix(1 0 0 1 229 243 )" mask="url(#clip251)" />
  </g>
</svg>