<?xml version="1.0" encoding="utf-8"?>
<svg version="1.1" xmlns:xlink="http://www.w3.org/1999/xlink" width="9px" height="7px" xmlns="http://www.w3.org/2000/svg">
  <defs>
    <mask fill="white" id="clip124">
      <path d="M 8.3059691015625 0.0715474843749995  L 0.8259018984375 0.0715474843749995  L 0.8259018984375 6.1913822265625  L 6.945963421875 6.1913822265625  C 7.6937111015625 6.1913822265625  8.3059691015625 5.5794371171875  8.3059691015625 4.83140828125  L 8.3059691015625 0.0715474843749995  Z " fill-rule="evenodd" />
    </mask>
  </defs>
  <g transform="matrix(1 0 0 1 -229 -251 )">
    <path d="M 8.3059691015625 0.0715474843749995  L 0.8259018984375 0.0715474843749995  L 0.8259018984375 6.1913822265625  L 6.945963421875 6.1913822265625  C 7.6937111015625 6.1913822265625  8.3059691015625 5.5794371171875  8.3059691015625 4.83140828125  L 8.3059691015625 0.0715474843749995  Z " fill-rule="nonzero" fill="#ffa847" stroke="none" transform="matrix(1 0 0 1 229 251 )" />
    <path d="M 8.3059691015625 0.0715474843749995  L 0.8259018984375 0.0715474843749995  L 0.8259018984375 6.1913822265625  L 6.945963421875 6.1913822265625  C 7.6937111015625 6.1913822265625  8.3059691015625 5.5794371171875  8.3059691015625 4.83140828125  L 8.3059691015625 0.0715474843749995  Z " stroke-width="2" stroke="#797979" fill="none" transform="matrix(1 0 0 1 229 251 )" mask="url(#clip124)" />
  </g>
</svg>