<?xml version="1.0" encoding="utf-8"?>
<svg version="1.1" xmlns:xlink="http://www.w3.org/1999/xlink" width="9px" height="7px" xmlns="http://www.w3.org/2000/svg">
  <defs>
    <mask fill="white" id="clip41">
      <path d="M 0.985876992187499 6.711621515625  L 8.46589621875 6.711621515625  L 8.46589621875 0.5918347265625  L 2.3458586953125 0.5918347265625  C 1.5974634140625 0.5918347265625  0.985876992187499 1.203731859375  0.985876992187499 1.9517606953125  L 0.985876992187499 6.711621515625  Z " fill-rule="evenodd" />
    </mask>
  </defs>
  <g transform="matrix(1 0 0 1 -220 -243 )">
    <path d="M 0.985876992187499 6.711621515625  L 8.46589621875 6.711621515625  L 8.46589621875 0.5918347265625  L 2.3458586953125 0.5918347265625  C 1.5974634140625 0.5918347265625  0.985876992187499 1.203731859375  0.985876992187499 1.9517606953125  L 0.985876992187499 6.711621515625  Z " fill-rule="nonzero" fill="#ffa847" stroke="none" transform="matrix(1 0 0 1 220 243 )" />
    <path d="M 0.985876992187499 6.711621515625  L 8.46589621875 6.711621515625  L 8.46589621875 0.5918347265625  L 2.3458586953125 0.5918347265625  C 1.5974634140625 0.5918347265625  0.985876992187499 1.203731859375  0.985876992187499 1.9517606953125  L 0.985876992187499 6.711621515625  Z " stroke-width="2" stroke="#797979" fill="none" transform="matrix(1 0 0 1 220 243 )" mask="url(#clip41)" />
  </g>
</svg>