<?xml version="1.0" encoding="utf-8"?>
<svg version="1.1" xmlns:xlink="http://www.w3.org/1999/xlink" width="9px" height="7px" xmlns="http://www.w3.org/2000/svg">
  <defs>
    <mask fill="white" id="clip194">
      <path d="M 8.46589621875 0.0715474843749995  L 0.9858769921875 0.0715474843749995  L 0.9858769921875 4.8314083046875  C 0.9858769921875 5.579437140625  1.5974634140625 6.19138225  2.3458586953125 6.19138225  L 8.4658962421875 6.19138225  L 8.46589621875 0.0715474843749995  Z " fill-rule="evenodd" />
    </mask>
  </defs>
  <g transform="matrix(1 0 0 1 -220 -251 )">
    <path d="M 8.46589621875 0.0715474843749995  L 0.9858769921875 0.0715474843749995  L 0.9858769921875 4.8314083046875  C 0.9858769921875 5.579437140625  1.5974634140625 6.19138225  2.3458586953125 6.19138225  L 8.4658962421875 6.19138225  L 8.46589621875 0.0715474843749995  Z " fill-rule="nonzero" fill="#ffa847" stroke="none" transform="matrix(1 0 0 1 220 251 )" />
    <path d="M 8.46589621875 0.0715474843749995  L 0.9858769921875 0.0715474843749995  L 0.9858769921875 4.8314083046875  C 0.9858769921875 5.579437140625  1.5974634140625 6.19138225  2.3458586953125 6.19138225  L 8.4658962421875 6.19138225  L 8.46589621875 0.0715474843749995  Z " stroke-width="2" stroke="#797979" fill="none" transform="matrix(1 0 0 1 220 251 )" mask="url(#clip194)" />
  </g>
</svg>