<?xml version="1.0" encoding="utf-8"?>
<svg version="1.1" xmlns:xlink="http://www.w3.org/1999/xlink" width="20px" height="20px" xmlns="http://www.w3.org/2000/svg">
  <defs>
    <mask fill="white" id="clip43">
      <path d="M 19.3479920507813 9.9999400390625  C 19.3479920703125 4.837180390625  15.1626297460937 0.65193798828125  9.99999 0.65193798828125  C 4.8371104296875 0.65193798828125  0.65198794921875 4.83716041015625  0.65198794921875 9.9999400390625  C 0.65198794921875 15.1626996875  4.8371104296875 19.3480620117188  9.99999 19.3480620117188  C 15.1626297265625 19.3480620117188  19.3479920507813 15.1626996875  19.3479920507813 9.9999400390625  Z M 11.7219825 15.412050625  L 11.7219825 16.6420566796875  L 8.27799751953125 16.6420566796875  L 8.27799751953125 15.412050625  L 11.7219825 15.412050625  Z M 14.6739810351563 8.5223818359375  C 14.6739810351562 10.1296520898438  13.8994661523437 11.5534267773437  12.7047761523438 12.4494992382813  L 12.7059953320313 12.4509382617187  C 12.2903771289063 12.731268203125  11.7220024804687 13.4366099804688  11.7220024804687 14.4194036328125  L 11.7220024804687 14.9200641796875  L 10.246003203125 14.9200641796875  L 10.246003203125 9.46326390625  C 10.6695160546875 9.35359826171875  10.9837630078125 8.9725766015625  10.9837630078125 8.5154065625  C 10.9837630078125 7.9728544140625  10.5434015820313 7.5327328125  9.99999 7.5327328125  C 9.4565784375 7.5327328125  9.0162369921875 7.9728544140625  9.0162369921875 8.5154065625  C 9.0162369921875 8.9725766015625  9.3304639453125 9.35359826171875  9.753996796875 9.46326390625  L 9.753996796875 14.9200641992187  L 8.27799751953125 14.9200641992187  L 8.27799751953125 14.4194036523437  C 8.27799751953125 13.4940110742188  7.7309883984375 12.7925466601562  7.3502065625 12.4924900976563  L 7.27573705078125 12.4346093359375  C 6.09233939453125 11.5375575390625  5.32599896484375 10.1207781054688  5.32599896484375 8.5223818359375  C 5.32599896484375 5.80822203125  7.28247248046875 3.60767400390625  9.99999 3.60767400390625  C 12.7175075195312 3.60767400390625  14.6739810351563 5.80824201171875  14.6739810351563 8.5223818359375  Z " fill-rule="evenodd" />
    </mask>
  </defs>
  <g transform="matrix(1 0 0 1 -137 -239 )">
    <path d="M 19.3479920507813 9.9999400390625  C 19.3479920703125 4.837180390625  15.1626297460937 0.65193798828125  9.99999 0.65193798828125  C 4.8371104296875 0.65193798828125  0.65198794921875 4.83716041015625  0.65198794921875 9.9999400390625  C 0.65198794921875 15.1626996875  4.8371104296875 19.3480620117188  9.99999 19.3480620117188  C 15.1626297265625 19.3480620117188  19.3479920507813 15.1626996875  19.3479920507813 9.9999400390625  Z M 11.7219825 15.412050625  L 11.7219825 16.6420566796875  L 8.27799751953125 16.6420566796875  L 8.27799751953125 15.412050625  L 11.7219825 15.412050625  Z M 14.6739810351563 8.5223818359375  C 14.6739810351562 10.1296520898438  13.8994661523437 11.5534267773437  12.7047761523438 12.4494992382813  L 12.7059953320313 12.4509382617187  C 12.2903771289063 12.731268203125  11.7220024804687 13.4366099804688  11.7220024804687 14.4194036328125  L 11.7220024804687 14.9200641796875  L 10.246003203125 14.9200641796875  L 10.246003203125 9.46326390625  C 10.6695160546875 9.35359826171875  10.9837630078125 8.9725766015625  10.9837630078125 8.5154065625  C 10.9837630078125 7.9728544140625  10.5434015820313 7.5327328125  9.99999 7.5327328125  C 9.4565784375 7.5327328125  9.0162369921875 7.9728544140625  9.0162369921875 8.5154065625  C 9.0162369921875 8.9725766015625  9.3304639453125 9.35359826171875  9.753996796875 9.46326390625  L 9.753996796875 14.9200641992187  L 8.27799751953125 14.9200641992187  L 8.27799751953125 14.4194036523437  C 8.27799751953125 13.4940110742188  7.7309883984375 12.7925466601562  7.3502065625 12.4924900976563  L 7.27573705078125 12.4346093359375  C 6.09233939453125 11.5375575390625  5.32599896484375 10.1207781054688  5.32599896484375 8.5223818359375  C 5.32599896484375 5.80822203125  7.28247248046875 3.60767400390625  9.99999 3.60767400390625  C 12.7175075195312 3.60767400390625  14.6739810351563 5.80824201171875  14.6739810351563 8.5223818359375  Z " fill-rule="nonzero" fill="#ffa847" stroke="none" transform="matrix(1 0 0 1 137 239 )" />
    <path d="M 19.3479920507813 9.9999400390625  C 19.3479920703125 4.837180390625  15.1626297460937 0.65193798828125  9.99999 0.65193798828125  C 4.8371104296875 0.65193798828125  0.65198794921875 4.83716041015625  0.65198794921875 9.9999400390625  C 0.65198794921875 15.1626996875  4.8371104296875 19.3480620117188  9.99999 19.3480620117188  C 15.1626297265625 19.3480620117188  19.3479920507813 15.1626996875  19.3479920507813 9.9999400390625  Z " stroke-width="2" stroke="#797979" fill="none" transform="matrix(1 0 0 1 137 239 )" mask="url(#clip43)" />
    <path d="M 11.7219825 15.412050625  L 11.7219825 16.6420566796875  L 8.27799751953125 16.6420566796875  L 8.27799751953125 15.412050625  L 11.7219825 15.412050625  Z " stroke-width="2" stroke="#797979" fill="none" transform="matrix(1 0 0 1 137 239 )" mask="url(#clip43)" />
    <path d="M 14.6739810351563 8.5223818359375  C 14.6739810351562 10.1296520898438  13.8994661523437 11.5534267773437  12.7047761523438 12.4494992382813  L 12.7059953320313 12.4509382617187  C 12.2903771289063 12.731268203125  11.7220024804687 13.4366099804688  11.7220024804687 14.4194036328125  L 11.7220024804687 14.9200641796875  L 10.246003203125 14.9200641796875  L 10.246003203125 9.46326390625  C 10.6695160546875 9.35359826171875  10.9837630078125 8.9725766015625  10.9837630078125 8.5154065625  C 10.9837630078125 7.9728544140625  10.5434015820313 7.5327328125  9.99999 7.5327328125  C 9.4565784375 7.5327328125  9.0162369921875 7.9728544140625  9.0162369921875 8.5154065625  C 9.0162369921875 8.9725766015625  9.3304639453125 9.35359826171875  9.753996796875 9.46326390625  L 9.753996796875 14.9200641992187  L 8.27799751953125 14.9200641992187  L 8.27799751953125 14.4194036523437  C 8.27799751953125 13.4940110742188  7.7309883984375 12.7925466601562  7.3502065625 12.4924900976563  L 7.27573705078125 12.4346093359375  C 6.09233939453125 11.5375575390625  5.32599896484375 10.1207781054688  5.32599896484375 8.5223818359375  C 5.32599896484375 5.80822203125  7.28247248046875 3.60767400390625  9.99999 3.60767400390625  C 12.7175075195312 3.60767400390625  14.6739810351563 5.80824201171875  14.6739810351563 8.5223818359375  Z " stroke-width="2" stroke="#797979" fill="none" transform="matrix(1 0 0 1 137 239 )" mask="url(#clip43)" />
  </g>
</svg>