<?xml version="1.0" encoding="utf-8"?>
<svg version="1.1" xmlns:xlink="http://www.w3.org/1999/xlink" width="18px" height="18px" xmlns="http://www.w3.org/2000/svg">
  <defs>
    <mask fill="white" id="clip44">
      <path d="M 9.014390234375 0.28664765625  C 4.2108070703125 0.28664765625  0.316567363281249 3.69393751953125  0.316567363281249 7.8970877734375  C 0.316567363281249 10.2992790820313  1.59152294921875 12.4381089648437  3.57823595703125 13.83292328125  L 3.57823595703125 17.6821734960938  L 7.3886325 15.3700411132813  C 7.9159749609375 15.4573419140625  8.45820732421875 15.5076877929688  9.0144501953125 15.5076877929688  C 13.8180933203125 15.5076877929688  17.7122131054687 12.1003979296875  17.7122131054687 7.8971077734375  C 17.7122331054687 3.69393751953125  13.8179734179688 0.28664765625  9.014390234375 0.28664765625  Z M 11.732407421875 10.6151049609375  L 6.29631310546875 10.6151049609375  C 5.9960566796875 10.6151049609375  5.75272166015625 10.3718299023437  5.75272166015625 10.0715734765625  C 5.75272166015625 9.77131705078125  5.9960566796875 9.52798203125  6.29631310546875 9.52798203125  L 11.7324074414063 9.52798203125  C 12.0325839257813 9.52798203125  12.2760588476563 9.77131705078125  12.2760588476563 10.0715734765625  C 12.2759988671875 10.3718299023438  12.03258390625 10.6151049609375  11.732407421875 10.6151049609375  Z M 12.819710234375 7.35351630859375  L 5.20913021484375 7.35351630859375  C 4.908813828125 7.35351630859375  4.66547880859375 7.11010134765625  4.66547880859375 6.80992486328125  C 4.66547880859375 6.5096684375  4.908813828125 6.26627345703125  5.20913021484375 6.26627345703125  L 12.819710234375 6.26627345703125  C 13.11988671875 6.26627345703125  13.3633016796875 6.50968841796875  13.3633016796875 6.80992486328125  C 13.36324171875 7.11010134765625  13.1198267578125 7.35351630859375  12.819710234375 7.35351630859375  Z " fill-rule="evenodd" />
    </mask>
  </defs>
  <g transform="matrix(1 0 0 1 -54 -240 )">
    <path d="M 9.014390234375 0.28664765625  C 4.2108070703125 0.28664765625  0.316567363281249 3.69393751953125  0.316567363281249 7.8970877734375  C 0.316567363281249 10.2992790820313  1.59152294921875 12.4381089648437  3.57823595703125 13.83292328125  L 3.57823595703125 17.6821734960938  L 7.3886325 15.3700411132813  C 7.9159749609375 15.4573419140625  8.45820732421875 15.5076877929688  9.0144501953125 15.5076877929688  C 13.8180933203125 15.5076877929688  17.7122131054687 12.1003979296875  17.7122131054687 7.8971077734375  C 17.7122331054687 3.69393751953125  13.8179734179688 0.28664765625  9.014390234375 0.28664765625  Z M 11.732407421875 10.6151049609375  L 6.29631310546875 10.6151049609375  C 5.9960566796875 10.6151049609375  5.75272166015625 10.3718299023437  5.75272166015625 10.0715734765625  C 5.75272166015625 9.77131705078125  5.9960566796875 9.52798203125  6.29631310546875 9.52798203125  L 11.7324074414063 9.52798203125  C 12.0325839257813 9.52798203125  12.2760588476563 9.77131705078125  12.2760588476563 10.0715734765625  C 12.2759988671875 10.3718299023438  12.03258390625 10.6151049609375  11.732407421875 10.6151049609375  Z M 12.819710234375 7.35351630859375  L 5.20913021484375 7.35351630859375  C 4.908813828125 7.35351630859375  4.66547880859375 7.11010134765625  4.66547880859375 6.80992486328125  C 4.66547880859375 6.5096684375  4.908813828125 6.26627345703125  5.20913021484375 6.26627345703125  L 12.819710234375 6.26627345703125  C 13.11988671875 6.26627345703125  13.3633016796875 6.50968841796875  13.3633016796875 6.80992486328125  C 13.36324171875 7.11010134765625  13.1198267578125 7.35351630859375  12.819710234375 7.35351630859375  Z " fill-rule="nonzero" fill="#ffa847" stroke="none" transform="matrix(1 0 0 1 54 240 )" />
    <path d="M 9.014390234375 0.28664765625  C 4.2108070703125 0.28664765625  0.316567363281249 3.69393751953125  0.316567363281249 7.8970877734375  C 0.316567363281249 10.2992790820313  1.59152294921875 12.4381089648437  3.57823595703125 13.83292328125  L 3.57823595703125 17.6821734960938  L 7.3886325 15.3700411132813  C 7.9159749609375 15.4573419140625  8.45820732421875 15.5076877929688  9.0144501953125 15.5076877929688  C 13.8180933203125 15.5076877929688  17.7122131054687 12.1003979296875  17.7122131054687 7.8971077734375  C 17.7122331054687 3.69393751953125  13.8179734179688 0.28664765625  9.014390234375 0.28664765625  Z " stroke-width="2" stroke="#797979" fill="none" transform="matrix(1 0 0 1 54 240 )" mask="url(#clip44)" />
    <path d="M 11.732407421875 10.6151049609375  L 6.29631310546875 10.6151049609375  C 5.9960566796875 10.6151049609375  5.75272166015625 10.3718299023437  5.75272166015625 10.0715734765625  C 5.75272166015625 9.77131705078125  5.9960566796875 9.52798203125  6.29631310546875 9.52798203125  L 11.7324074414063 9.52798203125  C 12.0325839257813 9.52798203125  12.2760588476563 9.77131705078125  12.2760588476563 10.0715734765625  C 12.2759988671875 10.3718299023438  12.03258390625 10.6151049609375  11.732407421875 10.6151049609375  Z " stroke-width="2" stroke="#797979" fill="none" transform="matrix(1 0 0 1 54 240 )" mask="url(#clip44)" />
    <path d="M 12.819710234375 7.35351630859375  L 5.20913021484375 7.35351630859375  C 4.908813828125 7.35351630859375  4.66547880859375 7.11010134765625  4.66547880859375 6.80992486328125  C 4.66547880859375 6.5096684375  4.908813828125 6.26627345703125  5.20913021484375 6.26627345703125  L 12.819710234375 6.26627345703125  C 13.11988671875 6.26627345703125  13.3633016796875 6.50968841796875  13.3633016796875 6.80992486328125  C 13.36324171875 7.11010134765625  13.1198267578125 7.35351630859375  12.819710234375 7.35351630859375  Z " stroke-width="2" stroke="#797979" fill="none" transform="matrix(1 0 0 1 54 240 )" mask="url(#clip44)" />
  </g>
</svg>