<?xml version="1.0" standalone="no"?><!DOCTYPE svg PUBLIC "-//W3C//DTD SVG 1.1//EN" "http://www.w3.org/Graphics/SVG/1.1/DTD/svg11.dtd"><svg t="1494988676853" class="icon" style="" viewBox="0 0 1025 1024" version="1.1" xmlns="http://www.w3.org/2000/svg" p-id="6623" xmlns:xlink="http://www.w3.org/1999/xlink" width="24.0234375" height="24"><defs><style type="text/css"></style></defs><path d="M915.84256 541.248c-24.32 0-44.16-19.776-44.16-44.16 0-225.408-183.168-408.768-408.32-408.768-24.32 0-44.16-19.776-44.16-44.16S439.04256 0 463.36256 0C737.21856 0 960.00256 222.976 960.00256 497.088 960.00256 521.408 940.22656 541.248 915.84256 541.248zM703.81056 477.248c0-121.792-99.008-220.864-220.608-220.864-24.32 0-44.16-19.776-44.16-44.16s19.84-44.16 44.16-44.16c170.304 0 308.864 138.688 308.864 309.184 0 24.384-19.776 44.16-44.16 44.16C723.65056 521.408 703.81056 501.568 703.81056 477.248zM338.11456 395.072c21.952 38.912 49.856 83.712 97.152 131.072C482.62656 573.632 527.36256 601.472 566.27456 623.36l41.728-41.728c43.84-43.904 114.56-44.736 157.504-1.856l0 0 129.6 129.728c42.88 43.072 42.048 113.792-1.664 157.76l-37.376 36.608c-4.16 4.032-8.896 7.168-14.144 9.28-14.72 11.136-33.856 21.504-54.272 29.504-21.312 8.256-42.496 13.632-64.704 16.256C718.01856 959.488 711.23456 960 701.63456 960c-27.648 0-73.152-4.032-133.248-23.232-112.32-35.904-223.168-108.032-329.344-214.4C73.21856 556.416 1.73056 427.648 0.00256 291.904c-0.128-11.776 4.288-22.912 12.544-31.36 8.192-8.448 19.264-13.184 31.104-13.376 24.384 0 44.288 19.52 44.608 43.584 1.408 110.656 65.152 221.056 213.184 369.216 227.072 227.328 403.904 212.096 411.392 211.328 14.336-1.728 28.416-5.312 42.752-10.816 15.04-5.888 29.44-14.08 41.6-23.552 1.344-1.024 2.624-1.92 3.968-2.816l30.016-29.376c9.344-9.408 10.048-24.192 1.472-32.768l-129.408-129.6c-8.576-8.512-23.232-7.744-32.768 1.792l-65.28 65.28c-13.696 13.76-35.264 16.832-52.48 7.488l-13.12-7.296c-43.456-24.128-102.784-57.024-166.592-120.96-63.872-63.936-96.896-123.456-120.96-166.912l-6.784-12.16C235.20256 392.128 238.08256 370.304 252.16256 356.224l65.28-65.344c9.536-9.536 10.368-24.32 1.792-32.896L189.69856 128.384C185.85856 124.544 180.35456 122.112 174.46656 122.496c-6.4 0.128-12.544 2.816-17.408 7.552l-33.92 36.032C118.53056 172.288 113.34656 180.48 108.93056 188.864 103.49056 199.36 94.27456 207.04 83.01056 210.56 71.74656 214.144 59.90656 213.056 49.41056 207.616 38.97856 202.176 31.29856 192.96 27.71456 181.696 24.19456 170.432 25.28256 158.528 30.72256 148.032c7.232-13.888 15.616-26.88 24.768-38.592l2.368-2.816 35.712-37.952c21.632-21.76 49.728-33.92 79.296-34.432C202.69056 33.28 230.91456 44.736 252.09856 65.984l129.472 129.664c42.944 43.008 42.176 113.792-1.728 157.76L338.11456 395.072z" p-id="6624" fill="#999999"></path></svg>